<svg width="400" height="400" viewBox="0 0 400 400" fill="none" xmlns="http://www.w3.org/2000/svg">
<path d="M400 305.92H0V306.12H400V305.92Z" fill="#EBEBEB"/>
<path d="M359.918 318.792H333.422V318.992H359.918V318.792Z" fill="#EBEBEB"/>
<path d="M323.351 318.792H266.703V318.992H323.351V318.792Z" fill="#EBEBEB"/>
<path d="M235.461 311.368H220.109V311.568H235.461V311.368Z" fill="#EBEBEB"/>
<path d="M69.4008 312.712H41.9688V312.912H69.4008V312.712Z" fill="#EBEBEB"/>
<path d="M126.403 312.712H76.5234V312.912H126.403V312.712Z" fill="#EBEBEB"/>
<path d="M180.112 316.088H150.664V316.288H180.112V316.088Z" fill="#EBEBEB"/>
<path d="M189.602 270.24H35.1303C33.9202 270.238 32.7604 269.756 31.9054 268.899C31.0505 268.043 30.5703 266.882 30.5703 265.672V48.528C30.5808 47.3248 31.0657 46.1744 31.9195 45.3266C32.7733 44.4788 33.9271 44.0021 35.1303 44H189.602C190.814 44 191.976 44.4813 192.832 45.3379C193.689 46.1946 194.17 47.3565 194.17 48.568V265.672C194.17 266.884 193.689 268.045 192.832 268.902C191.976 269.759 190.814 270.24 189.602 270.24ZM35.1303 44.16C33.9732 44.1621 32.8643 44.6233 32.0468 45.4422C31.2294 46.2611 30.7703 47.3709 30.7703 48.528V265.672C30.7703 266.829 31.2294 267.939 32.0468 268.758C32.8643 269.577 33.9732 270.038 35.1303 270.04H189.602C190.76 270.038 191.87 269.577 192.689 268.758C193.507 267.94 193.968 266.83 193.97 265.672V48.528C193.968 47.3702 193.507 46.2604 192.689 45.4417C191.87 44.623 190.76 44.1621 189.602 44.16H35.1303Z" fill="#EBEBEB"/>
<path d="M362.65 270.24H208.17C206.959 270.238 205.798 269.756 204.942 268.9C204.086 268.044 203.604 266.883 203.602 265.672V48.528C203.614 47.3241 204.101 46.1737 204.956 45.3261C205.811 44.4785 206.966 44.002 208.17 44H362.65C363.851 44.0042 365.003 44.4818 365.855 45.3294C366.707 46.177 367.191 47.3262 367.202 48.528V265.672C367.202 266.881 366.722 268.04 365.869 268.896C365.016 269.753 363.858 270.236 362.65 270.24ZM208.17 44.16C207.012 44.1621 205.902 44.623 205.083 45.4417C204.265 46.2604 203.804 47.3702 203.802 48.528V265.672C203.804 266.83 204.265 267.94 205.083 268.758C205.902 269.577 207.012 270.038 208.17 270.04H362.65C363.807 270.038 364.917 269.577 365.736 268.758C366.555 267.94 367.015 266.83 367.018 265.672V48.528C367.015 47.3702 366.555 46.2604 365.736 45.4417C364.917 44.623 363.807 44.1621 362.65 44.16H208.17Z" fill="#EBEBEB"/>
<path d="M126.993 71.8965H49.6406V285.256H126.993V71.8965Z" fill="#F5F5F5"/>
<path d="M126.989 285.264H127.773L127.773 71.9037H126.989L126.989 285.264Z" fill="#EBEBEB"/>
<path d="M119.526 80.04H57.1016V277.12H119.526V80.04Z" fill="white"/>
<path d="M160.153 198.192L342.625 198.192V62.6164L160.153 62.6164L160.153 198.192Z" fill="#E6E6E6"/>
<path d="M157.325 198.192L339.797 198.192V62.6164L157.325 62.6164L157.325 198.192Z" fill="#F5F5F5"/>
<path d="M334.727 192.504V68.3115L162.391 68.3115V192.504H334.727Z" fill="white"/>
<path d="M164.523 192.496V68.3037H162.387V192.496H164.523Z" fill="#E6E6E6"/>
<path d="M159.415 165.968L337.695 165.968V158.32L159.415 158.32V165.968Z" fill="#F5F5F5"/>
<g opacity="0.4">
<path d="M168.888 56.624H151.664V100.2H168.888V56.624Z" fill="#E6E6E6"/>
<path d="M168.886 96.6963H177.43V56.6243H168.886V96.6963Z" fill="#F5F5F5"/>
<path d="M194.654 56.624H177.43V100.2H194.654V56.624Z" fill="#E6E6E6"/>
<path d="M194.659 96.6963H203.203V56.6243H194.659V96.6963Z" fill="#F5F5F5"/>
<path d="M220.427 56.624H203.203V100.2H220.427V56.624Z" fill="#E6E6E6"/>
<path d="M220.425 96.6963H228.969V56.6243H220.425V96.6963Z" fill="#F5F5F5"/>
<path d="M246.193 56.624H228.969V100.2H246.193V56.624Z" fill="#E6E6E6"/>
<path d="M246.19 96.6963H254.734V56.6243H246.19V96.6963Z" fill="#F5F5F5"/>
<path d="M271.958 56.624H254.734V100.2H271.958V56.624Z" fill="#E6E6E6"/>
<path d="M271.964 96.6963H280.508V56.6243H271.964V96.6963Z" fill="#F5F5F5"/>
<path d="M297.732 56.624H280.508V100.2H297.732V56.624Z" fill="#E6E6E6"/>
<path d="M297.729 96.6963H306.273V56.6243H297.729V96.6963Z" fill="#F5F5F5"/>
<path d="M323.497 56.624H306.273V100.2H323.497V56.624Z" fill="#E6E6E6"/>
<path d="M323.495 96.6963H332.039V56.6243H323.495V96.6963Z" fill="#F5F5F5"/>
<path d="M349.263 56.624H332.039V100.2H349.263V56.624Z" fill="#E6E6E6"/>
</g>
<path d="M162.968 305.92H184.32V226.4H162.968V305.92Z" fill="#E6E6E6"/>
<path d="M166.529 305.92H162.977V298.76H170.257L166.529 305.92Z" fill="#F0F0F0"/>
<path d="M316.609 305.92H337.961V226.4H316.609V305.92Z" fill="#E6E6E6"/>
<path d="M162.975 303.168H319.703V226.4H162.975V303.168Z" fill="#F0F0F0"/>
<path d="M165.737 250.856L316.953 250.856V229.8L165.737 229.8V250.856Z" fill="#E6E6E6"/>
<path d="M203.996 236.344H278.709C282.173 236.344 285.492 233.744 287.876 229.144H194.812C197.196 233.744 200.508 236.344 203.996 236.344Z" fill="#F0F0F0"/>
<path d="M316.15 305.92H319.702V298.76H312.422L316.15 305.92Z" fill="#F0F0F0"/>
<path d="M165.737 275.312H316.953V254.256L165.737 254.256V275.312Z" fill="#E6E6E6"/>
<path d="M203.996 260.8H278.709C282.173 260.8 285.492 258.208 287.876 253.6H194.812C197.196 258.208 200.508 260.8 203.996 260.8Z" fill="#F0F0F0"/>
<path d="M165.737 299.768H316.953V278.712H165.737V299.768Z" fill="#E6E6E6"/>
<path d="M203.996 285.256H278.709C282.173 285.256 285.492 282.664 287.876 278.056H194.812C197.196 282.664 200.508 285.256 203.996 285.256Z" fill="#F0F0F0"/>
<path d="M200.003 342.048C285.669 342.048 355.115 337.993 355.115 332.992C355.115 327.99 285.669 323.936 200.003 323.936C114.337 323.936 44.8906 327.99 44.8906 332.992C44.8906 337.993 114.337 342.048 200.003 342.048Z" fill="#F5F5F5"/>
<path d="M295.902 328.424H295.046C294.867 328.411 294.699 328.333 294.574 328.205C294.449 328.077 294.375 327.907 294.366 327.728L289.102 291.072H293.102L296.59 327.488C296.609 327.595 296.606 327.705 296.582 327.811C296.557 327.917 296.511 328.017 296.447 328.104C296.383 328.192 296.301 328.265 296.207 328.32C296.113 328.375 296.009 328.411 295.902 328.424Z" fill="#152B1D"/>
<path opacity="0.3" d="M295.902 328.424H295.046C294.867 328.411 294.699 328.333 294.574 328.205C294.449 328.077 294.375 327.907 294.366 327.728L289.102 291.072H293.102L296.59 327.488C296.609 327.595 296.606 327.705 296.582 327.811C296.557 327.917 296.511 328.017 296.447 328.104C296.383 328.192 296.301 328.265 296.207 328.32C296.113 328.375 296.009 328.411 295.902 328.424Z" fill="black"/>
<path d="M306.878 328.424H306.022C305.843 328.411 305.676 328.333 305.551 328.205C305.426 328.077 305.351 327.907 305.342 327.728L300.078 291.072H304.078L307.574 327.488C307.593 327.596 307.59 327.706 307.565 327.813C307.54 327.919 307.494 328.019 307.429 328.107C307.363 328.195 307.281 328.268 307.186 328.323C307.092 328.377 306.987 328.412 306.878 328.424Z" fill="#152B1D"/>
<path opacity="0.3" d="M306.878 328.424H306.022C305.843 328.411 305.676 328.333 305.551 328.205C305.426 328.077 305.351 327.907 305.342 327.728L300.078 291.072H304.078L307.574 327.488C307.593 327.596 307.59 327.706 307.565 327.813C307.54 327.919 307.494 328.019 307.429 328.107C307.363 328.195 307.281 328.268 307.186 328.323C307.092 328.377 306.987 328.412 306.878 328.424Z" fill="black"/>
<path d="M245.732 328.424H246.588C246.767 328.411 246.934 328.333 247.059 328.205C247.185 328.077 247.259 327.907 247.268 327.728L252.532 291.072H248.532L245.044 327.488C245.025 327.595 245.027 327.705 245.052 327.811C245.076 327.917 245.122 328.017 245.187 328.104C245.251 328.192 245.333 328.265 245.426 328.32C245.52 328.375 245.624 328.411 245.732 328.424Z" fill="#152B1D"/>
<path opacity="0.3" d="M245.732 328.424H246.588C246.767 328.411 246.934 328.333 247.059 328.205C247.185 328.077 247.259 327.907 247.268 327.728L252.532 291.072H248.532L245.044 327.488C245.025 327.595 245.027 327.705 245.052 327.811C245.076 327.917 245.122 328.017 245.187 328.104C245.251 328.192 245.333 328.265 245.426 328.32C245.52 328.375 245.624 328.411 245.732 328.424Z" fill="black"/>
<path d="M234.755 328.424H235.611C235.79 328.411 235.958 328.333 236.083 328.205C236.208 328.077 236.282 327.907 236.291 327.728L241.555 291.072H237.555L234.067 327.488C234.048 327.595 234.051 327.705 234.075 327.811C234.1 327.917 234.146 328.017 234.21 328.104C234.274 328.192 234.356 328.265 234.45 328.32C234.544 328.375 234.648 328.411 234.755 328.424Z" fill="#152B1D"/>
<path opacity="0.3" d="M234.755 328.424H235.611C235.79 328.411 235.958 328.333 236.083 328.205C236.208 328.077 236.282 327.907 236.291 327.728L241.555 291.072H237.555L234.067 327.488C234.048 327.595 234.051 327.705 234.075 327.811C234.1 327.917 234.146 328.017 234.21 328.104C234.274 328.192 234.356 328.265 234.45 328.32C234.544 328.375 234.648 328.411 234.755 328.424Z" fill="black"/>
<path d="M220.529 247.608H247.473C252.273 231.008 269.457 217.912 287.073 217.912H295.825C314.225 217.912 326.161 232.256 322.401 249.96C321.698 253.217 320.543 256.359 318.969 259.296L314.721 285.048C314.177 288.376 311.521 291.072 308.801 291.072H227.697C224.977 291.072 222.321 288.376 221.777 285.048L216.593 253.6C216.041 250.304 217.809 247.608 220.529 247.608Z" fill="#152B1D"/>
<path opacity="0.5" d="M220.529 247.608H247.473C252.273 231.008 269.457 217.912 287.073 217.912H295.825C314.225 217.912 326.161 232.256 322.401 249.96C321.698 253.217 320.543 256.359 318.969 259.296L314.721 285.048C314.177 288.376 311.521 291.072 308.801 291.072H227.697C224.977 291.072 222.321 288.376 221.777 285.048L216.593 253.6C216.041 250.304 217.809 247.608 220.529 247.608Z" fill="white"/>
<path d="M213.785 318.945L220.457 322.001C220.57 322.049 220.661 322.139 220.709 322.253C220.756 322.366 220.758 322.494 220.713 322.609L218.609 328.041C218.483 328.318 218.252 328.535 217.968 328.643C217.683 328.75 217.367 328.741 217.089 328.617C214.785 327.513 213.737 326.865 210.801 325.521C207.697 323.987 204.699 322.25 201.825 320.321C199.649 318.721 201.249 316.561 202.329 317.041C207.209 319.193 210.329 319.385 212.593 318.841C212.99 318.737 213.411 318.774 213.785 318.945Z" fill="#263238"/>
<path d="M261.106 237.145C261.106 237.145 218.442 237.673 217.778 254.489C216.834 278.665 213.266 318.801 213.266 318.801L220.466 322.001C220.466 322.001 233.074 281.729 233.522 262.849C245.522 259.873 276.378 262.849 280.002 253.041C281.778 247.939 282.248 242.474 281.37 237.145H261.106Z" fill="#152B1D"/>
<path opacity="0.2" d="M261.106 237.145C261.106 237.145 218.442 237.673 217.778 254.489C216.834 278.665 213.266 318.801 213.266 318.801L220.466 322.001C220.466 322.001 233.074 281.729 233.522 262.849C245.522 259.873 276.378 262.849 280.002 253.041C281.778 247.939 282.248 242.474 281.37 237.145H261.106Z" fill="#152B1D"/>
<path d="M270.184 192.896C269.808 194.448 269.432 195.848 269.008 197.304C268.584 198.76 268.144 200.176 267.68 201.6C266.744 204.448 265.712 207.28 264.528 210.08C263.343 212.942 261.966 215.722 260.408 218.4C259.59 219.816 258.687 221.181 257.704 222.488C256.621 223.935 255.373 225.251 253.984 226.408L253.864 226.512L253.608 226.704C252.801 227.231 251.88 227.56 250.92 227.664C250.317 227.738 249.708 227.738 249.104 227.664C248.266 227.561 247.442 227.363 246.648 227.072C245.418 226.629 244.223 226.094 243.072 225.472C241.019 224.33 239.035 223.069 237.128 221.696C235.272 220.36 233.48 218.976 231.736 217.536C229.992 216.096 228.32 214.624 226.664 213.04C226.24 212.628 225.979 212.075 225.93 211.485C225.882 210.895 226.048 210.307 226.4 209.831C226.751 209.354 227.264 209.021 227.842 208.893C228.42 208.766 229.025 208.852 229.544 209.136H229.584C231.472 210.184 233.376 211.296 235.288 212.336C237.2 213.376 239.088 214.424 240.984 215.4C242.88 216.376 244.784 217.304 246.584 218.056C247.41 218.408 248.264 218.692 249.136 218.904C249.396 218.981 249.666 219.017 249.936 219.008C249.992 219.008 249.936 219.008 249.768 219.008C249.361 219.055 248.971 219.2 248.632 219.432L248.248 219.72C249.036 218.953 249.732 218.097 250.32 217.168C251.023 216.114 251.666 215.021 252.248 213.896C253.475 211.481 254.573 209.003 255.536 206.472C256.52 203.896 257.44 201.256 258.296 198.584C259.152 195.912 259.952 193.168 260.696 190.584V190.488C261.036 189.247 261.85 188.19 262.963 187.545C264.076 186.9 265.397 186.719 266.643 187.04C267.888 187.362 268.957 188.161 269.618 189.264C270.279 190.367 270.48 191.686 270.176 192.936L270.184 192.896Z" fill="#263238"/>
<path d="M252.888 322.4H260.888C260.955 322.397 261.022 322.407 261.085 322.43C261.148 322.453 261.205 322.488 261.255 322.533C261.304 322.579 261.343 322.633 261.371 322.694C261.399 322.755 261.414 322.821 261.416 322.888L261.808 329.216C261.808 329.549 261.678 329.869 261.444 330.107C261.211 330.345 260.893 330.482 260.56 330.488C257.776 330.44 256.44 330.272 252.92 330.272C250.76 330.272 246.392 330.496 243.4 330.496C240.408 330.496 240.496 327.544 241.76 327.296C247.448 326.096 249.648 324.44 251.656 322.856C252.006 322.574 252.439 322.414 252.888 322.4Z" fill="#263238"/>
<path d="M272.597 237.145C272.597 237.145 233.901 240.409 234.853 257.217C235.893 275.617 252.885 322.417 252.885 322.417H260.709C260.709 322.417 254.013 279.561 251.653 260.817C262.565 260.817 287.861 262.865 291.493 253.033C293.269 247.931 293.737 242.466 292.853 237.137L272.597 237.145Z" fill="#152B1D"/>
<path d="M230.148 209.92C229.544 208.937 228.813 208.038 227.972 207.248C226.372 208.736 225.5 213.064 225.5 213.064L227.684 213.256C227.684 213.256 230.196 212.44 230.148 209.92Z" fill="#152B1D"/>
<path d="M222.116 206.032L219.628 204.952C219.305 204.813 218.942 204.795 218.606 204.902C218.271 205.01 217.986 205.235 217.804 205.536L216.62 207.488C216.456 207.763 216.387 208.084 216.423 208.402C216.46 208.72 216.599 209.017 216.82 209.248L220.236 212.808L225.932 212.576C226.254 212.566 226.567 212.469 226.838 212.295C227.11 212.122 227.33 211.88 227.476 211.592L228.132 210.304C228.338 209.917 228.395 209.466 228.29 209.04C228.185 208.613 227.927 208.24 227.564 207.992C225.716 206.776 222.116 206.032 222.116 206.032Z" fill="#FFC3BD"/>
<path d="M260.734 191.256C259.598 198.456 258.118 214 261.134 237.44L292.854 237.144C292.662 220.896 295.206 205.648 297.694 190.744C297.792 190.159 297.773 189.56 297.635 188.983C297.498 188.405 297.246 187.861 296.895 187.383C296.544 186.905 296.1 186.502 295.59 186.198C295.079 185.895 294.514 185.697 293.926 185.616C284.829 184.552 275.639 184.552 266.542 185.616C265.098 185.813 263.756 186.467 262.711 187.482C261.666 188.497 260.973 189.819 260.734 191.256Z" fill="#263238"/>
<path d="M297.986 188.721C298.922 191.033 299.666 193.249 300.434 195.537C301.202 197.825 301.858 200.121 302.49 202.449C303.122 204.777 303.674 207.153 304.09 209.577C304.574 212.052 304.897 214.556 305.058 217.073C305.106 217.721 305.114 218.393 305.122 219.065V220.089C305.111 221.14 304.835 222.171 304.322 223.089C303.98 223.684 303.53 224.211 302.994 224.641C302.744 224.841 302.476 225.018 302.194 225.169C301.938 225.31 301.671 225.428 301.394 225.521C300.641 225.8 299.845 225.941 299.042 225.937C298.093 225.915 297.152 225.767 296.242 225.497C294.911 225.096 293.616 224.585 292.37 223.969C291.21 223.393 290.122 222.793 289.058 222.169C284.922 219.699 280.997 216.892 277.322 213.777C276.86 213.398 276.553 212.862 276.46 212.271C276.366 211.681 276.493 211.077 276.816 210.573C277.138 210.07 277.635 209.703 278.21 209.541C278.786 209.38 279.4 209.435 279.938 209.697H279.994C284.13 211.665 288.338 213.697 292.434 215.385C293.458 215.801 294.474 216.185 295.474 216.529C296.36 216.854 297.273 217.103 298.202 217.273C298.57 217.337 298.898 217.329 298.858 217.273C298.641 217.252 298.423 217.291 298.226 217.385C298.1 217.433 297.977 217.489 297.858 217.553C297.705 217.635 297.56 217.731 297.426 217.841C297.109 218.088 296.839 218.388 296.626 218.729C296.386 219.127 296.243 219.577 296.21 220.041L296.17 219.313C296.122 218.817 296.082 218.329 296.01 217.817C295.343 213.479 294.343 209.2 293.018 205.017C291.738 200.721 290.266 196.337 288.77 192.169V192.129C288.357 190.927 288.426 189.612 288.965 188.461C289.503 187.311 290.467 186.414 291.655 185.961C292.842 185.508 294.158 185.535 295.326 186.035C296.494 186.535 297.422 187.469 297.914 188.641L297.986 188.721Z" fill="#263238"/>
<path d="M285.307 169.528L281.475 172.728L276.243 177.072C276.404 177.765 276.516 178.468 276.579 179.176C276.827 181.704 276.275 184.024 273.211 185.2C272.628 185.391 272.097 185.713 271.659 186.142C271.221 186.57 270.887 187.094 270.683 187.672C270.267 189.008 270.755 190.504 274.963 190.504C281.147 190.504 284.371 187.752 285.587 186.4C285.75 186.213 285.845 185.975 285.855 185.726C285.865 185.478 285.79 185.233 285.643 185.032C283.203 181.544 284.307 173.864 285.307 169.528Z" fill="#FFC3BD"/>
<path d="M274.812 189.128C275.081 189.439 275.265 189.813 275.348 190.216C275.665 189.786 276.058 189.417 276.508 189.128C277.04 189.378 277.513 189.739 277.895 190.185C278.277 190.632 278.56 191.155 278.724 191.72C277.558 191.481 276.436 191.066 275.396 190.488C274.71 190.868 273.953 191.102 273.172 191.176C273.22 189.792 274.812 189.128 274.812 189.128Z" fill="#152B1D"/>
<path d="M276.508 189.129C277.619 190.466 278.351 192.076 278.628 193.793C278.628 193.793 288.868 191.233 288.388 184.553C287.488 184.128 286.531 183.834 285.548 183.681C285.548 183.681 283.348 187.681 276.508 189.129Z" fill="#152B1D"/>
<path d="M274.809 189.128C273.689 190.476 272.914 192.077 272.553 193.792C272.553 193.792 267.305 188.992 272.417 184.608C273.299 184.327 274.208 184.137 275.129 184.04C275.129 184.04 271.729 186.8 274.809 189.128Z" fill="#152B1D"/>
<path opacity="0.2" d="M276.242 177.048C276.403 177.743 276.515 178.449 276.578 179.16C278.53 178.768 281.13 176.696 281.378 174.704C281.474 174.044 281.499 173.377 281.45 172.712L276.242 177.048Z" fill="black"/>
<path d="M270.644 155.752C265.844 159.168 268.516 167.176 272.628 164.112C276.74 161.048 274.564 152.968 270.644 155.752Z" fill="#263238"/>
<path d="M286.889 162.889C285.553 169.017 285.089 172.665 281.465 175.465C280.298 176.387 278.901 176.972 277.425 177.157C275.949 177.343 274.45 177.121 273.091 176.516C271.732 175.912 270.564 174.947 269.714 173.727C268.863 172.507 268.362 171.077 268.265 169.593C267.785 163.881 270.049 154.809 276.497 153.073C277.885 152.659 279.358 152.617 280.767 152.953C282.176 153.288 283.472 153.988 284.525 154.983C285.578 155.977 286.351 157.231 286.766 158.619C287.181 160.007 287.223 161.479 286.889 162.889Z" fill="#FFC3BD"/>
<path d="M284.051 158.336C280.651 157.4 271.883 159.632 268.771 156.312C265.435 152.752 270.299 151.016 271.739 152.256C269.923 150.176 270.595 147.952 273.171 148.152C275.051 148.296 275.643 150.376 275.643 150.376C275.643 150.376 275.331 146.736 278.563 146.992C281.491 147.216 281.499 151.168 281.499 151.168C281.499 151.168 288.491 149.192 290.827 155.864C295.227 155.768 295.131 165.032 286.275 168.328C282.683 166.552 282.515 160.232 284.051 158.336Z" fill="#263238"/>
<path d="M289.879 157.201C289.649 157.215 289.422 157.138 289.247 156.988C289.072 156.837 288.962 156.625 288.941 156.394C288.92 156.164 288.99 155.935 289.135 155.756C289.281 155.576 289.49 155.46 289.719 155.433C289.96 155.281 290.143 155.053 290.239 154.785C290.368 154.529 290.443 154.249 290.46 153.963C290.476 153.677 290.434 153.39 290.335 153.121C290.268 153.014 290.225 152.894 290.208 152.769C290.191 152.644 290.2 152.516 290.236 152.395C290.273 152.274 290.334 152.162 290.417 152.067C290.5 151.971 290.602 151.895 290.716 151.842C290.831 151.789 290.956 151.762 291.082 151.761C291.208 151.76 291.333 151.786 291.449 151.838C291.564 151.889 291.667 151.964 291.751 152.059C291.835 152.153 291.898 152.264 291.935 152.385C292.153 152.92 292.248 153.497 292.215 154.074C292.182 154.651 292.021 155.214 291.743 155.721C291.587 156.079 291.35 156.398 291.052 156.651C290.754 156.905 290.402 157.087 290.023 157.185C289.976 157.197 289.928 157.202 289.879 157.201Z" fill="#263238"/>
<path d="M287.887 168.576C287.055 169.657 285.858 170.396 284.519 170.656C282.783 170.968 282.255 169.368 283.023 167.824C283.711 166.424 285.423 164.584 287.023 164.984C288.623 165.384 288.911 167.2 287.887 168.576Z" fill="#FFC3BD"/>
<path d="M276.386 163.448C276.306 163.952 275.978 164.328 275.65 164.288C275.322 164.248 275.114 163.808 275.186 163.304C275.258 162.8 275.594 162.424 275.93 162.504C276.266 162.584 276.458 162.944 276.386 163.448Z" fill="#263238"/>
<path d="M270.675 162.768C270.595 163.272 270.267 163.648 269.939 163.568C269.611 163.488 269.403 163.088 269.475 162.584C269.547 162.08 269.883 161.704 270.219 161.744C270.555 161.784 270.755 162.264 270.675 162.768Z" fill="#263238"/>
<path d="M272.416 162.969C271.779 164.268 270.972 165.476 270.016 166.561C270.299 166.787 270.628 166.948 270.981 167.033C271.334 167.117 271.701 167.123 272.056 167.049L272.416 162.969Z" fill="#ED847E"/>
<path d="M274.4 169.64C274.994 169.648 275.584 169.536 276.134 169.31C276.684 169.085 277.183 168.751 277.6 168.328C277.62 168.298 277.628 168.261 277.623 168.225C277.618 168.189 277.601 168.156 277.574 168.132C277.547 168.108 277.512 168.095 277.476 168.094C277.44 168.093 277.404 168.105 277.376 168.128C276.92 168.58 276.366 168.92 275.757 169.124C275.148 169.328 274.501 169.39 273.864 169.304C273.825 169.301 273.787 169.313 273.756 169.336C273.725 169.36 273.704 169.394 273.696 169.432C273.694 169.452 273.696 169.472 273.701 169.492C273.707 169.511 273.717 169.529 273.729 169.544C273.742 169.56 273.757 169.573 273.775 169.583C273.793 169.592 273.812 169.598 273.832 169.6C274.021 169.624 274.21 169.638 274.4 169.64Z" fill="#263238"/>
<path d="M278.683 160.544C278.73 160.534 278.774 160.512 278.811 160.48C278.839 160.453 278.861 160.42 278.877 160.383C278.892 160.347 278.9 160.308 278.9 160.268C278.9 160.229 278.892 160.19 278.877 160.153C278.861 160.117 278.839 160.084 278.811 160.056C278.507 159.698 278.12 159.42 277.683 159.247C277.246 159.074 276.773 159.011 276.307 159.064C276.268 159.071 276.23 159.085 276.197 159.105C276.163 159.126 276.134 159.153 276.111 159.185C276.088 159.217 276.072 159.253 276.063 159.291C276.054 159.33 276.052 159.37 276.059 159.408C276.065 159.447 276.079 159.484 276.099 159.518C276.12 159.551 276.147 159.581 276.179 159.604C276.211 159.627 276.247 159.643 276.286 159.652C276.324 159.661 276.364 159.663 276.403 159.656C276.771 159.621 277.142 159.675 277.485 159.814C277.828 159.953 278.132 160.174 278.371 160.456C278.408 160.5 278.458 160.531 278.513 160.547C278.569 160.563 278.628 160.562 278.683 160.544Z" fill="#263238"/>
<path d="M268.633 160.216C268.68 160.229 268.729 160.231 268.776 160.221C268.823 160.212 268.868 160.191 268.905 160.16C269.192 159.905 269.534 159.72 269.905 159.62C270.276 159.52 270.665 159.508 271.041 159.584C271.118 159.604 271.199 159.594 271.267 159.555C271.336 159.516 271.387 159.452 271.409 159.376C271.42 159.339 271.423 159.299 271.419 159.26C271.414 159.221 271.402 159.183 271.382 159.149C271.363 159.114 271.337 159.084 271.306 159.06C271.275 159.036 271.239 159.019 271.201 159.008C270.732 158.907 270.246 158.918 269.782 159.038C269.318 159.159 268.889 159.387 268.529 159.704C268.469 159.754 268.431 159.826 268.423 159.904C268.416 159.982 268.439 160.06 268.489 160.12C268.526 160.166 268.576 160.2 268.633 160.216Z" fill="#263238"/>
<path d="M279.048 205.552L275.544 203.376C275.294 203.221 275.016 203.116 274.726 203.069C274.436 203.022 274.139 203.033 273.853 203.101C273.567 203.17 273.298 203.294 273.061 203.468C272.824 203.642 272.623 203.861 272.472 204.112L272.064 204.8C271.82 205.201 271.71 205.67 271.75 206.137C271.791 206.605 271.979 207.047 272.288 207.4L274.688 210.176C274.688 210.176 276.792 215.08 279.232 213.784L281.088 210.584L279.048 205.552Z" fill="#FFC3BD"/>
<path d="M282.658 211.825C282.178 210.663 281.554 209.567 280.802 208.561C279.042 210.065 277.602 214.865 277.602 214.865L279.754 215.329C280.536 215.109 281.234 214.656 281.752 214.03C282.271 213.404 282.587 212.635 282.658 211.825Z" fill="#152B1D"/>
<path d="M309.461 247.608H267.925C265.205 247.608 263.445 250.304 263.989 253.632L269.173 285.048C269.725 288.376 272.373 291.072 275.101 291.072H304.317L309.461 247.608Z" fill="#152B1D"/>
<path opacity="0.5" d="M309.461 247.608H267.925C265.205 247.608 263.445 250.304 263.989 253.632L269.173 285.048C269.725 288.376 272.373 291.072 275.101 291.072H304.317L309.461 247.608Z" fill="white"/>
<path d="M117.823 331.119H119.023C119.235 331.119 119.439 331.035 119.589 330.885C119.739 330.735 119.823 330.531 119.823 330.319L126.399 231.199H121.447L117.047 330.207C117.031 330.319 117.039 330.433 117.071 330.542C117.102 330.651 117.156 330.752 117.23 330.838C117.303 330.924 117.394 330.994 117.496 331.042C117.598 331.091 117.71 331.117 117.823 331.119Z" fill="#DAA520"/>
<path opacity="0.3" d="M117.823 331.119H119.023C119.235 331.119 119.439 331.035 119.589 330.885C119.739 330.735 119.823 330.531 119.823 330.319L126.399 231.199H121.447L117.047 330.207C117.031 330.319 117.039 330.433 117.071 330.542C117.102 330.651 117.156 330.752 117.23 330.838C117.303 330.924 117.394 330.994 117.496 331.042C117.598 331.091 117.71 331.117 117.823 331.119Z" fill="white"/>
<path d="M104.229 331.119H105.429C105.641 331.119 105.845 331.035 105.995 330.885C106.145 330.735 106.229 330.531 106.229 330.319L112.805 231.199H107.845L103.453 330.207C103.437 330.319 103.445 330.433 103.477 330.542C103.508 330.651 103.563 330.752 103.636 330.838C103.709 330.924 103.8 330.994 103.902 331.042C104.005 331.091 104.116 331.117 104.229 331.119Z" fill="#DAA520"/>
<path opacity="0.3" d="M104.229 331.119H105.429C105.641 331.119 105.845 331.035 105.995 330.885C106.145 330.735 106.229 330.531 106.229 330.319L112.805 231.199H107.845L103.453 330.207C103.437 330.319 103.445 330.433 103.477 330.542C103.508 330.651 103.563 330.752 103.636 330.838C103.709 330.924 103.8 330.994 103.902 331.042C104.005 331.091 104.116 331.117 104.229 331.119Z" fill="white"/>
<path d="M271.943 331.119H270.743C270.531 331.119 270.328 331.035 270.178 330.885C270.027 330.735 269.943 330.531 269.943 330.319L263.367 231.199H268.319L272.719 330.207C272.735 330.319 272.727 330.433 272.695 330.542C272.664 330.651 272.61 330.752 272.536 330.838C272.463 330.924 272.372 330.994 272.27 331.042C272.168 331.091 272.056 331.117 271.943 331.119Z" fill="#DAA520"/>
<path opacity="0.3" d="M271.943 331.119H270.743C270.531 331.119 270.328 331.035 270.178 330.885C270.027 330.735 269.943 330.531 269.943 330.319L263.367 231.199H268.319L272.719 330.207C272.735 330.319 272.727 330.433 272.695 330.542C272.664 330.651 272.61 330.752 272.536 330.838C272.463 330.924 272.372 330.994 272.27 331.042C272.168 331.091 272.056 331.117 271.943 331.119Z" fill="white"/>
<path d="M285.545 331.119H284.345C284.133 331.119 283.929 331.035 283.779 330.885C283.629 330.735 283.545 330.531 283.545 330.319L276.969 231.199H281.929L286.321 330.207C286.337 330.319 286.329 330.433 286.297 330.542C286.266 330.651 286.211 330.752 286.138 330.838C286.065 330.924 285.974 330.994 285.872 331.042C285.769 331.091 285.658 331.117 285.545 331.119Z" fill="#DAA520"/>
<path opacity="0.3" d="M285.545 331.119H284.345C284.133 331.119 283.929 331.035 283.779 330.885C283.629 330.735 283.545 330.531 283.545 330.319L276.969 231.199H281.929L286.321 330.207C286.337 330.319 286.329 330.433 286.297 330.542C286.266 330.651 286.211 330.752 286.138 330.838C286.065 330.924 285.974 330.994 285.872 331.042C285.769 331.091 285.658 331.117 285.545 331.119Z" fill="white"/>
<path d="M291.267 229.184H98.2266V231.224H291.267V229.184Z" fill="#DAA520"/>
<path d="M95.0146 197.6L93.1906 211.016C92.6146 215.48 92.0146 219.96 91.5906 224.36C91.5346 224.912 91.4946 225.448 91.4466 225.96L91.3826 226.76C91.3959 226.627 91.3959 226.493 91.3826 226.36C91.3674 226.232 91.3379 226.106 91.2946 225.984C91.262 225.888 91.2219 225.794 91.1746 225.704C91.1427 225.639 91.1053 225.578 91.0626 225.52C90.9186 225.336 90.9026 225.36 90.9426 225.4C91.0243 225.487 91.1156 225.565 91.2146 225.632C91.5513 225.862 91.9042 226.068 92.2706 226.248C94.1746 227.119 96.1399 227.849 98.1506 228.432C102.343 229.704 106.751 230.832 111.103 231.88L110.607 235.696C105.954 235.556 101.318 235.077 96.7346 234.264C94.3063 233.856 91.9204 233.226 89.6066 232.384C88.9268 232.122 88.2665 231.812 87.6306 231.456C87.2381 231.232 86.8636 230.978 86.5106 230.696C86.0212 230.308 85.5925 229.85 85.2386 229.336C84.9839 228.956 84.7795 228.544 84.6306 228.112C84.5488 227.85 84.4847 227.583 84.4386 227.312C84.4093 227.046 84.3932 226.779 84.3906 226.512V225.624C84.3906 225.032 84.3906 224.44 84.4386 223.856C84.6306 219.184 85.0546 214.624 85.5506 210.064C86.0466 205.504 86.6226 200.984 87.3346 196.464L95.0146 197.6Z" fill="#7F3E3B"/>
<path d="M121.13 236L118.194 238.68C117.858 238.985 117.439 239.183 116.99 239.249C116.541 239.314 116.082 239.244 115.673 239.048L112.433 237.488C112.433 237.488 107.634 237.288 106.938 234.352L108.185 232.072L115.633 231.272C116.398 231.19 117.168 231.361 117.826 231.76L120.897 233.64C121.091 233.762 121.253 233.927 121.373 234.122C121.493 234.316 121.567 234.536 121.589 234.763C121.612 234.991 121.582 235.221 121.502 235.435C121.423 235.649 121.295 235.842 121.13 236Z" fill="#7F3E3B"/>
<path d="M103.56 170.048C104.36 174.656 104.968 183.064 101.672 186.048C101.672 186.048 109.672 190.256 114.976 197.6C120.576 193.136 115.896 186.472 115.896 186.472C110.824 185.104 111.096 181.32 112.064 177.792L103.56 170.048Z" fill="#7F3E3B"/>
<path d="M118.596 189.272C118.596 189.272 118.172 185.368 116.044 183.44C114.26 181.84 104.844 182.72 101.908 183.048C101.636 183.08 101.376 183.181 101.152 183.34C100.928 183.5 100.748 183.713 100.628 183.96L98.4844 188.44L118.596 189.272Z" fill="#152B1D"/>
<path opacity="0.8" d="M118.596 189.272C118.596 189.272 118.172 185.368 116.044 183.44C114.26 181.84 104.844 182.72 101.908 183.048C101.636 183.08 101.376 183.181 101.152 183.34C100.928 183.5 100.748 183.713 100.628 183.96L98.4844 188.44L118.596 189.272Z" fill="white"/>
<path d="M92.5907 187.2C86.7987 189.088 85.5507 196.856 86.0787 202.896L97.7667 210.096C97.7667 210.096 100.607 201.296 100.583 196.56C100.559 191.552 96.5267 185.936 92.5907 187.2Z" fill="#152B1D"/>
<path d="M94.8519 208.344C94.7046 208.347 94.5581 208.321 94.4208 208.268C94.2835 208.214 94.1582 208.134 94.0519 208.032C94.0042 207.98 93.9614 207.924 93.9239 207.864C93.8799 207.805 93.8448 207.741 93.8199 207.672C93.7938 207.607 93.7724 207.54 93.7559 207.472C93.748 207.403 93.748 207.333 93.7559 207.264C93.7524 207.116 93.779 206.969 93.834 206.831C93.889 206.694 93.9713 206.569 94.0759 206.464C94.2837 206.268 94.5584 206.159 94.8439 206.159C95.1294 206.159 95.4041 206.268 95.6119 206.464C95.7165 206.569 95.7988 206.694 95.8538 206.831C95.9088 206.969 95.9354 207.116 95.9319 207.264C95.9398 207.333 95.9398 207.403 95.9319 207.472C95.9194 207.541 95.8979 207.608 95.8679 207.672C95.8457 207.74 95.8133 207.805 95.7719 207.864L95.6359 208.032C95.5326 208.134 95.41 208.213 95.2754 208.267C95.1407 208.321 94.9968 208.347 94.8519 208.344Z" fill="white"/>
<path d="M92.6032 207.608C92.4043 207.531 92.2324 207.397 92.1086 207.224C91.9849 207.05 91.9148 206.844 91.9072 206.632C91.7504 206.774 91.5551 206.866 91.3458 206.898C91.1365 206.929 90.9227 206.898 90.7312 206.808C90.54 206.718 90.3786 206.576 90.2665 206.397C90.1544 206.218 90.0963 206.011 90.0992 205.8C89.9346 205.933 89.734 206.014 89.523 206.032C89.3121 206.051 89.1005 206.006 88.9152 205.904C88.7294 205.804 88.5767 205.653 88.4758 205.468C88.3749 205.284 88.3302 205.073 88.3472 204.863C88.1739 204.985 87.9689 205.054 87.7571 205.061C87.5454 205.068 87.3362 205.014 87.1552 204.904C86.9099 204.754 86.7336 204.514 86.6646 204.235C86.5957 203.957 86.6397 203.662 86.7872 203.416C86.938 203.17 87.1796 202.993 87.4596 202.924C87.7396 202.855 88.0355 202.9 88.2832 203.048C88.453 203.155 88.5908 203.306 88.6823 203.484C88.7738 203.663 88.8155 203.863 88.8032 204.064C88.9667 203.946 89.1599 203.877 89.3608 203.864C89.5617 203.852 89.7621 203.896 89.9392 203.992C90.1162 204.087 90.2636 204.229 90.3652 204.403C90.4668 204.576 90.5187 204.774 90.5152 204.976C90.672 204.85 90.8606 204.771 91.0598 204.747C91.2591 204.723 91.4611 204.755 91.6432 204.839C91.8253 204.923 91.9806 205.056 92.0922 205.222C92.2037 205.389 92.267 205.583 92.2752 205.784C92.4261 205.652 92.6101 205.563 92.8074 205.528C93.0047 205.493 93.2079 205.512 93.3952 205.584C93.6619 205.69 93.8755 205.898 93.9894 206.162C94.1033 206.426 94.1083 206.724 94.0032 206.991C93.9241 207.194 93.7855 207.369 93.6057 207.492C93.4258 207.614 93.213 207.68 92.9952 207.68C92.8613 207.678 92.7288 207.654 92.6032 207.608Z" fill="white"/>
<path d="M86.0752 204C86.0034 204.008 85.931 204.008 85.8592 204C85.79 203.988 85.7228 203.966 85.6592 203.936C85.5908 203.914 85.5261 203.882 85.4672 203.84L85.3072 203.704C85.2554 203.657 85.2097 203.603 85.1712 203.544C85.1712 203.48 85.0992 203.416 85.0672 203.352C85.0423 203.287 85.0209 203.22 85.0032 203.152C84.9992 203.08 84.9992 203.008 85.0032 202.936C84.9989 202.867 84.9989 202.798 85.0032 202.728C85.0209 202.658 85.0422 202.588 85.0672 202.52C85.0936 202.455 85.1286 202.393 85.1712 202.336C85.2116 202.276 85.2571 202.22 85.3072 202.168L85.4672 202.032C85.5278 201.994 85.5922 201.962 85.6592 201.936L85.8592 201.872C86.0337 201.841 86.2132 201.851 86.3829 201.903C86.5525 201.954 86.7076 202.045 86.8352 202.168C86.8853 202.22 86.9308 202.276 86.9712 202.336C87.0106 202.395 87.0453 202.456 87.0752 202.52C87.1013 202.587 87.1201 202.657 87.1312 202.728C87.1395 202.797 87.1395 202.867 87.1312 202.936C87.1391 203.008 87.1391 203.08 87.1312 203.152C87.12 203.221 87.1012 203.288 87.0752 203.352C87.0752 203.416 87.0112 203.48 86.9712 203.544C86.9327 203.603 86.887 203.657 86.8352 203.704C86.6294 203.897 86.3572 204.003 86.0752 204Z" fill="white"/>
<path d="M129.417 198.504C128.929 205.16 127.449 216.36 123.817 235.224L92.5051 234.296C93.3051 222.736 92.0811 214.12 89.2491 193.888C89.1285 193.013 89.1853 192.122 89.4162 191.269C89.6471 190.416 90.0473 189.619 90.593 188.924C91.1387 188.229 91.8187 187.651 92.5925 187.224C93.3664 186.797 94.2181 186.531 95.0971 186.44C97.1051 186.232 99.3931 186.064 101.689 186.016C106.435 185.82 111.188 185.961 115.913 186.44C117.433 186.624 119.009 186.872 120.513 187.128C123.147 187.577 125.518 188.991 127.165 191.095C128.811 193.198 129.614 195.84 129.417 198.504Z" fill="#152B1D"/>
<path d="M119.762 161.6C119.834 162.216 120.226 162.68 120.626 162.624C121.026 162.568 121.298 162.04 121.226 161.424C121.154 160.808 120.762 160.344 120.362 160.392C119.962 160.44 119.69 160.96 119.762 161.6Z" fill="#263238"/>
<path d="M120.188 160.432L121.62 159.824C121.62 159.824 120.995 161.072 120.188 160.432Z" fill="#263238"/>
<path d="M120 162.536C120.718 163.879 121.617 165.117 122.672 166.216C122.385 166.48 122.043 166.678 121.672 166.795C121.3 166.913 120.907 166.947 120.52 166.896L120 162.536Z" fill="#630F0F"/>
<path d="M119.837 156.168C119.869 156.111 119.885 156.048 119.885 155.984C119.885 155.919 119.869 155.856 119.837 155.8C119.794 155.713 119.719 155.647 119.628 155.616C119.536 155.584 119.436 155.59 119.349 155.632C118.819 155.867 118.353 156.227 117.991 156.681C117.628 157.135 117.381 157.67 117.269 158.24C117.262 158.287 117.265 158.335 117.277 158.381C117.289 158.428 117.311 158.471 117.34 158.509C117.369 158.547 117.405 158.579 117.446 158.603C117.488 158.626 117.534 158.642 117.581 158.648C117.629 158.654 117.677 158.652 117.723 158.64C117.769 158.627 117.813 158.606 117.851 158.577C117.889 158.548 117.92 158.512 117.944 158.47C117.968 158.429 117.983 158.383 117.989 158.336C118.087 157.887 118.289 157.467 118.579 157.111C118.87 156.755 119.241 156.473 119.661 156.288C119.732 156.27 119.795 156.228 119.837 156.168Z" fill="#263238"/>
<path d="M98.4491 161.44C99.8251 168.968 100.249 172.184 104.545 175.624C111.009 180.792 119.961 177.456 120.865 169.664C121.665 162.648 119.265 151.512 111.505 149.384C109.79 148.907 107.981 148.876 106.251 149.294C104.521 149.713 102.926 150.566 101.618 151.774C100.31 152.982 99.3322 154.504 98.7777 156.195C98.2231 157.887 98.11 159.692 98.4491 161.44Z" fill="#7F3E3B"/>
<path d="M115.042 163.552C116.306 167.688 119.33 177.688 112.642 179.92C107.418 181.664 91.0421 183.056 89.1621 173.464C87.2181 163.552 96.0581 156.488 96.0581 156.488C96.0581 156.488 89.0501 150.744 93.5381 144.488C99.3221 136.424 113.178 140.984 117.282 146.68C121.29 152.224 115.042 163.552 115.042 163.552Z" fill="#263238"/>
<path d="M102.405 181.296C99.3873 181.293 96.3991 180.706 93.6046 179.568C89.8926 177.968 87.7246 175.496 87.3326 172.416C86.0206 161.96 95.7486 156.216 95.8526 156.16L96.2366 156.824C96.1406 156.88 86.8526 162.376 88.1006 172.32C88.5486 175.848 91.5086 177.824 93.9166 178.856C98.6686 180.904 104.805 180.888 106.293 179.8L106.749 180.424C105.997 180.992 104.365 181.296 102.405 181.296Z" fill="#263238"/>
<path d="M93.0517 154.991C92.9637 156.327 91.8597 158.191 96.4917 158.855C101.124 159.519 107.572 159.479 108.9 158.367C110.228 157.255 111.524 154.583 108.756 154.823C105.988 155.063 93.2037 152.703 93.0517 154.991Z" fill="#152B1D"/>
<path d="M112.505 164.728C113.261 166.126 114.537 167.169 116.057 167.632C118.073 168.224 119.113 166.424 118.577 164.504C118.089 162.776 116.449 160.384 114.417 160.632C112.385 160.88 111.601 163.008 112.505 164.728Z" fill="#7F3E3B"/>
<path d="M161.319 322.848L168.743 322.704L165.151 304.176L157.727 304.312L161.319 322.848Z" fill="#7F3E3B"/>
<path d="M166.882 314.776C168.842 322.176 176.066 329.976 176.066 329.976L165.762 327.352L161.258 320.952L162.058 319.256L166.882 314.776Z" fill="#7F3E3B"/>
<path d="M159.567 318.216C159.546 319.082 159.597 319.949 159.719 320.808C160.159 323.864 161.503 332.008 161.503 332.008H162.207C161.889 329.528 161.699 327.034 161.639 324.536C161.735 322.528 163.031 326.08 164.599 328.096C166.167 330.112 168.991 331.944 173.559 332.096C178.903 332.264 181.039 332.04 179.327 330.704C177.615 329.368 173.967 328.504 173.967 328.504C171.025 327.243 168.52 325.142 166.767 322.464C165.038 320.057 162.766 318.092 160.135 316.728C159.687 316.752 159.599 317.6 159.567 318.216Z" fill="#263238"/>
<path d="M187.61 297.672L197.082 297.968L186.482 282.208L179.922 287.816L187.61 297.672Z" fill="#7F3E3B"/>
<path d="M189.859 290.984C196.747 294.184 207.771 293.56 207.771 293.56L198.811 300.76L191.123 300.184L190.323 298.48L189.859 290.984Z" fill="#7F3E3B"/>
<path d="M188.404 299.152C189.024 299.755 189.693 300.307 190.404 300.8C192.916 302.552 199.708 307.04 199.708 307.04L200.14 306.488C198.117 305.035 196.17 303.478 194.308 301.824C192.884 300.368 196.3 301.784 198.748 301.928C201.196 302.072 204.284 301.128 207.204 297.608C210.636 293.52 211.78 291.688 209.748 292.12C207.716 292.552 204.82 294.824 204.82 294.824C202.1 296.281 198.984 296.825 195.932 296.376C193.096 296.088 190.235 296.531 187.62 297.664C187.404 298.064 187.94 298.688 188.404 299.152Z" fill="#263238"/>
<path d="M112.883 234.68C112.883 234.68 163.571 227.2 168.803 240.176C177.939 262.784 190.827 288.688 190.827 288.688L184.603 293.84C184.603 293.84 162.499 273.376 154.643 250.64C145.251 253.68 115.371 263.44 104.427 263.44C92.7389 263.44 87.9629 253.48 92.1869 236.928C92.3719 236.219 92.7858 235.591 93.3644 235.141C93.943 234.691 94.654 234.445 95.3869 234.44C102.803 234.512 112.883 234.68 112.883 234.68Z" fill="#263238"/>
<path d="M117.736 241.28C117.736 241.28 159.336 240.032 159.696 254.768C160.272 279.144 167.144 314.072 167.144 314.072L159.552 314.776C159.552 314.776 147.144 286.992 143.864 263.2C129.048 264.16 115.384 263.496 104.44 263.496C92.1764 263.496 91.1604 250.032 103.096 234.312C110.4 234.296 117.736 241.28 117.736 241.28Z" fill="#263238"/>
<path d="M92.0744 232.44L91.2024 235.2C91.0824 235.416 91.3304 235.64 91.6984 235.656L123.922 236.608C124.202 236.608 124.442 236.488 124.466 236.312L124.834 233.52C124.834 233.32 124.618 233.152 124.306 233.144L92.6024 232.2C92.5009 232.189 92.3984 232.205 92.3055 232.247C92.2125 232.289 92.1327 232.356 92.0744 232.44Z" fill="white"/>
<path d="M96.2309 236.112H95.3829C95.2149 236.112 95.0869 236.016 95.1029 235.912L95.6069 232.28C95.6069 232.176 95.7749 232.096 95.9429 232.096H96.7909C96.9589 232.096 97.0869 232.192 97.0709 232.296L96.5669 235.92C96.5509 236.04 96.3989 236.12 96.2309 236.112Z" fill="#263238"/>
<path d="M121.512 236.871H120.664C120.496 236.871 120.368 236.775 120.384 236.671L120.896 233.039C120.896 232.935 121.056 232.855 121.224 232.855H122.072C122.248 232.855 122.368 232.951 122.36 233.055L121.848 236.687C121.832 236.799 121.688 236.871 121.512 236.871Z" fill="#263238"/>
<path d="M108.872 236.488H108.024C107.848 236.488 107.728 236.392 107.744 236.288L108.248 232.656C108.248 232.552 108.416 232.472 108.584 232.472H109.432C109.6 232.472 109.728 232.568 109.712 232.672L109.208 236.304C109.192 236.416 109.04 236.496 108.872 236.488Z" fill="#263238"/>
<path d="M147.467 201.288H167.699C167.85 201.289 167.998 201.324 168.133 201.391C168.267 201.459 168.384 201.556 168.475 201.676C168.565 201.796 168.627 201.935 168.655 202.083C168.683 202.231 168.676 202.383 168.635 202.528L161.067 228.488C161.01 228.689 160.888 228.866 160.72 228.992C160.553 229.118 160.349 229.185 160.139 229.184H139.899C139.749 229.186 139.6 229.152 139.464 229.085C139.329 229.018 139.211 228.92 139.121 228.799C139.031 228.679 138.97 228.538 138.944 228.39C138.918 228.241 138.927 228.088 138.971 227.944L146.531 201.984C146.591 201.782 146.714 201.605 146.883 201.479C147.052 201.354 147.257 201.287 147.467 201.288Z" fill="#152B1D"/>
<path d="M147.838 202.24L167.51 202.704L159.742 227.192L140.07 226.72L147.838 202.24Z" fill="#E0E0E0"/>
<path d="M147.218 202L166.89 202.08L159.602 226.712L139.93 226.632L147.218 202Z" fill="white"/>
<path d="M129.478 202.512C129.478 203.312 129.598 204.256 129.662 205.144C129.726 206.032 129.846 206.96 129.966 207.864C130.19 209.672 130.489 211.453 130.862 213.208C131.221 214.918 131.697 216.602 132.286 218.248C132.582 219.048 132.91 219.848 133.262 220.552C133.438 220.92 133.63 221.264 133.822 221.616L134.118 222.104C134.486 222.438 134.919 222.691 135.39 222.848C136.139 223.138 136.91 223.371 137.694 223.544C139.461 223.917 141.248 224.184 143.046 224.344C146.742 224.704 150.606 224.88 154.382 224.96L154.766 228.792C150.835 229.572 146.845 230.024 142.838 230.144C140.758 230.208 138.675 230.122 136.606 229.888C135.473 229.749 134.352 229.522 133.254 229.208C131.851 228.836 130.545 228.162 129.43 227.232C129.057 226.909 128.719 226.547 128.422 226.152L127.91 225.432C127.582 224.952 127.262 224.472 126.99 223.984C126.42 223.032 125.915 222.043 125.478 221.024C124.624 219.068 123.934 217.045 123.414 214.976C122.896 212.964 122.498 210.923 122.222 208.864C122.086 207.848 121.982 206.824 121.894 205.792C121.806 204.76 121.75 203.776 121.734 202.592L129.478 202.512Z" fill="#7F3E3B"/>
<path d="M126.846 190.712C131.886 195.456 130.67 207.816 130.67 207.816L121.022 209.504C121.022 209.504 115.062 200.64 117.158 196.928C119.334 193.056 124.126 188.144 126.846 190.712Z" fill="#152B1D"/>
<path d="M130.669 208.904C130.521 208.906 130.374 208.879 130.237 208.824C130.099 208.77 129.974 208.688 129.869 208.584C129.817 208.533 129.772 208.477 129.733 208.416C129.696 208.357 129.664 208.296 129.637 208.232C129.62 208.155 129.61 208.078 129.605 208C129.6 207.931 129.6 207.861 129.605 207.792C129.6 207.644 129.625 207.497 129.679 207.36C129.732 207.222 129.813 207.097 129.917 206.992C129.969 206.942 130.025 206.897 130.085 206.856C130.142 206.816 130.204 206.784 130.269 206.76C130.336 206.731 130.405 206.71 130.477 206.696C130.634 206.665 130.796 206.67 130.951 206.709C131.107 206.748 131.251 206.821 131.375 206.923C131.499 207.025 131.599 207.152 131.668 207.297C131.736 207.442 131.772 207.6 131.773 207.76C131.781 207.829 131.781 207.899 131.773 207.968C131.76 208.04 131.738 208.109 131.709 208.176C131.685 208.241 131.653 208.303 131.613 208.36C131.574 208.421 131.528 208.477 131.477 208.528C131.376 208.644 131.252 208.737 131.113 208.802C130.974 208.866 130.822 208.901 130.669 208.904Z" fill="white"/>
<path d="M121.902 209.48C121.878 209.192 121.969 208.907 122.155 208.686C122.341 208.466 122.607 208.328 122.894 208.304C123.095 208.285 123.296 208.323 123.476 208.414C123.656 208.504 123.806 208.644 123.91 208.816C123.975 208.625 124.09 208.456 124.244 208.326C124.398 208.197 124.584 208.111 124.782 208.08C124.982 208.053 125.185 208.081 125.37 208.162C125.555 208.242 125.714 208.371 125.83 208.536C125.876 208.341 125.975 208.163 126.116 208.022C126.258 207.88 126.436 207.781 126.63 207.736C126.828 207.695 127.033 207.709 127.222 207.779C127.412 207.848 127.578 207.969 127.702 208.128C127.749 207.934 127.849 207.757 127.99 207.616C128.131 207.475 128.308 207.375 128.502 207.328C128.642 207.291 128.788 207.282 128.931 207.303C129.074 207.323 129.212 207.372 129.336 207.447C129.459 207.521 129.567 207.62 129.652 207.737C129.737 207.854 129.798 207.987 129.83 208.128C129.866 208.268 129.874 208.413 129.853 208.556C129.832 208.699 129.783 208.836 129.708 208.959C129.634 209.083 129.536 209.19 129.419 209.276C129.303 209.361 129.171 209.422 129.03 209.456C128.826 209.508 128.611 209.501 128.411 209.434C128.211 209.367 128.034 209.244 127.902 209.08C127.857 209.287 127.753 209.476 127.603 209.625C127.452 209.774 127.262 209.877 127.054 209.92C126.847 209.959 126.632 209.937 126.437 209.858C126.241 209.778 126.072 209.644 125.95 209.472C125.897 209.678 125.785 209.864 125.627 210.006C125.469 210.148 125.273 210.241 125.062 210.272C124.853 210.302 124.639 210.27 124.447 210.181C124.255 210.091 124.094 209.948 123.982 209.768C123.914 209.968 123.789 210.143 123.623 210.274C123.457 210.405 123.257 210.484 123.046 210.504H122.958C122.687 210.495 122.428 210.385 122.233 210.195C122.038 210.006 121.92 209.751 121.902 209.48Z" fill="white"/>
<path d="M121.016 210.592C120.944 210.6 120.871 210.6 120.8 210.592L120.6 210.528C120.533 210.501 120.469 210.469 120.408 210.432L120.248 210.296C120.194 210.247 120.148 210.191 120.112 210.128C120.072 210.069 120.037 210.008 120.008 209.944C119.981 209.877 119.963 209.807 119.952 209.736C119.943 209.667 119.943 209.597 119.952 209.528C119.944 209.456 119.944 209.384 119.952 209.312C119.963 209.244 119.982 209.176 120.008 209.112C120.008 209.048 120.072 208.984 120.112 208.92C120.15 208.861 120.196 208.808 120.248 208.76L120.408 208.624C120.467 208.584 120.532 208.552 120.6 208.528C120.663 208.498 120.73 208.476 120.8 208.464C120.974 208.428 121.155 208.437 121.325 208.489C121.495 208.54 121.65 208.634 121.776 208.76C121.827 208.808 121.873 208.861 121.912 208.92C121.952 208.984 121.984 209.048 122.016 209.112C122.04 209.177 122.062 209.244 122.08 209.312C122.084 209.384 122.084 209.456 122.08 209.528C122.084 209.597 122.084 209.667 122.08 209.736C122.062 209.806 122.041 209.876 122.016 209.944C121.986 210.008 121.951 210.069 121.912 210.128C121.873 210.189 121.827 210.246 121.776 210.296C121.57 210.489 121.298 210.595 121.016 210.592Z" fill="white"/>
<path d="M163.364 220.976L160.02 220.752C159.188 220.694 158.36 220.916 157.668 221.384L151.532 225.504L151.484 228.104C153.452 230.392 157.804 228.344 157.804 228.344L161.844 228.208C162.166 228.2 162.478 228.095 162.74 227.907C163.001 227.718 163.199 227.455 163.308 227.152L164.772 223.152C164.864 222.917 164.898 222.662 164.872 222.411C164.846 222.159 164.761 221.917 164.624 221.705C164.486 221.493 164.301 221.316 164.082 221.189C163.863 221.063 163.617 220.99 163.364 220.976Z" fill="#7F3E3B"/>
<path d="M94.0789 334.728H94.9829C95.1704 334.71 95.3454 334.626 95.4771 334.491C95.6088 334.357 95.6888 334.18 95.7029 333.992L101.303 295.24H97.0709L93.3829 333.736C93.3611 333.847 93.362 333.962 93.3855 334.072C93.4089 334.183 93.4545 334.288 93.5196 334.381C93.5846 334.473 93.6676 334.552 93.7637 334.611C93.8599 334.671 93.9671 334.711 94.0789 334.728Z" fill="#152B1D"/>
<path opacity="0.3" d="M94.0789 334.728H94.9829C95.1704 334.71 95.3454 334.626 95.4771 334.491C95.6088 334.357 95.6888 334.18 95.7029 333.992L101.303 295.24H97.0709L93.3829 333.736C93.3611 333.847 93.362 333.962 93.3855 334.072C93.4089 334.183 93.4545 334.288 93.5196 334.381C93.5846 334.473 93.6676 334.552 93.7637 334.611C93.8599 334.671 93.9671 334.711 94.0789 334.728Z" fill="black"/>
<path d="M82.4774 334.728H83.3814C83.5688 334.71 83.7438 334.626 83.8755 334.491C84.0072 334.357 84.0872 334.18 84.1014 333.992L89.7014 295.24H85.4694L81.7814 333.736C81.7596 333.847 81.7604 333.962 81.7839 334.072C81.8074 334.183 81.853 334.288 81.918 334.381C81.983 334.473 82.0661 334.552 82.1622 334.611C82.2583 334.671 82.3655 334.711 82.4774 334.728Z" fill="#152B1D"/>
<path opacity="0.3" d="M82.4774 334.728H83.3814C83.5688 334.71 83.7438 334.626 83.8755 334.491C84.0072 334.357 84.0872 334.18 84.1014 333.992L89.7014 295.24H85.4694L81.7814 333.736C81.7596 333.847 81.7604 333.962 81.7839 334.072C81.8074 334.183 81.853 334.288 81.918 334.381C81.983 334.473 82.0661 334.552 82.1622 334.611C82.2583 334.671 82.3655 334.711 82.4774 334.728Z" fill="black"/>
<path d="M147.115 334.728H146.203C146.017 334.708 145.844 334.624 145.713 334.489C145.583 334.355 145.505 334.179 145.491 333.992L139.891 295.24H144.115L147.803 333.736C147.824 333.847 147.824 333.96 147.801 334.071C147.778 334.181 147.733 334.286 147.669 334.378C147.605 334.471 147.523 334.549 147.427 334.609C147.332 334.67 147.226 334.71 147.115 334.728Z" fill="#152B1D"/>
<path opacity="0.3" d="M147.115 334.728H146.203C146.017 334.708 145.844 334.624 145.713 334.489C145.583 334.355 145.505 334.179 145.491 333.992L139.891 295.24H144.115L147.803 333.736C147.824 333.847 147.824 333.96 147.801 334.071C147.778 334.181 147.733 334.286 147.669 334.378C147.605 334.471 147.523 334.549 147.427 334.609C147.332 334.67 147.226 334.71 147.115 334.728Z" fill="black"/>
<path d="M158.716 334.728H157.804C157.618 334.708 157.445 334.624 157.315 334.489C157.185 334.355 157.106 334.179 157.092 333.992L151.492 295.24H155.716L159.404 333.736C159.426 333.847 159.425 333.96 159.403 334.071C159.38 334.181 159.335 334.286 159.27 334.378C159.206 334.471 159.124 334.549 159.029 334.609C158.934 334.67 158.827 334.71 158.716 334.728Z" fill="#152B1D"/>
<path opacity="0.3" d="M158.716 334.728H157.804C157.618 334.708 157.445 334.624 157.315 334.489C157.185 334.355 157.106 334.179 157.092 333.992L151.492 295.24H155.716L159.404 333.736C159.426 333.847 159.425 333.96 159.403 334.071C159.38 334.181 159.335 334.286 159.27 334.378C159.206 334.471 159.124 334.549 159.029 334.609C158.934 334.67 158.827 334.71 158.716 334.728Z" fill="black"/>
<path d="M173.747 249.304H145.267C140.211 231.752 122.067 217.912 103.411 217.912H94.1633C74.6753 217.912 62.0993 233.112 66.0673 251.784C66.8186 255.225 68.0379 258.546 69.6913 261.656L74.1873 288.856C74.7633 292.368 77.5713 295.216 80.4433 295.216H166.171C169.043 295.216 171.851 292.368 172.427 288.856L177.907 255.64C178.491 252.152 176.627 249.304 173.747 249.304Z" fill="#152B1D"/>
<path opacity="0.5" d="M173.747 249.304H145.267C140.211 231.752 122.067 217.912 103.411 217.912H94.1633C74.6753 217.912 62.0993 233.112 66.0673 251.784C66.8186 255.225 68.0379 258.546 69.6913 261.656L74.1873 288.856C74.7633 292.368 77.5713 295.216 80.4433 295.216H166.171C169.043 295.216 171.851 292.368 172.427 288.856L177.907 255.64C178.491 252.152 176.627 249.304 173.747 249.304Z" fill="white"/>
<path d="M170.036 121.72H163.5V122.52H170.036V121.72Z" fill="#DAA520"/>
<path d="M139.456 131.144H138.656V127.2C138.658 125.744 139.238 124.348 140.269 123.319C141.299 122.29 142.696 121.712 144.152 121.712H158.736V122.512H144.152C142.908 122.512 141.715 123.006 140.834 123.885C139.954 124.763 139.458 125.956 139.456 127.2V131.144Z" fill="#DAA520"/>
<path d="M144.149 124.521H217.085C217.798 124.521 218.482 124.804 218.986 125.308C219.49 125.812 219.773 126.496 219.773 127.209V155.809C219.773 156.524 219.489 157.209 218.983 157.715C218.478 158.22 217.792 158.505 217.077 158.505H144.149C143.434 158.505 142.748 158.22 142.243 157.715C141.737 157.209 141.453 156.524 141.453 155.809V127.201C141.454 126.848 141.525 126.498 141.661 126.172C141.797 125.847 141.996 125.551 142.246 125.302C142.496 125.053 142.793 124.856 143.12 124.722C143.446 124.588 143.796 124.519 144.149 124.521Z" fill="#DAA520"/>
<path d="M213.637 143.32H147.597C147.118 143.32 146.658 143.13 146.319 142.791C145.98 142.451 145.789 141.992 145.789 141.512C145.789 141.033 145.98 140.573 146.319 140.234C146.658 139.895 147.118 139.704 147.597 139.704H213.637C214.117 139.704 214.576 139.895 214.916 140.234C215.255 140.573 215.445 141.033 215.445 141.512C215.445 141.992 215.255 142.451 214.916 142.791C214.576 143.13 214.117 143.32 213.637 143.32Z" fill="white"/>
<path d="M199.501 150.832H147.597C147.118 150.832 146.658 150.642 146.319 150.303C145.98 149.964 145.789 149.504 145.789 149.024C145.787 148.785 145.832 148.549 145.922 148.327C146.012 148.106 146.145 147.905 146.313 147.735C146.481 147.566 146.681 147.431 146.902 147.339C147.122 147.247 147.358 147.2 147.597 147.2H199.501C199.981 147.2 200.441 147.391 200.78 147.73C201.119 148.069 201.309 148.529 201.309 149.008C201.311 149.247 201.266 149.484 201.176 149.705C201.086 149.926 200.953 150.127 200.785 150.297C200.617 150.467 200.417 150.601 200.197 150.693C199.976 150.785 199.74 150.832 199.501 150.832Z" fill="white"/>
<path d="M169.869 135.808H147.597C147.118 135.808 146.658 135.618 146.319 135.279C145.98 134.94 145.789 134.48 145.789 134C145.789 133.521 145.98 133.061 146.319 132.722C146.658 132.383 147.118 132.192 147.597 132.192H169.869C170.349 132.192 170.808 132.383 171.148 132.722C171.487 133.061 171.677 133.521 171.677 134C171.677 134.48 171.487 134.94 171.148 135.279C170.808 135.618 170.349 135.808 169.869 135.808Z" fill="white"/>
<path d="M199.393 135.808H177.12C176.641 135.808 176.181 135.618 175.842 135.279C175.503 134.94 175.312 134.48 175.312 134C175.312 133.521 175.503 133.061 175.842 132.722C176.181 132.383 176.641 132.192 177.12 132.192H199.393C199.872 132.192 200.332 132.383 200.671 132.722C201.01 133.061 201.201 133.521 201.201 134C201.201 134.48 201.01 134.94 200.671 135.279C200.332 135.618 199.872 135.808 199.393 135.808Z" fill="white"/>
<path d="M145.789 156.336V165C145.789 165.372 145.892 165.736 146.088 166.052C146.283 166.368 146.562 166.623 146.895 166.789C147.227 166.955 147.599 167.025 147.969 166.992C148.339 166.959 148.692 166.823 148.989 166.6L162.269 156.328L145.789 156.336Z" fill="#DAA520"/>
<path d="M258.249 81.6006H185.313C184.959 81.6006 184.609 81.6703 184.281 81.8058C183.954 81.9413 183.657 82.1399 183.407 82.3902C183.156 82.6406 182.958 82.9378 182.822 83.2649C182.687 83.592 182.617 83.9425 182.617 84.2966V112.897C182.617 113.612 182.901 114.297 183.407 114.803C183.912 115.309 184.598 115.593 185.313 115.593H242.913L253.361 123.673C253.658 123.895 254.012 124.031 254.382 124.065C254.752 124.098 255.123 124.028 255.456 123.861C255.788 123.695 256.067 123.44 256.262 123.124C256.458 122.808 256.561 122.444 256.561 122.073V115.577H258.201C258.916 115.577 259.602 115.293 260.108 114.787C260.613 114.281 260.897 113.596 260.897 112.881V84.2966C260.897 83.5898 260.62 82.9112 260.125 82.407C259.629 81.9028 258.956 81.6132 258.249 81.6006Z" fill="white"/>
<path d="M254.603 124.496C254.07 124.493 253.554 124.316 253.131 123.992L242.795 115.992H185.315C184.494 115.99 183.708 115.663 183.128 115.083C182.548 114.503 182.221 113.717 182.219 112.896V84.2962C182.221 83.4757 182.548 82.6895 183.128 82.1093C183.708 81.5292 184.494 81.2023 185.315 81.2002H258.251C259.071 81.2023 259.857 81.5292 260.438 82.1093C261.018 82.6895 261.345 83.4757 261.347 84.2962V112.896C261.345 113.717 261.018 114.503 260.438 115.083C259.857 115.663 259.071 115.99 258.251 115.992H257.011V122.088C257.011 122.725 256.758 123.335 256.308 123.785C255.858 124.235 255.247 124.488 254.611 124.488L254.603 124.496ZM185.315 82.0002C184.706 82.0023 184.124 82.2449 183.694 82.675C183.263 83.1051 183.021 83.6879 183.019 84.2962V112.896C183.021 113.504 183.263 114.087 183.694 114.517C184.124 114.948 184.706 115.19 185.315 115.192H243.075L253.603 123.352C253.839 123.539 254.123 123.655 254.423 123.688C254.723 123.72 255.025 123.667 255.296 123.535C255.567 123.403 255.795 123.197 255.954 122.941C256.113 122.685 256.196 122.389 256.195 122.088V115.2H258.235C258.843 115.198 259.426 114.956 259.856 114.525C260.286 114.095 260.529 113.512 260.531 112.904V84.2962C260.529 83.6879 260.286 83.1051 259.856 82.675C259.426 82.2449 258.843 82.0023 258.235 82.0002H185.315Z" fill="#DAA520"/>
<path d="M220.222 100.408H254.798C255.036 100.408 255.271 100.361 255.49 100.27C255.709 100.179 255.909 100.046 256.077 99.8783C256.244 99.7104 256.378 99.5111 256.468 99.2917C256.559 99.0723 256.606 98.8372 256.606 98.5998C256.602 98.1223 256.41 97.6657 256.071 97.3288C255.733 96.992 255.276 96.8019 254.798 96.7998H220.222C219.742 96.8019 219.282 96.9942 218.943 97.3345C218.604 97.6749 218.414 98.1356 218.414 98.6158C218.418 99.0925 218.611 99.5483 218.949 99.8839C219.288 100.22 219.745 100.408 220.222 100.408Z" fill="#DAA520"/>
<path d="M196.081 100.408H213.201C213.439 100.408 213.674 100.361 213.893 100.27C214.113 100.179 214.312 100.046 214.48 99.8783C214.648 99.7104 214.781 99.5111 214.872 99.2917C214.963 99.0723 215.009 98.8372 215.009 98.5998C215.005 98.1223 214.813 97.6657 214.475 97.3288C214.136 96.992 213.679 96.8019 213.201 96.7998H196.081C195.601 96.8019 195.141 96.9942 194.803 97.3345C194.464 97.6749 194.273 98.1356 194.273 98.6158C194.278 99.0925 194.47 99.5483 194.809 99.8839C195.147 100.22 195.605 100.408 196.081 100.408Z" fill="#DAA520"/>
<path d="M202.889 107.92H254.801C255.8 107.92 256.609 107.11 256.609 106.112C256.609 105.113 255.8 104.304 254.801 104.304H202.889C201.891 104.304 201.081 105.113 201.081 106.112C201.081 107.11 201.891 107.92 202.889 107.92Z" fill="#DAA520"/>
<path d="M188.8 92.8965H254.8C255.28 92.8965 255.74 92.706 256.079 92.3669C256.418 92.0278 256.608 91.568 256.608 91.0885C256.608 90.6082 256.418 90.1475 256.079 89.8072C255.74 89.4668 255.28 89.2746 254.8 89.2725H188.8C188.32 89.2746 187.86 89.4668 187.521 89.8072C187.182 90.1475 186.992 90.6082 186.992 91.0885C186.992 91.568 187.183 92.0278 187.522 92.3669C187.861 92.706 188.321 92.8965 188.8 92.8965Z" fill="#DAA520"/>
</svg>
