<svg width="200" height="72" viewBox="0 0 200 72" fill="none" xmlns="http://www.w3.org/2000/svg">
<rect x="24.2422" y="5.1814" width="5.05051" height="33.6792" fill="url(#paint0_linear_290_748)"/>
<rect x="8.08008" y="5.1814" width="16.1616" height="6.47676" fill="#D9D9D9"/>
<rect x="8.08008" y="5.1814" width="16.1616" height="6.47676" fill="url(#paint1_linear_290_748)"/>
<rect x="8.08008" y="32.3838" width="16.1616" height="6.47676" fill="url(#paint2_linear_290_748)"/>
<path d="M39.5922 32.333L39.2592 28.448L41.8862 28.3C42.6262 28.2507 43.2305 28.0903 43.6992 27.819C44.1925 27.523 44.5625 27.116 44.8092 26.598C45.0559 26.0553 45.1792 25.414 45.1792 24.674V5.915H49.9152V24.637C49.9152 26.191 49.6439 27.5107 49.1012 28.596C48.5585 29.6813 47.7445 30.52 46.6592 31.112C45.5739 31.704 44.2295 32.0617 42.6262 32.185L39.5922 32.333ZM67.3225 32.37C65.4232 32.37 63.6965 32.0617 62.1425 31.445C60.6132 30.8037 59.2935 29.891 58.1835 28.707C57.0982 27.523 56.2595 26.1047 55.6675 24.452C55.0755 22.7993 54.7795 20.9617 54.7795 18.939C54.7795 16.8917 55.0755 15.054 55.6675 13.426C56.2595 11.7733 57.0982 10.3673 58.1835 9.208C59.2935 8.024 60.6132 7.12367 62.1425 6.507C63.6965 5.86567 65.4232 5.545 67.3225 5.545C69.2219 5.545 70.9362 5.86567 72.4655 6.507C74.0195 7.12367 75.3392 8.01167 76.4245 9.171C77.5345 10.3303 78.3855 11.7363 78.9775 13.389C79.5695 15.017 79.8655 16.8547 79.8655 18.902C79.8655 20.9493 79.5695 22.7993 78.9775 24.452C78.3855 26.1047 77.5345 27.523 76.4245 28.707C75.3392 29.891 74.0195 30.8037 72.4655 31.445C70.9362 32.0617 69.2219 32.37 67.3225 32.37ZM67.3225 28.3C68.9259 28.3 70.2825 27.93 71.3925 27.19C72.5272 26.45 73.3905 25.377 73.9825 23.971C74.5992 22.565 74.9075 20.8877 74.9075 18.939C74.9075 16.9657 74.6115 15.2883 74.0195 13.907C73.4275 12.501 72.5642 11.4403 71.4295 10.725C70.2949 9.985 68.9259 9.615 67.3225 9.615C65.7439 9.615 64.3872 9.985 63.2525 10.725C62.1179 11.4403 61.2422 12.501 60.6255 13.907C60.0335 15.2883 59.7375 16.9657 59.7375 18.939C59.7375 20.8877 60.0335 22.565 60.6255 23.971C61.2422 25.377 62.1179 26.45 63.2525 27.19C64.3872 27.93 65.7439 28.3 67.3225 28.3ZM84.7553 32V5.915H88.7143L98.5563 24.082H97.3723L107.177 5.915H111.062V32H106.77V12.945H107.584L99.2963 28.041H96.5213L88.1593 12.908H89.0473V32H84.7553ZM113.991 32L125.794 5.915H129.679L141.482 32H136.672L133.527 24.674L135.525 25.969H119.911L121.909 24.674L118.801 32H113.991ZM127.681 11.058L122.501 23.379L121.539 22.195H133.897L132.972 23.379L127.755 11.058H127.681ZM156.338 32.37C153.452 32.37 151.01 31.8273 149.012 30.742C147.038 29.6567 145.534 28.115 144.498 26.117C143.462 24.119 142.944 21.751 142.944 19.013C142.944 16.2503 143.474 13.87 144.535 11.872C145.595 9.84933 147.125 8.29533 149.123 7.21C151.121 6.1 153.513 5.545 156.301 5.545C157.534 5.545 158.706 5.66833 159.816 5.915C160.95 6.137 161.999 6.47 162.961 6.914C163.923 7.358 164.749 7.90067 165.44 8.542L163.849 12.242C162.689 11.3293 161.505 10.6757 160.297 10.281C159.088 9.88633 157.756 9.689 156.301 9.689C153.538 9.689 151.441 10.4907 150.011 12.094C148.605 13.6973 147.902 16.0037 147.902 19.013C147.902 22.047 148.629 24.3533 150.085 25.932C151.54 27.5107 153.698 28.3 156.56 28.3C157.546 28.3 158.545 28.2013 159.557 28.004C160.568 27.8067 161.555 27.5353 162.517 27.19L161.592 29.299V21.418H155.598V17.903H165.551V30.446C164.761 30.8407 163.849 31.186 162.813 31.482C161.801 31.7533 160.741 31.963 159.631 32.111C158.521 32.2837 157.423 32.37 156.338 32.37ZM168.227 32L180.03 5.915H183.915L195.718 32H190.908L187.763 24.674L189.761 25.969H174.147L176.145 24.674L173.037 32H168.227ZM181.917 11.058L176.737 23.379L175.775 22.195H188.133L187.208 23.379L181.991 11.058H181.917Z" fill="white"/>
<path d="M7.20961 51.6612C9.16961 51.6612 10.5976 52.0462 11.4936 52.8162C12.3896 53.5862 12.8376 54.6712 12.8376 56.0712C12.8376 56.6872 12.7326 57.2822 12.5226 57.8562C12.3266 58.4162 11.9976 58.9202 11.5356 59.3682C11.0736 59.8162 10.4576 60.1732 9.68761 60.4392C8.91761 60.6912 7.97261 60.8172 6.85261 60.8172H5.13061V66.6552H3.24061V51.6612H7.20961ZM7.04161 53.2782H5.13061V59.2002H6.64261C7.59461 59.2002 8.38561 59.1022 9.01561 58.9062C9.64561 58.6962 10.1146 58.3672 10.4226 57.9192C10.7306 57.4712 10.8846 56.8832 10.8846 56.1552C10.8846 55.1892 10.5766 54.4682 9.96061 53.9922C9.34461 53.5162 8.37161 53.2782 7.04161 53.2782ZM28.1696 55.2102C29.5416 55.2102 30.5566 55.5112 31.2146 56.1132C31.8726 56.7152 32.2016 57.6742 32.2016 58.9902V66.6552H30.8576L30.5006 65.0592H30.4166C30.0946 65.4652 29.7586 65.8082 29.4086 66.0882C29.0726 66.3542 28.6806 66.5502 28.2326 66.6762C27.7986 66.8022 27.2666 66.8652 26.6366 66.8652C25.9646 66.8652 25.3556 66.7462 24.8096 66.5082C24.2776 66.2702 23.8576 65.9062 23.5496 65.4162C23.2416 64.9122 23.0876 64.2822 23.0876 63.5262C23.0876 62.4062 23.5286 61.5452 24.4106 60.9432C25.2926 60.3272 26.6506 59.9912 28.4846 59.9352L30.3956 59.8722V59.2002C30.3956 58.2622 30.1926 57.6112 29.7866 57.2472C29.3806 56.8832 28.8066 56.7012 28.0646 56.7012C27.4766 56.7012 26.9166 56.7922 26.3846 56.9742C25.8526 57.1422 25.3556 57.3382 24.8936 57.5622L24.3266 56.1762C24.8166 55.9102 25.3976 55.6862 26.0696 55.5042C26.7416 55.3082 27.4416 55.2102 28.1696 55.2102ZM28.7156 61.2162C27.3156 61.2722 26.3426 61.4962 25.7966 61.8882C25.2646 62.2802 24.9986 62.8332 24.9986 63.5472C24.9986 64.1772 25.1876 64.6392 25.5656 64.9332C25.9576 65.2272 26.4546 65.3742 27.0566 65.3742C28.0086 65.3742 28.7996 65.1152 29.4296 64.5972C30.0596 64.0652 30.3746 63.2532 30.3746 62.1612V61.1532L28.7156 61.2162ZM49.1312 55.1892C49.3412 55.1892 49.5652 55.2032 49.8032 55.2312C50.0552 55.2452 50.2722 55.2732 50.4542 55.3152L50.2232 57.0162C50.0412 56.9742 49.8382 56.9392 49.6142 56.9112C49.4042 56.8832 49.2012 56.8692 49.0052 56.8692C48.5712 56.8692 48.1582 56.9602 47.7662 57.1422C47.3742 57.3242 47.0242 57.5832 46.7162 57.9192C46.4082 58.2412 46.1632 58.6332 45.9812 59.0952C45.8132 59.5572 45.7292 60.0752 45.7292 60.6492V66.6552H43.8812V55.3992H45.3932L45.6032 57.4572H45.6872C45.9252 57.0372 46.2122 56.6592 46.5482 56.3232C46.8842 55.9732 47.2692 55.7002 47.7032 55.5042C48.1372 55.2942 48.6132 55.1892 49.1312 55.1892ZM64.5181 65.3532C64.7981 65.3532 65.0851 65.3322 65.3791 65.2902C65.6731 65.2342 65.9111 65.1782 66.0931 65.1222V66.5292C65.8971 66.6272 65.6171 66.7042 65.2531 66.7602C64.8891 66.8302 64.5391 66.8652 64.2031 66.8652C63.6151 66.8652 63.0691 66.7672 62.5651 66.5712C62.0751 66.3612 61.6761 66.0042 61.3681 65.5002C61.0601 64.9962 60.9061 64.2892 60.9061 63.3792V56.8272H59.3101V55.9452L60.9271 55.2102L61.6621 52.8162H62.7541V55.3992H66.0091V56.8272H62.7541V63.3372C62.7541 64.0232 62.9151 64.5342 63.2371 64.8702C63.5731 65.1922 64.0001 65.3532 64.5181 65.3532ZM78.3981 55.3992V66.6552H76.5501V55.3992H78.3981ZM77.4951 51.1782C77.7751 51.1782 78.0201 51.2762 78.2301 51.4722C78.4541 51.6542 78.5661 51.9482 78.5661 52.3542C78.5661 52.7462 78.4541 53.0402 78.2301 53.2362C78.0201 53.4322 77.7751 53.5302 77.4951 53.5302C77.1871 53.5302 76.9281 53.4322 76.7181 53.2362C76.5081 53.0402 76.4031 52.7462 76.4031 52.3542C76.4031 51.9482 76.5081 51.6542 76.7181 51.4722C76.9281 51.2762 77.1871 51.1782 77.4951 51.1782ZM95.5223 55.1892C96.9083 55.1892 98.0213 55.6722 98.8613 56.6382C99.7153 57.6042 100.142 59.0602 100.142 61.0062C100.142 62.2802 99.9463 63.3582 99.5543 64.2402C99.1763 65.1082 98.6373 65.7662 97.9373 66.2142C97.2513 66.6482 96.4393 66.8652 95.5013 66.8652C94.9273 66.8652 94.4163 66.7882 93.9683 66.6342C93.5203 66.4802 93.1353 66.2842 92.8133 66.0462C92.5053 65.7942 92.2393 65.5212 92.0153 65.2272H91.8893C91.9173 65.4652 91.9453 65.7662 91.9733 66.1302C92.0013 66.4942 92.0153 66.8092 92.0153 67.0752V71.6952H90.1673V55.3992H91.6793L91.9313 56.9322H92.0153C92.2393 56.6102 92.5053 56.3162 92.8133 56.0502C93.1353 55.7842 93.5133 55.5742 93.9473 55.4202C94.3953 55.2662 94.9203 55.1892 95.5223 55.1892ZM95.1863 56.7432C94.4303 56.7432 93.8213 56.8902 93.3593 57.1842C92.8973 57.4642 92.5613 57.8912 92.3513 58.4652C92.1413 59.0392 92.0293 59.7672 92.0153 60.6492V61.0062C92.0153 61.9302 92.1133 62.7142 92.3093 63.3582C92.5053 64.0022 92.8343 64.4922 93.2963 64.8282C93.7723 65.1642 94.4163 65.3322 95.2283 65.3322C95.9143 65.3322 96.4743 65.1432 96.9083 64.7652C97.3563 64.3872 97.6853 63.8762 97.8953 63.2322C98.1193 62.5742 98.2313 61.8252 98.2313 60.9852C98.2313 59.6972 97.9793 58.6682 97.4753 57.8982C96.9853 57.1282 96.2223 56.7432 95.1863 56.7432ZM115.553 55.2102C116.925 55.2102 117.94 55.5112 118.598 56.1132C119.256 56.7152 119.585 57.6742 119.585 58.9902V66.6552H118.241L117.884 65.0592H117.8C117.478 65.4652 117.142 65.8082 116.792 66.0882C116.456 66.3542 116.064 66.5502 115.616 66.6762C115.182 66.8022 114.65 66.8652 114.02 66.8652C113.348 66.8652 112.739 66.7462 112.193 66.5082C111.661 66.2702 111.241 65.9062 110.933 65.4162C110.625 64.9122 110.471 64.2822 110.471 63.5262C110.471 62.4062 110.912 61.5452 111.794 60.9432C112.676 60.3272 114.034 59.9912 115.868 59.9352L117.779 59.8722V59.2002C117.779 58.2622 117.576 57.6112 117.17 57.2472C116.764 56.8832 116.19 56.7012 115.448 56.7012C114.86 56.7012 114.3 56.7922 113.768 56.9742C113.236 57.1422 112.739 57.3382 112.277 57.5622L111.71 56.1762C112.2 55.9102 112.781 55.6862 113.453 55.5042C114.125 55.3082 114.825 55.2102 115.553 55.2102ZM116.099 61.2162C114.699 61.2722 113.726 61.4962 113.18 61.8882C112.648 62.2802 112.382 62.8332 112.382 63.5472C112.382 64.1772 112.571 64.6392 112.949 64.9332C113.341 65.2272 113.838 65.3742 114.44 65.3742C115.392 65.3742 116.183 65.1152 116.813 64.5972C117.443 64.0652 117.758 63.2532 117.758 62.1612V61.1532L116.099 61.2162ZM135.78 66.8652C134.786 66.8652 133.897 66.6622 133.113 66.2562C132.343 65.8502 131.734 65.2202 131.286 64.3662C130.852 63.5122 130.635 62.4202 130.635 61.0902C130.635 59.7042 130.866 58.5772 131.328 57.7092C131.79 56.8412 132.413 56.2042 133.197 55.7982C133.995 55.3922 134.898 55.1892 135.906 55.1892C136.48 55.1892 137.033 55.2522 137.565 55.3782C138.097 55.4902 138.531 55.6302 138.867 55.7982L138.3 57.3312C137.964 57.2052 137.572 57.0862 137.124 56.9742C136.676 56.8622 136.256 56.8062 135.864 56.8062C135.108 56.8062 134.485 56.9672 133.995 57.2892C133.505 57.6112 133.141 58.0872 132.903 58.7172C132.665 59.3472 132.546 60.1312 132.546 61.0692C132.546 61.9652 132.665 62.7282 132.903 63.3582C133.141 63.9882 133.498 64.4642 133.974 64.7862C134.45 65.1082 135.045 65.2692 135.759 65.2692C136.375 65.2692 136.914 65.2062 137.376 65.0802C137.852 64.9542 138.286 64.8002 138.678 64.6182V66.2562C138.3 66.4522 137.88 66.5992 137.418 66.6972C136.97 66.8092 136.424 66.8652 135.78 66.8652ZM137.502 69.5742C137.502 70.0222 137.383 70.4002 137.145 70.7082C136.921 71.0302 136.578 71.2752 136.116 71.4432C135.654 71.6112 135.08 71.6952 134.394 71.6952C134.184 71.6952 133.981 71.6812 133.785 71.6532C133.603 71.6392 133.456 71.6182 133.344 71.5902V70.4352C133.47 70.4632 133.638 70.4842 133.848 70.4982C134.058 70.5262 134.261 70.5402 134.457 70.5402C134.961 70.5402 135.346 70.4702 135.612 70.3302C135.878 70.2042 136.011 69.9662 136.011 69.6162C136.011 69.2522 135.822 68.9862 135.444 68.8182C135.08 68.6502 134.632 68.5312 134.1 68.4612L135.003 66.6552H136.221L135.675 67.7682C136.011 67.8382 136.319 67.9432 136.599 68.0832C136.879 68.2372 137.096 68.4332 137.25 68.6712C137.418 68.9092 137.502 69.2102 137.502 69.5742ZM159.344 61.0062C159.344 61.9442 159.218 62.7772 158.966 63.5052C158.728 64.2192 158.378 64.8282 157.916 65.3322C157.468 65.8362 156.915 66.2212 156.257 66.4872C155.613 66.7392 154.892 66.8652 154.094 66.8652C153.352 66.8652 152.666 66.7392 152.036 66.4872C151.406 66.2212 150.86 65.8362 150.398 65.3322C149.936 64.8282 149.572 64.2192 149.306 63.5052C149.054 62.7772 148.928 61.9442 148.928 61.0062C148.928 59.7602 149.138 58.7102 149.558 57.8562C149.978 56.9882 150.58 56.3302 151.364 55.8822C152.148 55.4202 153.079 55.1892 154.157 55.1892C155.179 55.1892 156.075 55.4202 156.845 55.8822C157.629 56.3302 158.238 56.9882 158.672 57.8562C159.12 58.7102 159.344 59.7602 159.344 61.0062ZM150.839 61.0062C150.839 61.8882 150.951 62.6582 151.175 63.3162C151.413 63.9602 151.777 64.4572 152.267 64.8072C152.757 65.1572 153.38 65.3322 154.136 65.3322C154.892 65.3322 155.515 65.1572 156.005 64.8072C156.495 64.4572 156.852 63.9602 157.076 63.3162C157.314 62.6582 157.433 61.8882 157.433 61.0062C157.433 60.1102 157.314 59.3472 157.076 58.7172C156.838 58.0872 156.474 57.6042 155.984 57.2682C155.508 56.9182 154.885 56.7432 154.115 56.7432C152.967 56.7432 152.134 57.1212 151.616 57.8772C151.098 58.6332 150.839 59.6762 150.839 61.0062ZM150.293 53.9292C150.335 53.5092 150.412 53.1382 150.524 52.8162C150.65 52.4802 150.811 52.2002 151.007 51.9762C151.203 51.7382 151.434 51.5562 151.7 51.4302C151.966 51.3042 152.267 51.2412 152.603 51.2412C152.911 51.2412 153.205 51.3042 153.485 51.4302C153.779 51.5422 154.059 51.6822 154.325 51.8502C154.591 52.0042 154.843 52.1442 155.081 52.2702C155.333 52.3822 155.571 52.4382 155.795 52.4382C156.117 52.4382 156.362 52.3402 156.53 52.1442C156.712 51.9342 156.852 51.6262 156.95 51.2202H158C157.916 52.0322 157.678 52.6832 157.286 53.1732C156.894 53.6632 156.369 53.9082 155.711 53.9082C155.417 53.9082 155.13 53.8522 154.85 53.7402C154.57 53.6142 154.29 53.4742 154.01 53.3202C153.744 53.1522 153.485 53.0122 153.233 52.9002C152.995 52.7742 152.757 52.7112 152.519 52.7112C152.183 52.7112 151.931 52.8162 151.763 53.0262C151.595 53.2222 151.462 53.5232 151.364 53.9292H150.293ZM174.823 55.1892C175.789 55.1892 176.615 55.3992 177.301 55.8192C178.001 56.2392 178.533 56.8342 178.897 57.6042C179.275 58.3602 179.464 59.2492 179.464 60.2712V61.3842H171.757C171.785 62.6582 172.107 63.6312 172.723 64.3032C173.353 64.9612 174.228 65.2902 175.348 65.2902C176.062 65.2902 176.692 65.2272 177.238 65.1012C177.798 64.9612 178.372 64.7652 178.96 64.5132V66.1302C178.386 66.3822 177.819 66.5642 177.259 66.6762C176.699 66.8022 176.034 66.8652 175.264 66.8652C174.2 66.8652 173.255 66.6482 172.429 66.2142C171.617 65.7802 170.98 65.1362 170.518 64.2822C170.07 63.4142 169.846 62.3572 169.846 61.1112C169.846 59.8792 170.049 58.8222 170.455 57.9402C170.875 57.0582 171.456 56.3792 172.198 55.9032C172.954 55.4272 173.829 55.1892 174.823 55.1892ZM174.802 56.7012C173.92 56.7012 173.22 56.9882 172.702 57.5622C172.198 58.1222 171.897 58.9062 171.799 59.9142H177.532C177.532 59.2702 177.434 58.7102 177.238 58.2342C177.042 57.7582 176.741 57.3872 176.335 57.1212C175.943 56.8412 175.432 56.7012 174.802 56.7012ZM197.862 63.5472C197.862 64.2752 197.68 64.8842 197.316 65.3742C196.952 65.8642 196.434 66.2352 195.762 66.4872C195.09 66.7392 194.292 66.8652 193.368 66.8652C192.584 66.8652 191.905 66.8022 191.331 66.6762C190.771 66.5502 190.274 66.3752 189.84 66.1512V64.4712C190.288 64.6952 190.827 64.9052 191.457 65.1012C192.101 65.2832 192.752 65.3742 193.41 65.3742C194.348 65.3742 195.027 65.2272 195.447 64.9332C195.867 64.6252 196.077 64.2192 196.077 63.7152C196.077 63.4352 196 63.1832 195.846 62.9592C195.692 62.7352 195.412 62.5112 195.006 62.2872C194.614 62.0632 194.047 61.8112 193.305 61.5312C192.577 61.2512 191.954 60.9712 191.436 60.6912C190.918 60.4112 190.519 60.0752 190.239 59.6832C189.959 59.2912 189.819 58.7872 189.819 58.1712C189.819 57.2192 190.204 56.4842 190.974 55.9662C191.758 55.4482 192.78 55.1892 194.04 55.1892C194.726 55.1892 195.363 55.2592 195.951 55.3992C196.553 55.5252 197.113 55.7072 197.631 55.9452L197.001 57.4152C196.693 57.2752 196.364 57.1562 196.014 57.0582C195.678 56.9462 195.335 56.8622 194.985 56.8062C194.635 56.7362 194.278 56.7012 193.914 56.7012C193.158 56.7012 192.577 56.8272 192.171 57.0792C191.779 57.3172 191.583 57.6462 191.583 58.0662C191.583 58.3742 191.674 58.6402 191.856 58.8642C192.038 59.0742 192.339 59.2842 192.759 59.4942C193.193 59.6902 193.767 59.9282 194.481 60.2082C195.195 60.4742 195.804 60.7472 196.308 61.0272C196.812 61.3072 197.197 61.6502 197.463 62.0562C197.729 62.4482 197.862 62.9452 197.862 63.5472Z" fill="white"/>
<defs>
<linearGradient id="paint0_linear_290_748" x1="24.2422" y1="22.021" x2="29.2927" y2="22.021" gradientUnits="userSpaceOnUse">
<stop stop-color="#3871C0"/>
<stop offset="1" stop-color="#24497B"/>
</linearGradient>
<linearGradient id="paint1_linear_290_748" x1="8.08008" y1="8.41978" x2="24.2417" y2="8.41978" gradientUnits="userSpaceOnUse">
<stop stop-color="#3871C0"/>
<stop offset="1" stop-color="#24497B"/>
</linearGradient>
<linearGradient id="paint2_linear_290_748" x1="8.08008" y1="35.6222" x2="24.2417" y2="35.6222" gradientUnits="userSpaceOnUse">
<stop stop-color="#3871C0"/>
<stop offset="1" stop-color="#24497B"/>
</linearGradient>
</defs>
</svg>
