<svg width="366" height="736" viewBox="0 0 366 736" fill="none" xmlns="http://www.w3.org/2000/svg">
<g clip-path="url(#clip0_418_407)">
<path d="M21 37C21 25.9543 29.9543 17 41 17H332C343.046 17 352 25.9543 352 37V697C352 708.046 343.046 717 332 717H41C29.9543 717 21 708.046 21 697V37Z" fill="#3B9B62"/>
<rect x="80" y="270" width="214" height="163" rx="8" fill="#3B9B62"/>
<path d="M122.729 354.569C123.9 353.984 125.126 353.691 126.407 353.691C127.725 353.691 128.786 354.093 129.592 354.899C130.433 355.704 130.854 356.674 130.854 357.808C130.854 358.943 130.69 361.45 130.36 365.33C130.031 369.173 129.866 372.229 129.866 374.498C129.866 381.782 130.196 387.839 130.854 392.671C129.683 393.11 128.365 393.329 126.901 393.329C125.474 393.329 124.358 393.091 123.553 392.616C121.21 391.261 115.738 382.697 107.137 366.922C106.991 368.349 106.918 371.698 106.918 376.969C106.918 382.203 107.32 387.327 108.125 392.341C106.991 392.78 105.765 393 104.447 393C103.129 393 102.05 392.579 101.208 391.737C100.403 390.895 100 389.889 100 388.718C100 387.546 100.165 385.094 100.494 381.361C100.86 377.628 101.043 374.809 101.043 372.906C101.043 365.623 100.695 359.584 100 354.789C101.025 354.276 102.525 354.02 104.502 354.02C106.478 354.02 107.869 354.807 108.674 356.381C114.091 367.398 119.27 376.731 124.211 384.38C124.102 377.353 124.047 373.638 124.047 373.236C124.047 366.391 123.607 360.169 122.729 354.569Z" fill="white"/>
<path d="M141.067 380.537C141.067 383.173 141.488 385.259 142.329 386.796C143.171 388.297 144.58 389.047 146.557 389.047C148.533 389.047 150.071 388.388 151.169 387.071C152.303 385.716 152.87 384.088 152.87 382.184C154.115 382.184 155.195 382.496 156.11 383.118C157.025 383.74 157.482 384.6 157.482 385.698C157.482 387.967 156.274 389.871 153.859 391.408C151.443 392.908 148.899 393.659 146.227 393.659C142.055 393.659 139.035 392.542 137.169 390.31C135.302 388.041 134.369 384.692 134.369 380.263C134.369 375.834 135.613 372.119 138.102 369.118C140.628 366.08 143.977 364.561 148.149 364.561C151.004 364.561 153.291 365.22 155.012 366.538C156.768 367.819 157.647 369.832 157.647 372.577C157.647 375.285 156.402 377.335 153.914 378.726C151.461 380.08 148.46 380.757 144.91 380.757C143.665 380.757 142.384 380.684 141.067 380.537ZM141.122 376.2C142.22 376.42 143.373 376.53 144.58 376.53C147.216 376.53 149.43 376.036 151.223 375.047C151.443 374.169 151.553 373.473 151.553 372.961C151.553 371.68 151.095 370.71 150.18 370.051C149.265 369.393 148.003 369.063 146.392 369.063C144.818 369.063 143.391 369.576 142.11 370.6C141.451 372.504 141.122 374.37 141.122 376.2Z" fill="white"/>
<path d="M187.915 367.142C186.927 371.351 186.433 375.578 186.433 379.824C186.433 384.033 186.909 388.205 187.86 392.341C186.543 392.78 185.189 393 183.798 393C182.407 393 181.437 392.597 180.888 391.792C180.339 390.95 180.064 389.761 180.064 388.224C180.064 386.65 180.302 384.509 180.778 381.8C178.18 387.363 175.672 390.877 173.257 392.341C172.159 393 171.024 393.329 169.853 393.329C167.071 393.329 164.912 392.305 163.375 390.255C161.837 388.169 161.069 385.588 161.069 382.514C161.069 377.829 162.368 373.73 164.967 370.216C167.565 366.666 170.933 364.891 175.068 364.891C179.241 364.891 183.523 365.641 187.915 367.142ZM180.723 370.436C178.783 369.85 177.136 369.557 175.782 369.557C173.037 369.557 170.988 370.161 169.633 371.369C168.389 374.443 167.767 377.573 167.767 380.757C167.767 382.441 168.023 384.143 168.535 385.863C169.084 387.583 169.908 388.443 171.006 388.443C172.287 388.443 173.934 386.558 175.947 382.788C177.96 379.018 179.552 374.901 180.723 370.436Z" fill="white"/>
<path d="M200.813 392.341C199.678 392.78 198.47 393 197.189 393C195.908 393 194.865 392.707 194.06 392.122C193.291 391.499 192.907 390.658 192.907 389.596C192.907 388.498 193.072 386.522 193.401 383.667C193.731 380.812 193.895 378.049 193.895 375.377C193.895 372.668 193.474 369.502 192.632 365.879C193.804 365.44 194.957 365.22 196.091 365.22C197.226 365.22 198.196 365.604 199.001 366.373C199.843 367.142 200.264 368.166 200.264 369.447C200.264 370.106 200.154 371.094 199.934 372.412C199.715 373.693 199.587 374.663 199.55 375.322C200.977 372.064 202.661 369.521 204.601 367.691C206.577 365.824 208.535 364.891 210.475 364.891C211.83 364.891 212.909 365.366 213.714 366.318C214.52 367.27 214.922 368.478 214.922 369.942C214.922 371.369 214.556 372.54 213.824 373.455C213.092 374.334 212.177 374.773 211.079 374.773C210.018 374.773 209.158 374.663 208.499 374.443C208.609 374.004 208.664 373.602 208.664 373.236C208.664 371.735 208.133 370.985 207.071 370.985C205.461 370.985 203.942 372.613 202.515 375.871C201.124 379.092 200.191 382.111 199.715 384.929C199.898 387.675 200.264 390.145 200.813 392.341Z" fill="white"/>
<path d="M217.834 391.078C218.676 383.795 219.096 378.781 219.096 376.036C219.096 368.349 218.785 360.499 218.163 352.483C219.261 352.044 220.432 351.824 221.677 351.824C222.921 351.824 223.983 352.245 224.861 353.087C225.739 353.929 226.179 354.99 226.179 356.271C226.179 358.467 225.959 361.981 225.52 366.812C225.081 371.607 224.806 374.809 224.696 376.42C227.698 370.783 230.681 367.27 233.645 365.879C234.963 365.22 236.372 364.891 237.873 364.891C239.922 364.891 241.496 365.97 242.594 368.13C243.729 370.289 244.296 372.924 244.296 376.036C244.296 381.013 242.942 385.149 240.233 388.443C237.525 391.701 234.011 393.329 229.692 393.329C225.41 393.329 221.457 392.579 217.834 391.078ZM224.422 387.62C225.886 388.169 227.624 388.443 229.637 388.443C231.65 388.443 233.389 388.059 234.853 387.29C236.646 384.216 237.543 380.867 237.543 377.243C237.543 375.523 237.342 373.858 236.939 372.247C236.537 370.6 235.896 369.777 235.018 369.777C233.664 369.777 231.888 371.643 229.692 375.377C227.496 379.11 225.739 383.191 224.422 387.62Z" fill="white"/>
<path d="M249.427 383.886L249.976 375.981C249.976 372.43 249.463 369.063 248.438 365.879C249.463 365.44 250.726 365.22 252.227 365.22C255.155 365.22 256.619 366.849 256.619 370.106C256.619 371.57 256.417 373.638 256.015 376.31C255.612 378.982 255.411 380.83 255.411 381.855C255.411 382.843 255.429 383.575 255.466 384.051C255.502 384.49 255.594 385.021 255.74 385.643C255.96 386.888 256.674 387.51 257.881 387.51C259.126 387.51 260.443 386.54 261.834 384.6C263.262 382.624 264.396 380.446 265.238 378.067C266.117 375.688 266.556 373.803 266.556 372.412C266.373 369.521 266.062 367.343 265.622 365.879C266.794 365.44 267.983 365.22 269.191 365.22C270.435 365.22 271.46 365.604 272.265 366.373C273.107 367.142 273.528 368.166 273.528 369.447C273.528 389.431 267.868 409.418 260.548 413.408C258.901 414.286 257.034 414.725 254.948 414.725C252.862 414.725 251.032 414.176 249.458 413.078C247.921 411.98 245.152 410.443 245.152 408.466C245.152 407.149 247.646 406.033 248.635 405.118C249.623 404.239 250.794 403.8 252.148 403.8C252.441 403.8 252.807 403.836 253.246 403.91C253.136 404.385 253.081 404.806 253.081 405.172C253.081 408.393 254.198 410.004 256.43 410.004C257.785 410.004 259.011 409.272 260.109 407.808C261.207 406.344 262.085 404.55 262.744 402.427C264.025 398.108 266.666 386.192 266.666 382.679C265.568 385.643 264.067 388.041 262.164 389.871C260.297 391.664 258.266 392.561 256.07 392.561C251.641 392.561 249.427 389.669 249.427 383.886Z" fill="white"/>
<path d="M104.296 415C103.325 415 102.531 414.813 101.912 414.44C101.304 414.056 100.851 413.539 100.552 412.888C100.253 412.237 100.088 411.496 100.056 410.664C100.045 410.227 100.04 409.757 100.04 409.256C100.04 408.755 100.045 408.275 100.056 407.816C100.088 406.984 100.253 406.243 100.552 405.592C100.851 404.931 101.304 404.413 101.912 404.04C102.531 403.667 103.325 403.48 104.296 403.48C105.053 403.48 105.699 403.587 106.232 403.8C106.765 404.013 107.197 404.296 107.528 404.648C107.869 404.989 108.12 405.363 108.28 405.768C108.451 406.163 108.547 406.552 108.568 406.936C108.579 407.032 108.547 407.112 108.472 407.176C108.408 407.229 108.328 407.256 108.232 407.256H107.912C107.827 407.256 107.752 407.235 107.688 407.192C107.624 407.139 107.581 407.048 107.56 406.92C107.357 405.971 106.973 405.32 106.408 404.968C105.853 404.616 105.149 404.44 104.296 404.44C103.325 404.44 102.552 404.717 101.976 405.272C101.411 405.816 101.107 406.691 101.064 407.896C101.032 408.771 101.032 409.667 101.064 410.584C101.107 411.789 101.411 412.669 101.976 413.224C102.552 413.768 103.325 414.04 104.296 414.04C105.149 414.04 105.853 413.864 106.408 413.512C106.973 413.16 107.357 412.509 107.56 411.56C107.581 411.432 107.624 411.347 107.688 411.304C107.752 411.251 107.827 411.224 107.912 411.224H108.232C108.328 411.224 108.408 411.256 108.472 411.32C108.547 411.373 108.579 411.448 108.568 411.544C108.547 411.928 108.451 412.323 108.28 412.728C108.12 413.123 107.869 413.496 107.528 413.848C107.197 414.189 106.765 414.467 106.232 414.68C105.699 414.893 105.053 415 104.296 415Z" fill="white"/>
<path d="M111.086 414.84C110.979 414.84 110.894 414.808 110.83 414.744C110.766 414.68 110.734 414.595 110.734 414.488V403.832C110.734 403.725 110.766 403.64 110.83 403.576C110.894 403.512 110.979 403.48 111.086 403.48H111.358C111.465 403.48 111.55 403.512 111.614 403.576C111.678 403.64 111.71 403.725 111.71 403.832V414.488C111.71 414.595 111.678 414.68 111.614 414.744C111.55 414.808 111.465 414.84 111.358 414.84H111.086Z" fill="white"/>
<path d="M117.432 415C116.706 415 116.104 414.845 115.624 414.536C115.154 414.216 114.802 413.784 114.568 413.24C114.344 412.696 114.232 412.088 114.232 411.416V406.872C114.232 406.765 114.264 406.68 114.328 406.616C114.392 406.552 114.477 406.52 114.584 406.52H114.856C114.962 406.52 115.048 406.552 115.112 406.616C115.176 406.68 115.208 406.765 115.208 406.872V411.336C115.208 413.16 116.002 414.072 117.592 414.072C118.349 414.072 118.957 413.832 119.416 413.352C119.874 412.861 120.104 412.189 120.104 411.336V406.872C120.104 406.765 120.136 406.68 120.2 406.616C120.264 406.552 120.349 406.52 120.456 406.52H120.728C120.834 406.52 120.92 406.552 120.984 406.616C121.048 406.68 121.08 406.765 121.08 406.872V414.488C121.08 414.595 121.048 414.68 120.984 414.744C120.92 414.808 120.834 414.84 120.728 414.84H120.456C120.349 414.84 120.264 414.808 120.2 414.744C120.136 414.68 120.104 414.595 120.104 414.488V413.736C119.816 414.109 119.469 414.413 119.064 414.648C118.669 414.883 118.125 415 117.432 415Z" fill="white"/>
<path d="M127.351 415C126.69 415 126.14 414.883 125.703 414.648C125.276 414.403 124.93 414.099 124.663 413.736V414.488C124.663 414.595 124.631 414.68 124.567 414.744C124.503 414.808 124.418 414.84 124.311 414.84H124.039C123.932 414.84 123.847 414.808 123.783 414.744C123.719 414.68 123.687 414.595 123.687 414.488V403.832C123.687 403.725 123.719 403.64 123.783 403.576C123.847 403.512 123.932 403.48 124.039 403.48H124.311C124.418 403.48 124.503 403.512 124.567 403.576C124.631 403.64 124.663 403.725 124.663 403.832V407.624C124.93 407.272 125.276 406.973 125.703 406.728C126.14 406.483 126.69 406.36 127.351 406.36C127.98 406.36 128.508 406.472 128.935 406.696C129.362 406.92 129.708 407.219 129.975 407.592C130.242 407.965 130.439 408.381 130.567 408.84C130.695 409.299 130.764 409.763 130.775 410.232C130.786 410.392 130.791 410.541 130.791 410.68C130.791 410.819 130.786 410.968 130.775 411.128C130.764 411.597 130.695 412.061 130.567 412.52C130.439 412.979 130.242 413.395 129.975 413.768C129.708 414.141 129.362 414.44 128.935 414.664C128.508 414.888 127.98 415 127.351 415ZM127.255 414.072C127.884 414.072 128.38 413.933 128.743 413.656C129.106 413.379 129.367 413.016 129.527 412.568C129.687 412.12 129.778 411.64 129.799 411.128C129.81 410.829 129.81 410.531 129.799 410.232C129.778 409.72 129.687 409.24 129.527 408.792C129.367 408.344 129.106 407.981 128.743 407.704C128.38 407.427 127.884 407.288 127.255 407.288C126.668 407.288 126.183 407.427 125.799 407.704C125.426 407.981 125.143 408.328 124.951 408.744C124.77 409.16 124.674 409.581 124.663 410.008C124.652 410.168 124.647 410.376 124.647 410.632C124.647 410.888 124.652 411.096 124.663 411.256C124.684 411.693 124.78 412.131 124.951 412.568C125.132 412.995 125.41 413.352 125.783 413.64C126.156 413.928 126.647 414.072 127.255 414.072Z" fill="white"/>
<path d="M136.04 415C135.006 415 134.184 414.664 133.576 413.992C132.968 413.309 132.622 412.419 132.536 411.32C132.526 411.16 132.52 410.947 132.52 410.68C132.52 410.413 132.526 410.2 132.536 410.04C132.59 409.315 132.76 408.675 133.048 408.12C133.336 407.565 133.731 407.133 134.232 406.824C134.744 406.515 135.347 406.36 136.04 406.36C136.787 406.36 137.422 406.525 137.944 406.856C138.467 407.187 138.867 407.661 139.144 408.28C139.432 408.899 139.576 409.635 139.576 410.488V410.728C139.576 410.835 139.539 410.92 139.464 410.984C139.4 411.048 139.315 411.08 139.208 411.08H133.512C133.512 411.08 133.512 411.101 133.512 411.144C133.512 411.187 133.512 411.219 133.512 411.24C133.534 411.72 133.646 412.179 133.848 412.616C134.051 413.043 134.339 413.395 134.712 413.672C135.086 413.939 135.528 414.072 136.04 414.072C136.499 414.072 136.878 414.003 137.176 413.864C137.486 413.725 137.731 413.576 137.912 413.416C138.094 413.245 138.211 413.117 138.264 413.032C138.36 412.893 138.435 412.813 138.488 412.792C138.542 412.76 138.627 412.744 138.744 412.744H139C139.096 412.744 139.176 412.776 139.24 412.84C139.315 412.893 139.347 412.968 139.336 413.064C139.326 413.213 139.24 413.4 139.08 413.624C138.931 413.837 138.712 414.051 138.424 414.264C138.147 414.477 137.806 414.653 137.4 414.792C136.995 414.931 136.542 415 136.04 415ZM133.512 410.184H138.6V410.12C138.6 409.587 138.499 409.107 138.296 408.68C138.094 408.253 137.8 407.917 137.416 407.672C137.032 407.416 136.574 407.288 136.04 407.288C135.507 407.288 135.048 407.416 134.664 407.672C134.291 407.917 134.003 408.253 133.8 408.68C133.608 409.107 133.512 409.587 133.512 410.12V410.184Z" fill="white"/>
<path d="M147.82 415C147.201 415 146.673 414.888 146.236 414.664C145.809 414.44 145.462 414.141 145.196 413.768C144.929 413.395 144.732 412.979 144.604 412.52C144.486 412.061 144.417 411.597 144.396 411.128C144.385 410.968 144.38 410.819 144.38 410.68C144.38 410.541 144.385 410.392 144.396 410.232C144.417 409.763 144.486 409.299 144.604 408.84C144.732 408.381 144.929 407.965 145.196 407.592C145.462 407.219 145.809 406.92 146.236 406.696C146.673 406.472 147.201 406.36 147.82 406.36C148.481 406.36 149.025 406.483 149.452 406.728C149.889 406.973 150.241 407.272 150.508 407.624V403.832C150.508 403.725 150.54 403.64 150.604 403.576C150.668 403.512 150.753 403.48 150.86 403.48H151.132C151.238 403.48 151.324 403.512 151.388 403.576C151.452 403.64 151.484 403.725 151.484 403.832V414.488C151.484 414.595 151.452 414.68 151.388 414.744C151.324 414.808 151.238 414.84 151.132 414.84H150.86C150.753 414.84 150.668 414.808 150.604 414.744C150.54 414.68 150.508 414.595 150.508 414.488V413.736C150.241 414.099 149.889 414.403 149.452 414.648C149.025 414.883 148.481 415 147.82 415ZM147.916 414.072C148.524 414.072 149.014 413.928 149.388 413.64C149.761 413.352 150.038 412.995 150.22 412.568C150.401 412.131 150.497 411.693 150.508 411.256C150.518 411.096 150.524 410.888 150.524 410.632C150.524 410.376 150.518 410.168 150.508 410.008C150.497 409.581 150.396 409.16 150.204 408.744C150.022 408.328 149.745 407.981 149.372 407.704C148.998 407.427 148.513 407.288 147.916 407.288C147.297 407.288 146.801 407.427 146.428 407.704C146.065 407.981 145.804 408.344 145.644 408.792C145.484 409.24 145.393 409.72 145.372 410.232C145.361 410.531 145.361 410.829 145.372 411.128C145.393 411.64 145.484 412.12 145.644 412.568C145.804 413.016 146.065 413.379 146.428 413.656C146.801 413.933 147.297 414.072 147.916 414.072Z" fill="white"/>
<path d="M157.181 415C156.146 415 155.325 414.664 154.717 413.992C154.109 413.309 153.762 412.419 153.677 411.32C153.666 411.16 153.661 410.947 153.661 410.68C153.661 410.413 153.666 410.2 153.677 410.04C153.73 409.315 153.901 408.675 154.189 408.12C154.477 407.565 154.872 407.133 155.373 406.824C155.885 406.515 156.488 406.36 157.181 406.36C157.928 406.36 158.562 406.525 159.085 406.856C159.608 407.187 160.008 407.661 160.285 408.28C160.573 408.899 160.717 409.635 160.717 410.488V410.728C160.717 410.835 160.68 410.92 160.605 410.984C160.541 411.048 160.456 411.08 160.349 411.08H154.653C154.653 411.08 154.653 411.101 154.653 411.144C154.653 411.187 154.653 411.219 154.653 411.24C154.674 411.72 154.786 412.179 154.989 412.616C155.192 413.043 155.48 413.395 155.853 413.672C156.226 413.939 156.669 414.072 157.181 414.072C157.64 414.072 158.018 414.003 158.317 413.864C158.626 413.725 158.872 413.576 159.053 413.416C159.234 413.245 159.352 413.117 159.405 413.032C159.501 412.893 159.576 412.813 159.629 412.792C159.682 412.76 159.768 412.744 159.885 412.744H160.141C160.237 412.744 160.317 412.776 160.381 412.84C160.456 412.893 160.488 412.968 160.477 413.064C160.466 413.213 160.381 413.4 160.221 413.624C160.072 413.837 159.853 414.051 159.565 414.264C159.288 414.477 158.946 414.653 158.541 414.792C158.136 414.931 157.682 415 157.181 415ZM154.653 410.184H159.741V410.12C159.741 409.587 159.64 409.107 159.437 408.68C159.234 408.253 158.941 407.917 158.557 407.672C158.173 407.416 157.714 407.288 157.181 407.288C156.648 407.288 156.189 407.416 155.805 407.672C155.432 407.917 155.144 408.253 154.941 408.68C154.749 409.107 154.653 409.587 154.653 410.12V410.184Z" fill="white"/>
<path d="M169.632 415C168.971 415 168.422 414.883 167.984 414.648C167.558 414.403 167.211 414.099 166.944 413.736V414.488C166.944 414.595 166.912 414.68 166.848 414.744C166.784 414.808 166.699 414.84 166.592 414.84H166.32C166.214 414.84 166.128 414.808 166.064 414.744C166 414.68 165.968 414.595 165.968 414.488V403.832C165.968 403.725 166 403.64 166.064 403.576C166.128 403.512 166.214 403.48 166.32 403.48H166.592C166.699 403.48 166.784 403.512 166.848 403.576C166.912 403.64 166.944 403.725 166.944 403.832V407.624C167.211 407.272 167.558 406.973 167.984 406.728C168.422 406.483 168.971 406.36 169.632 406.36C170.262 406.36 170.79 406.472 171.216 406.696C171.643 406.92 171.99 407.219 172.256 407.592C172.523 407.965 172.72 408.381 172.848 408.84C172.976 409.299 173.046 409.763 173.056 410.232C173.067 410.392 173.072 410.541 173.072 410.68C173.072 410.819 173.067 410.968 173.056 411.128C173.046 411.597 172.976 412.061 172.848 412.52C172.72 412.979 172.523 413.395 172.256 413.768C171.99 414.141 171.643 414.44 171.216 414.664C170.79 414.888 170.262 415 169.632 415ZM169.536 414.072C170.166 414.072 170.662 413.933 171.024 413.656C171.387 413.379 171.648 413.016 171.808 412.568C171.968 412.12 172.059 411.64 172.08 411.128C172.091 410.829 172.091 410.531 172.08 410.232C172.059 409.72 171.968 409.24 171.808 408.792C171.648 408.344 171.387 407.981 171.024 407.704C170.662 407.427 170.166 407.288 169.536 407.288C168.95 407.288 168.464 407.427 168.08 407.704C167.707 407.981 167.424 408.328 167.232 408.744C167.051 409.16 166.955 409.581 166.944 410.008C166.934 410.168 166.928 410.376 166.928 410.632C166.928 410.888 166.934 411.096 166.944 411.256C166.966 411.693 167.062 412.131 167.232 412.568C167.414 412.995 167.691 413.352 168.064 413.64C168.438 413.928 168.928 414.072 169.536 414.072Z" fill="white"/>
<path d="M178.321 415C177.287 415 176.465 414.664 175.857 413.992C175.249 413.309 174.903 412.419 174.817 411.32C174.807 411.16 174.801 410.947 174.801 410.68C174.801 410.413 174.807 410.2 174.817 410.04C174.871 409.315 175.041 408.675 175.329 408.12C175.617 407.565 176.012 407.133 176.513 406.824C177.025 406.515 177.628 406.36 178.321 406.36C179.068 406.36 179.703 406.525 180.225 406.856C180.748 407.187 181.148 407.661 181.425 408.28C181.713 408.899 181.857 409.635 181.857 410.488V410.728C181.857 410.835 181.82 410.92 181.745 410.984C181.681 411.048 181.596 411.08 181.489 411.08H175.793C175.793 411.08 175.793 411.101 175.793 411.144C175.793 411.187 175.793 411.219 175.793 411.24C175.815 411.72 175.927 412.179 176.129 412.616C176.332 413.043 176.62 413.395 176.993 413.672C177.367 413.939 177.809 414.072 178.321 414.072C178.78 414.072 179.159 414.003 179.457 413.864C179.767 413.725 180.012 413.576 180.193 413.416C180.375 413.245 180.492 413.117 180.545 413.032C180.641 412.893 180.716 412.813 180.769 412.792C180.823 412.76 180.908 412.744 181.025 412.744H181.281C181.377 412.744 181.457 412.776 181.521 412.84C181.596 412.893 181.628 412.968 181.617 413.064C181.607 413.213 181.521 413.4 181.361 413.624C181.212 413.837 180.993 414.051 180.705 414.264C180.428 414.477 180.087 414.653 179.681 414.792C179.276 414.931 178.823 415 178.321 415ZM175.793 410.184H180.881V410.12C180.881 409.587 180.78 409.107 180.577 408.68C180.375 408.253 180.081 407.917 179.697 407.672C179.313 407.416 178.855 407.288 178.321 407.288C177.788 407.288 177.329 407.416 176.945 407.672C176.572 407.917 176.284 408.253 176.081 408.68C175.889 409.107 175.793 409.587 175.793 410.12V410.184Z" fill="white"/>
<path d="M184.32 414.84C184.213 414.84 184.128 414.808 184.064 414.744C184 414.68 183.968 414.595 183.968 414.488V406.872C183.968 406.765 184 406.68 184.064 406.616C184.128 406.552 184.213 406.52 184.32 406.52H184.592C184.699 406.52 184.784 406.552 184.848 406.616C184.912 406.68 184.944 406.765 184.944 406.872V407.624C185.232 407.251 185.579 406.947 185.984 406.712C186.4 406.477 186.949 406.36 187.632 406.36C188.357 406.36 188.96 406.52 189.44 406.84C189.931 407.149 190.293 407.576 190.528 408.12C190.773 408.653 190.896 409.261 190.896 409.944V414.488C190.896 414.595 190.864 414.68 190.8 414.744C190.736 414.808 190.651 414.84 190.544 414.84H190.272C190.165 414.84 190.08 414.808 190.016 414.744C189.952 414.68 189.92 414.595 189.92 414.488V410.024C189.92 409.171 189.712 408.504 189.296 408.024C188.88 407.533 188.272 407.288 187.472 407.288C186.715 407.288 186.101 407.533 185.632 408.024C185.173 408.504 184.944 409.171 184.944 410.024V414.488C184.944 414.595 184.912 414.68 184.848 414.744C184.784 414.808 184.699 414.84 184.592 414.84H184.32Z" fill="white"/>
<path d="M196.493 415C195.459 415 194.637 414.664 194.029 413.992C193.421 413.309 193.075 412.419 192.989 411.32C192.979 411.16 192.973 410.947 192.973 410.68C192.973 410.413 192.979 410.2 192.989 410.04C193.043 409.315 193.213 408.675 193.501 408.12C193.789 407.565 194.184 407.133 194.685 406.824C195.197 406.515 195.8 406.36 196.493 406.36C197.24 406.36 197.875 406.525 198.397 406.856C198.92 407.187 199.32 407.661 199.597 408.28C199.885 408.899 200.029 409.635 200.029 410.488V410.728C200.029 410.835 199.992 410.92 199.917 410.984C199.853 411.048 199.768 411.08 199.661 411.08H193.965C193.965 411.08 193.965 411.101 193.965 411.144C193.965 411.187 193.965 411.219 193.965 411.24C193.987 411.72 194.099 412.179 194.301 412.616C194.504 413.043 194.792 413.395 195.165 413.672C195.539 413.939 195.981 414.072 196.493 414.072C196.952 414.072 197.331 414.003 197.629 413.864C197.939 413.725 198.184 413.576 198.365 413.416C198.547 413.245 198.664 413.117 198.717 413.032C198.813 412.893 198.888 412.813 198.941 412.792C198.995 412.76 199.08 412.744 199.197 412.744H199.453C199.549 412.744 199.629 412.776 199.693 412.84C199.768 412.893 199.8 412.968 199.789 413.064C199.779 413.213 199.693 413.4 199.533 413.624C199.384 413.837 199.165 414.051 198.877 414.264C198.6 414.477 198.259 414.653 197.853 414.792C197.448 414.931 196.995 415 196.493 415ZM193.965 410.184H199.053V410.12C199.053 409.587 198.952 409.107 198.749 408.68C198.547 408.253 198.253 407.917 197.869 407.672C197.485 407.416 197.027 407.288 196.493 407.288C195.96 407.288 195.501 407.416 195.117 407.672C194.744 407.917 194.456 408.253 194.253 408.68C194.061 409.107 193.965 409.587 193.965 410.12V410.184Z" fill="white"/>
<path d="M203.198 414.84C203.091 414.84 203.006 414.808 202.942 414.744C202.878 414.68 202.846 414.595 202.846 414.488V407.448H201.422C201.315 407.448 201.23 407.416 201.166 407.352C201.102 407.288 201.07 407.203 201.07 407.096V406.872C201.07 406.765 201.102 406.68 201.166 406.616C201.23 406.552 201.315 406.52 201.422 406.52H202.846V405.608C202.846 405.128 202.91 404.691 203.038 404.296C203.176 403.901 203.416 403.587 203.758 403.352C204.11 403.117 204.611 403 205.262 403H206.094C206.2 403 206.286 403.032 206.35 403.096C206.414 403.16 206.446 403.245 206.446 403.352V403.576C206.446 403.683 206.414 403.768 206.35 403.832C206.286 403.896 206.2 403.928 206.094 403.928H205.262C204.696 403.928 204.312 404.083 204.11 404.392C203.918 404.691 203.822 405.123 203.822 405.688V406.52H205.934C206.04 406.52 206.126 406.552 206.19 406.616C206.254 406.68 206.286 406.765 206.286 406.872V407.096C206.286 407.203 206.254 407.288 206.19 407.352C206.126 407.416 206.04 407.448 205.934 407.448H203.822V414.488C203.822 414.595 203.79 414.68 203.726 414.744C203.662 414.808 203.576 414.84 203.47 414.84H203.198Z" fill="white"/>
<path d="M208.101 414.84C207.994 414.84 207.909 414.808 207.845 414.744C207.781 414.68 207.749 414.595 207.749 414.488V406.872C207.749 406.765 207.781 406.68 207.845 406.616C207.909 406.552 207.994 406.52 208.101 406.52H208.373C208.48 406.52 208.565 406.552 208.629 406.616C208.693 406.68 208.725 406.765 208.725 406.872V414.488C208.725 414.595 208.693 414.68 208.629 414.744C208.565 414.808 208.48 414.84 208.373 414.84H208.101ZM208.021 405.32C207.85 405.32 207.765 405.235 207.765 405.064C207.765 404.979 207.792 404.909 207.845 404.856L208.949 403.528C209.034 403.421 209.114 403.347 209.189 403.304C209.264 403.261 209.381 403.24 209.541 403.24H210.197C210.4 403.24 210.501 403.341 210.501 403.544C210.501 403.619 210.474 403.683 210.421 403.736L208.677 405.16C208.592 405.235 208.512 405.283 208.437 405.304C208.373 405.315 208.288 405.32 208.181 405.32H208.021Z" fill="white"/>
<path d="M214.464 415C213.717 415 213.082 414.856 212.56 414.568C212.037 414.269 211.637 413.843 211.36 413.288C211.093 412.733 210.949 412.077 210.928 411.32C210.917 411.16 210.912 410.947 210.912 410.68C210.912 410.413 210.917 410.2 210.928 410.04C210.949 409.272 211.093 408.616 211.36 408.072C211.637 407.517 212.037 407.096 212.56 406.808C213.082 406.509 213.717 406.36 214.464 406.36C215.029 406.36 215.514 406.44 215.92 406.6C216.336 406.749 216.677 406.952 216.944 407.208C217.21 407.453 217.413 407.725 217.552 408.024C217.69 408.323 217.765 408.616 217.776 408.904C217.786 409.011 217.754 409.096 217.68 409.16C217.605 409.224 217.52 409.256 217.424 409.256H217.2C217.093 409.256 217.013 409.235 216.96 409.192C216.917 409.139 216.869 409.048 216.816 408.92C216.592 408.312 216.282 407.891 215.888 407.656C215.504 407.411 215.029 407.288 214.464 407.288C213.738 407.288 213.136 407.512 212.656 407.96C212.186 408.397 211.936 409.117 211.904 410.12C211.882 410.493 211.882 410.867 211.904 411.24C211.936 412.243 212.186 412.968 212.656 413.416C213.136 413.853 213.738 414.072 214.464 414.072C215.029 414.072 215.504 413.955 215.888 413.72C216.282 413.475 216.592 413.048 216.816 412.44C216.869 412.312 216.917 412.227 216.96 412.184C217.013 412.131 217.093 412.104 217.2 412.104H217.424C217.52 412.104 217.605 412.136 217.68 412.2C217.754 412.264 217.786 412.349 217.776 412.456C217.765 412.691 217.717 412.925 217.632 413.16C217.546 413.395 217.413 413.624 217.232 413.848C217.061 414.072 216.848 414.269 216.592 414.44C216.336 414.611 216.026 414.744 215.664 414.84C215.312 414.947 214.912 415 214.464 415Z" fill="white"/>
<path d="M220.242 414.84C220.135 414.84 220.05 414.808 219.986 414.744C219.922 414.68 219.89 414.595 219.89 414.488V406.872C219.89 406.765 219.922 406.68 219.986 406.616C220.05 406.552 220.135 406.52 220.242 406.52H220.514C220.62 406.52 220.706 406.552 220.77 406.616C220.834 406.68 220.866 406.765 220.866 406.872V414.488C220.866 414.595 220.834 414.68 220.77 414.744C220.706 414.808 220.62 414.84 220.514 414.84H220.242ZM220.066 404.808C219.959 404.808 219.874 404.776 219.81 404.712C219.746 404.648 219.714 404.563 219.714 404.456V403.848C219.714 403.741 219.746 403.656 219.81 403.592C219.874 403.517 219.959 403.48 220.066 403.48H220.674C220.78 403.48 220.866 403.517 220.93 403.592C221.004 403.656 221.042 403.741 221.042 403.848V404.456C221.042 404.563 221.004 404.648 220.93 404.712C220.866 404.776 220.78 404.808 220.674 404.808H220.066Z" fill="white"/>
<path d="M226.62 415C225.852 415 225.207 414.84 224.684 414.52C224.172 414.2 223.778 413.763 223.5 413.208C223.234 412.653 223.09 412.035 223.068 411.352C223.058 411.192 223.052 410.968 223.052 410.68C223.052 410.392 223.058 410.168 223.068 410.008C223.09 409.315 223.234 408.696 223.5 408.152C223.778 407.597 224.172 407.16 224.684 406.84C225.207 406.52 225.852 406.36 226.62 406.36C227.388 406.36 228.028 406.52 228.54 406.84C229.063 407.16 229.458 407.597 229.724 408.152C230.002 408.696 230.151 409.315 230.172 410.008C230.183 410.168 230.188 410.392 230.188 410.68C230.188 410.968 230.183 411.192 230.172 411.352C230.151 412.035 230.002 412.653 229.724 413.208C229.458 413.763 229.063 414.2 228.54 414.52C228.028 414.84 227.388 415 226.62 415ZM226.62 414.072C227.367 414.072 227.975 413.832 228.444 413.352C228.914 412.872 229.164 412.179 229.196 411.272C229.207 411.112 229.212 410.915 229.212 410.68C229.212 410.445 229.207 410.248 229.196 410.088C229.164 409.171 228.914 408.477 228.444 408.008C227.975 407.528 227.367 407.288 226.62 407.288C225.874 407.288 225.266 407.528 224.796 408.008C224.327 408.477 224.076 409.171 224.044 410.088C224.034 410.248 224.028 410.445 224.028 410.68C224.028 410.915 224.034 411.112 224.044 411.272C224.076 412.179 224.327 412.872 224.796 413.352C225.266 413.832 225.874 414.072 226.62 414.072Z" fill="white"/>
<path d="M235.014 415C234.459 415 233.979 414.925 233.574 414.776C233.179 414.627 232.854 414.451 232.598 414.248C232.342 414.035 232.15 413.827 232.022 413.624C231.905 413.421 231.841 413.267 231.83 413.16C231.819 413.043 231.857 412.957 231.942 412.904C232.027 412.84 232.107 412.808 232.182 412.808H232.422C232.486 412.808 232.539 412.819 232.582 412.84C232.635 412.861 232.699 412.92 232.774 413.016C232.913 413.197 233.073 413.373 233.254 413.544C233.435 413.704 233.665 413.832 233.942 413.928C234.23 414.024 234.587 414.072 235.014 414.072C235.654 414.072 236.182 413.949 236.598 413.704C237.014 413.459 237.222 413.096 237.222 412.616C237.222 412.317 237.137 412.077 236.966 411.896C236.806 411.715 236.529 411.555 236.134 411.416C235.739 411.277 235.206 411.133 234.534 410.984C233.862 410.824 233.345 410.632 232.982 410.408C232.63 410.184 232.39 409.928 232.262 409.64C232.134 409.341 232.07 409.021 232.07 408.68C232.07 408.307 232.177 407.944 232.39 407.592C232.603 407.229 232.918 406.936 233.334 406.712C233.761 406.477 234.294 406.36 234.934 406.36C235.457 406.36 235.899 406.429 236.262 406.568C236.635 406.707 236.939 406.877 237.174 407.08C237.409 407.272 237.579 407.464 237.686 407.656C237.803 407.848 237.867 408.003 237.878 408.12C237.889 408.227 237.857 408.312 237.782 408.376C237.707 408.44 237.622 408.472 237.526 408.472H237.286C237.201 408.472 237.131 408.456 237.078 408.424C237.025 408.381 236.977 408.328 236.934 408.264C236.827 408.093 236.699 407.933 236.55 407.784C236.401 407.635 236.198 407.517 235.942 407.432C235.697 407.336 235.361 407.288 234.934 407.288C234.294 407.288 233.819 407.421 233.51 407.688C233.201 407.944 233.046 408.275 233.046 408.68C233.046 408.915 233.11 409.123 233.238 409.304C233.366 409.475 233.606 409.635 233.958 409.784C234.31 409.923 234.822 410.072 235.494 410.232C236.177 410.381 236.715 410.568 237.11 410.792C237.505 411.005 237.782 411.261 237.942 411.56C238.113 411.859 238.198 412.211 238.198 412.616C238.198 413.043 238.075 413.437 237.83 413.8C237.595 414.163 237.238 414.456 236.758 414.68C236.289 414.893 235.707 415 235.014 415Z" fill="white"/>
<path d="M173.896 321.34C173.53 321.707 173.324 322.205 173.325 322.723C173.325 323.241 173.532 323.738 173.899 324.104C174.265 324.47 174.763 324.676 175.281 324.675C175.799 324.675 176.296 324.468 176.662 324.101L173.896 321.34ZM182.721 318.035C182.907 317.855 183.056 317.639 183.158 317.401C183.26 317.162 183.314 316.906 183.316 316.647C183.318 316.387 183.269 316.13 183.17 315.89C183.072 315.65 182.927 315.432 182.743 315.249C182.56 315.065 182.342 314.92 182.102 314.822C181.862 314.724 181.604 314.675 181.345 314.677C181.086 314.68 180.829 314.734 180.591 314.836C180.353 314.939 180.137 315.088 179.957 315.274L182.721 318.035ZM192.116 301.897L196.129 305.916L198.893 303.155L194.882 299.136L192.116 301.897ZM185.437 317.993L180.072 312.623L177.311 315.384L182.671 320.749L185.437 317.993ZM194.866 311.768L192.368 312.706L193.743 316.363L196.239 315.425L194.866 311.768ZM185.359 305.66L186.265 303.186L182.596 301.842L181.692 304.314L185.359 305.66ZM180.806 309.854C181.66 309.62 182.572 309.398 183.325 308.856L181.043 305.687C180.991 305.723 180.908 305.775 179.767 306.09L180.806 309.854ZM181.692 304.316C181.285 305.426 181.223 305.509 181.184 305.556L184.158 308.091C184.757 307.385 185.054 306.494 185.359 305.66L181.692 304.316ZM183.325 308.856C183.632 308.634 183.91 308.379 184.158 308.091L181.184 305.556C181.142 305.605 181.095 305.649 181.043 305.687L183.325 308.856ZM192.368 312.711C191.54 313.021 190.654 313.323 189.954 313.928L192.511 316.881C192.558 316.842 192.642 316.782 193.743 316.366L192.368 312.711ZM191.983 318.293C192.295 317.157 192.35 317.069 192.386 317.019L189.211 314.743C188.672 315.496 188.451 316.402 188.216 317.256L191.983 318.293ZM189.954 313.928C189.675 314.169 189.426 314.443 189.211 314.743L192.386 317.019C192.423 316.968 192.464 316.922 192.511 316.881L189.954 313.928ZM180.074 312.628C179.215 311.768 178.694 311.24 178.366 310.831C178.035 310.414 178.168 310.43 178.168 310.672L174.261 310.698C174.268 311.789 174.813 312.641 175.31 313.263C175.805 313.889 176.521 314.597 177.311 315.389L180.074 312.628ZM179.767 306.09C178.691 306.387 177.72 306.65 176.977 306.95C176.238 307.244 175.344 307.713 174.797 308.661L178.183 310.612C178.061 310.823 177.941 310.773 178.433 310.575C178.92 310.38 179.634 310.18 180.804 309.857L179.767 306.09ZM178.168 310.672C178.168 310.651 178.173 310.631 178.183 310.612L174.797 308.661C174.442 309.279 174.257 309.985 174.261 310.698L178.168 310.672ZM182.674 320.757C183.468 321.551 184.182 322.27 184.809 322.773C185.435 323.271 186.294 323.82 187.393 323.823L187.401 319.916C187.646 319.916 187.662 320.046 187.245 319.715C186.831 319.387 186.302 318.858 185.437 317.993L182.674 320.757ZM188.216 317.256C187.893 318.434 187.69 319.158 187.495 319.65C187.294 320.145 187.242 320.02 187.456 319.897L189.391 323.294C190.347 322.747 190.824 321.848 191.121 321.106C191.42 320.359 191.686 319.379 191.983 318.293L188.216 317.256ZM187.393 323.823C188.097 323.823 188.784 323.64 189.391 323.294L187.456 319.897C187.439 319.908 187.42 319.916 187.401 319.916L187.393 323.823ZM196.129 305.916C197.536 307.322 198.432 308.231 198.968 308.953C199.221 309.294 199.32 309.5 199.356 309.609L199.372 309.677V309.685L203.191 310.51C203.524 308.958 202.875 307.663 202.107 306.627C201.359 305.616 200.211 304.475 198.893 303.157L196.129 305.916ZM196.239 315.425C197.984 314.772 199.5 314.209 200.599 313.599C201.727 312.974 202.855 312.063 203.191 310.51L199.372 309.685L199.369 309.692L199.325 309.745C199.139 309.92 198.929 310.068 198.7 310.182C197.919 310.62 196.728 311.068 194.866 311.768L196.239 315.425ZM194.879 299.136C193.553 297.807 192.405 296.654 191.389 295.901C190.35 295.127 189.047 294.474 187.487 294.817L188.328 298.628L188.349 298.631L188.401 298.646C188.64 298.743 188.863 298.875 189.063 299.037C189.787 299.576 190.699 300.48 192.116 301.902L194.879 299.136ZM186.263 303.189C186.956 301.306 187.401 300.105 187.833 299.31C187.956 299.063 188.117 298.837 188.31 298.641L188.323 298.633H188.328L187.487 294.817C185.927 295.161 185.02 296.302 184.401 297.443C183.799 298.552 183.241 300.084 182.596 301.847L186.263 303.189ZM176.662 324.107L182.721 318.035L179.957 315.277L173.896 321.34L176.662 324.107Z" fill="white"/>
<path fill-rule="evenodd" clip-rule="evenodd" d="M186.997 286.907C182.769 286.9 178.614 288.012 174.955 290.129C174.021 290.67 172.826 290.351 172.286 289.417C171.746 288.483 172.065 287.288 172.998 286.748C177.254 284.285 182.085 282.992 187.002 283C202.465 283.001 215 295.536 215 311C215 326.464 202.464 339 187 339C171.536 339 159 326.464 159 311C159 305.905 160.364 301.117 162.748 296.998C163.288 296.064 164.484 295.746 165.417 296.286C166.351 296.827 166.67 298.022 166.129 298.955C164.08 302.494 162.907 306.609 162.907 311C162.907 324.307 173.693 335.093 187 335.093C200.307 335.093 211.093 324.307 211.093 311C211.093 297.693 200.307 286.907 187 286.907L186.997 286.907Z" fill="white"/>
<g clip-path="url(#clip1_418_407)">
<rect x="120" y="705" width="134" height="5" rx="2.5" fill="black"/>
<path opacity="0.35" d="M315.667 35.833H332.333C333.53 35.833 334.5 36.8031 334.5 37.9997V43.9997C334.5 45.1963 333.53 46.1663 332.333 46.1663H315.667C314.47 46.1663 313.5 45.1963 313.5 43.9997V37.9997C313.5 36.8031 314.47 35.833 315.667 35.833Z" stroke="black"/>
<path opacity="0.4" d="M336 38.9995V42.9995C336.805 42.6607 337.328 41.8726 337.328 40.9995C337.328 40.1264 336.805 39.3383 336 38.9995" fill="black"/>
<path d="M315 38.6663C315 37.93 315.597 37.333 316.333 37.333H331.667C332.403 37.333 333 37.93 333 38.6663V43.333C333 44.0694 332.403 44.6663 331.667 44.6663H316.333C315.597 44.6663 315 44.0694 315 43.333V38.6663Z" fill="black"/>
<path fill-rule="evenodd" clip-rule="evenodd" d="M300.33 37.6079C302.546 37.608 304.677 38.4594 306.283 39.9862C306.404 40.1041 306.597 40.1026 306.716 39.9829L307.872 38.8162C307.933 38.7555 307.966 38.6733 307.966 38.5877C307.965 38.5021 307.931 38.4202 307.87 38.3602C303.655 34.3207 297.005 34.3207 292.79 38.3602C292.729 38.4202 292.694 38.502 292.693 38.5876C292.693 38.6732 292.726 38.7555 292.787 38.8162L293.943 39.9829C294.062 40.1028 294.255 40.1043 294.376 39.9862C295.982 38.4593 298.114 37.6079 300.33 37.6079ZM300.33 41.4036C301.547 41.4035 302.721 41.856 303.624 42.6732C303.746 42.7892 303.938 42.7867 304.057 42.6676L305.212 41.5009C305.273 41.4397 305.306 41.3567 305.306 41.2704C305.305 41.1842 305.269 41.1018 305.207 41.0419C302.459 38.4855 298.203 38.4855 295.455 41.0419C295.393 41.1018 295.357 41.1842 295.357 41.2705C295.356 41.3568 295.39 41.4398 295.451 41.5009L296.605 42.6676C296.724 42.7867 296.916 42.7892 297.038 42.6732C297.94 41.8566 299.113 41.4041 300.33 41.4036ZM302.643 43.9574C302.645 44.0439 302.611 44.1273 302.549 44.1879L300.552 46.2036C300.493 46.2628 300.413 46.2961 300.33 46.2961C300.247 46.2961 300.167 46.2628 300.108 46.2036L298.111 44.1879C298.049 44.1272 298.015 44.0438 298.017 43.9573C298.019 43.8708 298.056 43.7889 298.12 43.7309C299.396 42.652 301.264 42.652 302.54 43.7309C302.604 43.7889 302.641 43.8709 302.643 43.9574Z" fill="black"/>
<path fill-rule="evenodd" clip-rule="evenodd" d="M286.666 35.6665H285.666C285.114 35.6665 284.666 36.1142 284.666 36.6665V45.3332C284.666 45.8855 285.114 46.3332 285.666 46.3332H286.666C287.218 46.3332 287.666 45.8855 287.666 45.3332V36.6665C287.666 36.1142 287.218 35.6665 286.666 35.6665ZM280.999 37.9998H281.999C282.552 37.9998 282.999 38.4476 282.999 38.9998V45.3332C282.999 45.8855 282.552 46.3332 281.999 46.3332H280.999C280.447 46.3332 279.999 45.8855 279.999 45.3332V38.9998C279.999 38.4476 280.447 37.9998 280.999 37.9998ZM277.333 40.3332H276.333C275.78 40.3332 275.333 40.7809 275.333 41.3332V45.3332C275.333 45.8855 275.78 46.3332 276.333 46.3332H277.333C277.885 46.3332 278.333 45.8855 278.333 45.3332V41.3332C278.333 40.7809 277.885 40.3332 277.333 40.3332ZM272.666 42.3332H271.666C271.114 42.3332 270.666 42.7809 270.666 43.3332V45.3332C270.666 45.8855 271.114 46.3332 271.666 46.3332H272.666C273.218 46.3332 273.666 45.8855 273.666 45.3332V43.3332C273.666 42.7809 273.218 42.3332 272.666 42.3332Z" fill="black"/>
</g>
<path d="M51.3203 44.2563C54.0083 44.2563 55.605 42.1543 55.605 38.5947C55.605 37.2544 55.3486 36.1265 54.8579 35.2549C54.1475 33.8999 52.9243 33.1675 51.3789 33.1675C49.0791 33.1675 47.4531 34.7129 47.4531 36.8809C47.4531 38.917 48.918 40.3965 50.9321 40.3965C52.1699 40.3965 53.1733 39.8179 53.6714 38.8145H53.6934C53.6934 38.8145 53.7227 38.8145 53.73 38.8145C53.7446 38.8145 53.7959 38.8145 53.7959 38.8145C53.7959 41.2314 52.8804 42.6743 51.335 42.6743C50.4268 42.6743 49.7236 42.1763 49.4819 41.3779H47.5996C47.9146 43.1138 49.3867 44.2563 51.3203 44.2563ZM51.3862 38.895C50.1704 38.895 49.3062 38.0308 49.3062 36.8223C49.3062 35.6431 50.2144 34.7422 51.3936 34.7422C52.5728 34.7422 53.481 35.6577 53.481 36.8516C53.481 38.0308 52.5947 38.895 51.3862 38.895Z" fill="black"/>
<path d="M58.6961 44.1538C59.3919 44.1538 59.868 43.6558 59.868 42.9966C59.868 42.3301 59.3919 41.8394 58.6961 41.8394C58.0076 41.8394 57.5242 42.3301 57.5242 42.9966C57.5242 43.6558 58.0076 44.1538 58.6961 44.1538ZM58.6961 38.6606C59.3919 38.6606 59.868 38.1699 59.868 37.5107C59.868 36.8442 59.3919 36.3535 58.6961 36.3535C58.0076 36.3535 57.5242 36.8442 57.5242 37.5107C57.5242 38.1699 58.0076 38.6606 58.6961 38.6606Z" fill="black"/>
<path d="M66.7237 44H68.5328V42.0298H69.961V40.4331H68.5328V33.4312H65.8668C63.9991 36.2437 62.5123 38.5947 61.5602 40.3452V42.0298H66.7237V44ZM63.3106 40.3672C64.5411 38.1992 65.6397 36.4634 66.6505 34.9692H66.753V40.4771H63.3106V40.3672Z" fill="black"/>
<path d="M73.9896 44H75.8793V33.4312H73.997L71.2357 35.3647V37.1812L73.8651 35.3354H73.9896V44Z" fill="black"/>
</g>
<path fill-rule="evenodd" clip-rule="evenodd" d="M309.429 0H56.5714C26.748 0 2.57143 24.1766 2.57143 54L2.57143 98.5714C1.15127 98.5714 0 99.7227 0 101.143V123.429C0 124.849 1.15127 126 2.57143 126V151.714C1.15127 151.714 0 152.866 0 154.286V202.286C0 203.706 1.15127 204.857 2.57143 204.857V218.571C1.15127 218.571 0 219.723 0 221.143V269.143C0 270.563 1.15127 271.714 2.57143 271.714L2.57143 681.429C2.57143 711.252 26.748 735.429 56.5714 735.429H309.429C339.252 735.429 363.429 711.252 363.429 681.429L363.429 254.571C364.849 254.571 366 253.42 366 252V171.429C366 170.008 364.849 168.857 363.429 168.857L363.429 54C363.429 24.1766 339.252 0 309.429 0ZM6.85714 54C6.85714 26.5436 29.115 4.28571 56.5714 4.28571H309.429C336.885 4.28571 359.143 26.5436 359.143 54V681.429C359.143 708.885 336.885 731.143 309.429 731.143H56.5714C29.115 731.143 6.85714 708.885 6.85714 681.429V54Z" fill="#4F4F4F"/>
<path fill-rule="evenodd" clip-rule="evenodd" d="M343.715 53.9999C343.715 35.0571 328.372 19.7142 309.429 19.7142H279C275.213 19.7142 272.143 22.7843 272.143 26.5714V27.4285C272.143 37.8857 263.743 46.2856 253.286 46.2856H112.715C102.257 46.2856 93.8574 37.8857 93.8574 27.4285V26.5714C93.8574 22.7843 90.7874 19.7142 87.0003 19.7142H56.5717C37.6288 19.7142 22.286 35.0571 22.286 53.9999V681.428C22.286 700.371 37.6288 715.714 56.5717 715.714H309.429C328.372 715.714 343.715 700.371 343.715 681.428V53.9999ZM56.5717 4.28564H309.429C336.857 4.28564 359.143 26.5714 359.143 53.9999V681.428C359.143 708.857 336.857 731.143 309.429 731.143H56.5717C29.1431 731.143 6.85742 708.857 6.85742 681.428V53.9999C6.85742 26.5714 29.1431 4.28564 56.5717 4.28564Z" fill="#DADADA"/>
<path d="M227.571 27.4287C227.571 30.7424 224.885 33.4287 221.571 33.4287C218.257 33.4287 215.571 30.7424 215.571 27.4287C215.571 24.115 218.257 21.4287 221.571 21.4287C224.885 21.4287 227.571 24.115 227.571 27.4287Z" fill="#4F4F4F"/>
<path d="M163.714 24.8573C162.294 24.8573 161.143 26.0085 161.143 27.4287C161.143 28.8489 162.294 30.0001 163.714 30.0001H201.428C202.848 30.0001 204 28.8489 204 27.4287C204 26.0085 202.848 24.8573 201.428 24.8573H163.714Z" fill="#4F4F4F"/>
<defs>
<clipPath id="clip0_418_407">
<path d="M21 37C21 25.9543 29.9543 17 41 17H332C343.046 17 352 25.9543 352 37V697C352 708.046 343.046 717 332 717H41C29.9543 717 21 708.046 21 697V37Z" fill="white"/>
</clipPath>
<clipPath id="clip1_418_407">
<rect x="21" y="18" width="331" height="700" rx="30" fill="white"/>
</clipPath>
</defs>
</svg>
