<svg width="400" height="400" viewBox="0 0 400 400" fill="none" xmlns="http://www.w3.org/2000/svg">
<path d="M200.001 381.376C298.706 381.376 378.721 337.862 378.721 284.184C378.721 230.507 298.706 186.992 200.001 186.992C101.297 186.992 21.2812 230.507 21.2812 284.184C21.2812 337.862 101.297 381.376 200.001 381.376Z" fill="#F5F5F5"/>
<path d="M199.998 279.096C214.87 279.096 226.926 272.133 226.926 263.544C226.926 254.955 214.87 247.992 199.998 247.992C185.126 247.992 173.07 254.955 173.07 263.544C173.07 272.133 185.126 279.096 199.998 279.096Z" fill="#E0E0E0"/>
<path d="M300.427 320.656C323.937 320.656 342.995 309.653 342.995 296.08C342.995 282.507 323.937 271.504 300.427 271.504C276.918 271.504 257.859 282.507 257.859 296.08C257.859 309.653 276.918 320.656 300.427 320.656Z" fill="#E0E0E0"/>
<path d="M91.5367 323.312C115.046 323.312 134.105 312.309 134.105 298.736C134.105 285.163 115.046 274.16 91.5367 274.16C68.0271 274.16 48.9688 285.163 48.9688 298.736C48.9688 312.309 68.0271 323.312 91.5367 323.312Z" fill="#E0E0E0"/>
<path d="M364.003 278.615L355.963 275.328C354.953 268.378 354.37 261.373 354.219 254.352C354.219 241.216 362.403 225.151 372.787 227.839C383.171 230.527 369.859 245.224 367.699 256.576C365.539 267.928 364.003 278.615 364.003 278.615Z" fill="#DAA520"/>
<path opacity="0.3" d="M364.003 278.615L355.963 275.328C354.953 268.378 354.37 261.373 354.219 254.352C354.219 241.216 362.403 225.151 372.787 227.839C383.171 230.527 369.859 245.224 367.699 256.576C365.539 267.928 364.003 278.615 364.003 278.615Z" fill="black"/>
<path d="M360.105 277.599C360.193 277.587 360.273 277.541 360.327 277.471C360.381 277.4 360.405 277.311 360.393 277.223C356.561 248.423 369.513 232.423 369.641 232.287C369.699 232.218 369.726 232.13 369.718 232.04C369.71 231.951 369.666 231.869 369.597 231.811C369.528 231.754 369.439 231.727 369.35 231.735C369.261 231.743 369.179 231.786 369.121 231.855C368.993 232.015 355.849 248.207 359.721 277.311C359.727 277.356 359.742 277.398 359.764 277.437C359.787 277.476 359.817 277.509 359.853 277.536C359.889 277.563 359.929 277.582 359.973 277.593C360.016 277.604 360.061 277.606 360.105 277.599Z" fill="white"/>
<path d="M368.129 280.535L363.929 278.631C362.672 272.16 362.863 265.491 364.489 259.103C367.185 248.751 376.161 242.367 380.681 243.423C386.209 244.711 386.745 249.823 385.129 253.383C383.201 257.599 369.905 269.015 368.129 280.535Z" fill="#DAA520"/>
<path opacity="0.1" d="M368.129 280.535L363.929 278.631C362.672 272.16 362.863 265.491 364.489 259.103C367.185 248.751 376.161 242.367 380.681 243.423C386.209 244.711 386.745 249.823 385.129 253.383C383.201 257.599 369.905 269.015 368.129 280.535Z" fill="black"/>
<path d="M365.948 279.872C366.038 279.862 366.12 279.817 366.177 279.746C366.234 279.676 366.261 279.586 366.252 279.496C364.364 261.224 380.308 247.176 380.476 247.04C380.536 246.975 380.57 246.889 380.57 246.8C380.57 246.711 380.536 246.625 380.476 246.56C380.444 246.528 380.407 246.503 380.366 246.485C380.325 246.468 380.28 246.459 380.236 246.459C380.191 246.459 380.147 246.468 380.105 246.485C380.064 246.503 380.027 246.528 379.996 246.56C379.828 246.704 363.628 260.96 365.54 279.6C365.559 279.689 365.612 279.768 365.688 279.819C365.765 279.869 365.858 279.888 365.948 279.872Z" fill="white"/>
<path d="M44.7976 271.256L50.3176 268.104C50.3176 268.104 52.9576 253.536 50.9816 241.008C48.1976 223.408 36.2056 217.32 31.8536 219.072C27.5016 220.824 26.4776 226.04 34.3416 236.216C38.9816 242.216 44.9496 254.912 44.7976 271.256Z" fill="#DAA520"/>
<g opacity="0.15">
<path d="M44.7976 271.256L50.3176 268.104C50.3176 268.104 52.9576 253.536 50.9816 241.008C48.1976 223.408 36.2056 217.32 31.8536 219.072C27.5016 220.824 26.4776 226.04 34.3416 236.216C38.9816 242.216 44.9496 254.912 44.7976 271.256Z" fill="black"/>
</g>
<path d="M46.8017 264.264H46.7457C46.695 264.257 46.6462 264.24 46.6022 264.214C46.5582 264.188 46.5197 264.154 46.4892 264.113C46.4586 264.072 46.4366 264.025 46.4243 263.975C46.412 263.926 46.4098 263.874 46.4177 263.824C48.6897 247.336 42.0657 229.272 34.6097 221.992C34.5634 221.958 34.5249 221.915 34.4968 221.865C34.4687 221.815 34.4516 221.76 34.4468 221.702C34.4419 221.645 34.4494 221.588 34.4686 221.534C34.4879 221.48 34.5185 221.431 34.5585 221.39C34.5984 221.349 34.6467 221.317 34.7 221.296C34.7534 221.275 34.8106 221.266 34.8678 221.269C34.925 221.272 34.9809 221.288 35.0315 221.315C35.0822 221.341 35.1266 221.378 35.1617 221.424C42.7457 228.8 49.5057 247.2 47.2017 263.92C47.1881 264.016 47.14 264.104 47.0664 264.167C46.9928 264.23 46.8987 264.265 46.8017 264.264Z" fill="white"/>
<path d="M29.5042 280.095C28.6322 280.591 26.8402 279.503 26.1522 279.039C24.972 278.226 24.0193 277.124 23.3842 275.839C22.6749 274.389 22.4345 272.753 22.6962 271.16C22.8346 270.317 23.0325 269.486 23.2882 268.671L23.9842 266.271C24.2584 265.502 24.378 264.687 24.3362 263.871C24.1282 262.215 22.6562 261.063 21.3282 260.063C19.8482 258.959 18.3202 257.504 18.3282 255.512C18.4314 253.968 19.0481 252.504 20.0802 251.351C21.0242 250.143 22.1522 249.08 23.0162 247.808C23.6934 246.915 24.041 245.815 24.0002 244.695C23.9085 244.014 23.6799 243.358 23.3282 242.767C22.5188 241.537 21.8124 240.242 21.2162 238.895C20.7282 237.503 20.8002 235.775 21.8882 234.775C22.3723 234.414 22.9239 234.152 23.5106 234.007C24.0972 233.861 24.707 233.834 25.3042 233.927C26.4401 234.061 27.5326 234.444 28.5042 235.047C31.6642 236.799 33.4642 240.543 36.8162 241.895C38.1433 242.309 39.4953 242.638 40.8642 242.879C41.5512 243.007 42.2038 243.277 42.7799 243.673C43.3559 244.068 43.8425 244.58 44.2082 245.175C45.4402 247.631 43.1602 250.655 44.0242 253.263C44.8242 255.567 47.0322 256.464 48.2882 258.536C48.803 259.452 49.0105 260.509 48.8802 261.551C48.7685 263.316 48.3375 265.045 47.6082 266.655C46.7875 268.256 45.8489 269.794 44.8002 271.255C44.7522 271.311 29.6402 279.999 29.5042 280.095Z" fill="#DAA520"/>
<path d="M38.4597 275.328C38.4072 275.326 38.3555 275.313 38.3078 275.291C38.26 275.269 38.2171 275.238 38.1814 275.199C38.1458 275.161 38.1181 275.115 38.0999 275.066C38.0818 275.017 38.0736 274.964 38.0757 274.912C38.7237 259.312 31.3717 242.112 26.0277 237.072C25.9549 236.998 25.9141 236.899 25.9141 236.796C25.9141 236.692 25.9549 236.593 26.0277 236.52C26.1025 236.446 26.203 236.405 26.3077 236.405C26.4124 236.405 26.5129 236.446 26.5877 236.52C32.0037 241.6 39.5157 259.12 38.8517 274.952C38.8476 275.053 38.8044 275.148 38.7314 275.219C38.6583 275.289 38.5609 275.328 38.4597 275.328Z" fill="white"/>
<path d="M36.1213 256.888H36.0012C32.3049 255.871 28.5095 255.257 24.6813 255.056C24.5752 255.056 24.4734 255.014 24.3984 254.939C24.3234 254.864 24.2812 254.762 24.2812 254.656C24.2812 254.55 24.3234 254.448 24.3984 254.373C24.4734 254.298 24.5752 254.256 24.6813 254.256C28.5774 254.458 32.44 255.083 36.2012 256.12C36.2507 256.135 36.2967 256.159 36.3367 256.191C36.3767 256.224 36.4099 256.264 36.4344 256.309C36.459 256.354 36.4743 256.404 36.4796 256.455C36.4849 256.507 36.48 256.558 36.4653 256.608C36.4419 256.683 36.3968 256.75 36.3356 256.8C36.2744 256.85 36.1998 256.88 36.1213 256.888Z" fill="white"/>
<path d="M321.462 291.008L314.006 290.152L312.078 275.128L321.19 277.832L321.462 291.008Z" fill="#B16668"/>
<path d="M305.128 303.263C305.02 303.56 304.976 303.875 304.998 304.189C305.02 304.503 305.108 304.809 305.256 305.087C306.056 306.015 308.12 307.103 310.936 307.303C313.632 307.495 316.032 307.135 317.608 306.135C318.293 305.781 318.88 305.263 319.315 304.626C319.751 303.989 320.022 303.255 320.104 302.487C320.256 300.959 320.104 299.479 320.816 298.303C321.528 297.127 322.56 295.983 322.792 295.391C323.069 294.37 323.069 293.293 322.792 292.271L305.128 303.263Z" fill="#263238"/>
<path d="M312.497 289.888C312.473 290.468 312.368 291.041 312.185 291.592C311.773 292.777 311.22 293.907 310.537 294.96C310.202 295.519 309.828 296.054 309.417 296.56C308.617 297.528 307.593 298.328 306.729 299.256C305.813 300.131 305.225 301.295 305.065 302.552C304.953 304.664 308.313 305.384 310.081 305.696C311.988 306.029 313.945 305.931 315.809 305.408C316.788 305.153 317.672 304.621 318.356 303.876C319.04 303.131 319.495 302.205 319.665 301.208C319.769 300.616 319.729 300.016 319.801 299.432C320.034 298.083 320.598 296.813 321.441 295.736C321.931 295.114 322.352 294.441 322.697 293.728C323.249 292.424 322.809 290.952 322.457 289.656C322.153 288.528 321.785 287.256 321.385 287.344C321.385 287.928 321.385 288.008 320.993 288.4C320.601 288.792 320.449 289.656 319.889 290.096C320.068 289.608 320.199 289.105 320.281 288.592C320.316 288.386 320.273 288.176 320.161 288C319.976 287.834 319.754 287.713 319.513 287.648C318.681 287.37 317.824 287.174 316.953 287.064C315.765 286.928 314.565 286.928 313.377 287.064C313.13 287.108 312.906 287.238 312.745 287.432C312.601 287.645 312.523 287.895 312.521 288.152C312.481 288.456 312.513 289.328 312.497 289.888Z" fill="#455A64"/>
<path d="M310.244 295.407C311.044 294.815 313.868 294.807 314.828 294.911C315.806 294.995 316.748 295.325 317.564 295.871C317.683 295.956 317.829 295.996 317.975 295.985C318.122 295.973 318.259 295.91 318.364 295.807C318.424 295.747 318.471 295.675 318.501 295.595C318.531 295.515 318.544 295.429 318.538 295.344C318.532 295.259 318.507 295.177 318.466 295.102C318.425 295.027 318.368 294.962 318.3 294.911C317.403 294.249 316.339 293.853 315.228 293.767C313.842 293.666 312.449 293.746 311.084 294.007C311.084 294.007 310.012 294.703 310.244 295.407Z" fill="#F5F5F5"/>
<path d="M308.438 297.6C309.43 297.016 312.438 297.096 313.406 297.2C314.365 297.298 315.281 297.649 316.061 298.216C316.182 298.3 316.327 298.339 316.473 298.327C316.619 298.316 316.756 298.254 316.861 298.152C316.922 298.092 316.969 298.019 316.999 297.94C317.029 297.86 317.041 297.774 317.035 297.689C317.029 297.604 317.005 297.521 316.964 297.447C316.923 297.372 316.866 297.307 316.798 297.256C315.485 296.576 314.053 296.158 312.582 296.024C310.182 295.856 309.598 296.336 309.598 296.336C309.322 296.447 309.075 296.618 308.874 296.837C308.674 297.055 308.524 297.316 308.438 297.6Z" fill="#F5F5F5"/>
<path d="M316.174 291.503C314.82 291.348 313.45 291.432 312.126 291.751C311.71 291.983 311.43 292.647 311.702 292.815C312.91 292.489 314.164 292.365 315.414 292.447C316.3 292.536 317.166 292.774 317.974 293.151C318.182 293.247 318.422 293.367 318.63 293.487C318.696 293.53 318.772 293.557 318.85 293.568C318.929 293.579 319.009 293.573 319.084 293.55C319.16 293.527 319.23 293.488 319.29 293.436C319.35 293.384 319.397 293.319 319.43 293.247C319.487 293.129 319.498 292.994 319.461 292.869C319.424 292.743 319.341 292.635 319.23 292.567C318.299 291.998 317.257 291.635 316.174 291.503Z" fill="#F5F5F5"/>
<path d="M293.666 284.175L286.578 282.199V267.871L295.37 268.255L293.666 284.175Z" fill="#B16668"/>
<path d="M271.596 291.847C271.396 292.465 271.433 293.135 271.7 293.727C271.964 294.271 274.836 295.895 278.708 295.631C281.576 295.425 284.337 294.459 286.708 292.831C288.18 291.855 289.716 291.671 291.636 291.567C293.556 291.463 296.068 290.495 296.492 289.599C296.708 288.797 296.685 287.949 296.428 287.159L271.596 291.847Z" fill="#263238"/>
<path d="M287.199 279.767L286.895 279.703C286.727 279.663 286.552 279.663 286.383 279.703C286.197 279.764 286.031 279.875 285.903 280.023C285.525 280.51 285.196 281.033 284.919 281.583C284.119 282.903 282.399 283.983 280.543 284.999C279.279 285.679 278.039 286.207 276.735 286.791C275.431 287.375 273.631 287.759 272.591 288.463C271.071 289.487 270.871 292.055 272.591 293.071C274.079 293.951 278.015 294.903 282.135 293.735C284.375 293.095 286.871 290.703 289.815 290.471C291.687 290.319 295.231 289.799 296.439 288.375C296.887 287.743 296.287 285.743 295.799 284.015C295.263 282.127 294.759 279.215 294.135 279.351C294.141 279.486 294.114 279.621 294.056 279.743C293.999 279.865 293.914 279.973 293.807 280.055C293.575 280.295 293.263 280.447 293.007 280.663C292.57 281.093 292.218 281.6 291.967 282.159C291.865 282.408 291.678 282.612 291.439 282.735C291.119 282.847 290.887 282.655 290.639 282.527C290.288 282.366 289.89 282.338 289.519 282.447C289.558 282.072 289.625 281.7 289.719 281.335C289.755 281.221 289.755 281.098 289.719 280.983C289.674 280.867 289.589 280.771 289.479 280.711C288.794 280.241 288.017 279.919 287.199 279.767Z" fill="#455A64"/>
<path d="M282.32 283.951C282.454 283.692 282.651 283.471 282.893 283.309C283.135 283.147 283.414 283.048 283.704 283.023C284.552 282.863 286.056 283.495 286.992 284.263C287.082 284.334 287.152 284.426 287.197 284.531C287.242 284.636 287.261 284.751 287.252 284.865C287.242 284.978 287.205 285.088 287.143 285.184C287.081 285.28 286.996 285.359 286.896 285.415C286.771 285.486 286.626 285.516 286.482 285.5C286.339 285.484 286.204 285.424 286.096 285.327C285.064 284.396 283.71 283.903 282.32 283.951Z" fill="#F5F5F5"/>
<path d="M279.672 285.431C279.857 285.169 280.103 284.955 280.389 284.807C280.674 284.66 280.991 284.583 281.312 284.583C282.627 284.641 283.89 285.114 284.92 285.935C285.004 286.005 285.07 286.095 285.112 286.196C285.155 286.297 285.172 286.407 285.162 286.516C285.153 286.625 285.117 286.731 285.058 286.823C284.999 286.915 284.919 286.992 284.824 287.047C284.699 287.122 284.554 287.154 284.409 287.138C284.265 287.122 284.129 287.059 284.024 286.959C283.458 286.396 282.774 285.967 282.021 285.703C281.268 285.439 280.465 285.346 279.672 285.431Z" fill="#F5F5F5"/>
<path d="M276.797 286.759C277.008 286.518 277.269 286.325 277.562 286.193C277.854 286.062 278.172 285.996 278.493 285.999C279.759 286.077 280.969 286.553 281.949 287.359C282.033 287.43 282.099 287.52 282.141 287.622C282.183 287.724 282.2 287.834 282.191 287.944C282.182 288.054 282.146 288.16 282.087 288.253C282.028 288.346 281.948 288.424 281.853 288.479C281.728 288.554 281.583 288.586 281.438 288.57C281.293 288.554 281.158 288.491 281.053 288.391C280.518 287.808 279.855 287.358 279.117 287.075C278.378 286.791 277.584 286.683 276.797 286.759Z" fill="#F5F5F5"/>
<path d="M319.832 190.695C320.32 205.471 320.351 237.471 320.351 237.471C320.503 239.311 320.663 242.575 320.799 249.199C320.999 258.799 321.463 282.503 321.463 282.503C321.463 282.503 316.879 284.655 312.663 282.903C312.663 282.903 306.808 249.575 305.608 240.071C304.56 231.775 302.552 212.319 302.552 212.319L299.784 237.015C299.784 237.015 299.784 243.415 299.408 249.063C299.096 253.463 294.823 276.127 294.823 276.127C292.033 276.869 289.087 276.771 286.351 275.847C286.351 275.847 285.967 241.055 285.887 237.015C285.799 232.423 286.984 182.775 286.984 182.775L319.832 190.695Z" fill="#455A64"/>
<path d="M302.568 212.319L301.512 203.943C298.102 203.071 294.877 201.592 291.992 199.575C291.992 199.575 294.024 202.295 299.992 205.175L301.336 212.775L299.816 237.015L302.568 212.319Z" fill="#37474F"/>
<path d="M286.607 149.231C284.447 152.063 273.335 167.311 273.335 167.311L263.071 159.359C260.671 157.479 259.959 155.015 258.455 153.311C256.951 151.607 255.303 151.199 253.615 149.775C251.927 148.351 251.279 147.271 250.703 148.487C250.127 149.703 251.991 151.823 252.303 152.335C252.615 152.847 254.543 154.071 251.999 153.935C249.455 153.799 244.559 150.895 243.375 150.359C242.191 149.823 242.159 151.287 242.719 152.247C243.279 153.207 242.999 155.879 243.655 157.599C244.311 159.319 245.463 160.375 247.807 161.535C249.991 162.623 255.303 163.303 257.031 164.391C260.823 168.279 267.975 175.535 269.783 176.879C272.271 178.727 274.679 180.431 278.487 176.767C282.295 173.103 293.327 158.727 293.327 158.727L295.607 145.055C291.863 144.919 289.215 145.815 286.607 149.231Z" fill="#B16668"/>
<path d="M273.336 167.311C274.744 168.351 276.208 170.687 276.344 171.735C276.327 170.742 276.106 169.763 275.693 168.86C275.28 167.957 274.684 167.149 273.944 166.487L273.336 167.311Z" fill="#9A4A4D"/>
<path d="M296.484 144.719C296.484 144.719 291.204 144.655 288.884 146.279C286.564 147.903 284.844 150.279 281.076 155.759C277.772 160.559 276.172 162.863 276.172 162.863C278.335 166.062 281.484 168.467 285.14 169.711L294.996 157.503L296.484 144.719Z" fill="#37474F"/>
<path d="M306.704 144.463C309.696 144.751 313.904 144.783 316.864 145.087C318.92 145.935 322.888 149.391 322.592 151.855C321.488 161.063 319.256 176.159 319.256 176.159L319.992 192.159C315.872 196.271 296.592 197.879 286.656 191.303C286.656 191.303 286.976 162.567 287.664 157.703C288.888 148.991 289.96 145.759 294.456 144.991C298.952 144.223 306.704 144.463 306.704 144.463Z" fill="#2067DA"/>
<path d="M323.648 149.463C325.808 152.295 336.928 167.543 336.928 167.543L347.2 159.591C349.6 157.703 350.312 155.239 351.816 153.543C353.32 151.847 354.968 151.431 356.656 150.007C358.344 148.583 358.992 147.503 359.568 148.711C360.144 149.919 358.28 152.055 357.968 152.567C357.656 153.079 355.728 154.303 358.272 154.167C360.816 154.031 365.704 151.119 366.896 150.583C368.088 150.047 368.104 151.511 367.552 152.471C367 153.431 367.264 156.111 366.616 157.831C365.968 159.551 364.808 160.599 362.464 161.767C360.28 162.855 354.968 163.535 353.24 164.623C349.448 168.503 342.296 175.767 340.488 177.103C338 178.951 335.592 180.655 331.784 176.999C327.976 173.343 319.272 161.959 319.272 161.959L314.664 145.287C318.4 145.151 321.048 146.047 323.648 149.463Z" fill="#B16668"/>
<path d="M336.93 167.544C335.522 168.584 334.058 170.92 333.922 171.968C333.937 170.974 334.158 169.993 334.572 169.089C334.985 168.184 335.581 167.375 336.322 166.712L336.93 167.544Z" fill="#9A4A4D"/>
<path d="M314.135 144.888C314.135 144.888 318.879 144.592 321.375 146.488C323.623 148.216 325.375 150.488 329.183 155.968C332.487 160.768 334.087 163.072 334.087 163.072C331.919 166.27 328.768 168.674 325.111 169.92L318.399 161.648C314.903 157.216 311.439 150.472 314.135 144.888Z" fill="#37474F"/>
<path d="M307.45 122.8C307.466 124.635 306.937 126.434 305.931 127.969C304.924 129.504 303.485 130.705 301.796 131.422C300.106 132.139 298.242 132.339 296.439 131.997C294.636 131.654 292.974 130.784 291.665 129.498C290.357 128.211 289.458 126.565 289.085 124.769C288.711 122.972 288.879 121.104 289.567 119.403C290.254 117.701 291.431 116.241 292.948 115.208C294.466 114.176 296.255 113.616 298.09 113.6C299.309 113.589 300.518 113.819 301.648 114.276C302.778 114.732 303.807 115.407 304.676 116.261C305.545 117.116 306.237 118.133 306.713 119.255C307.189 120.377 307.44 121.581 307.45 122.8Z" fill="#263238"/>
<path d="M314.27 129.344C314.27 129.344 312.822 136.424 312.23 137.584C311.836 138.304 311.18 138.845 310.398 139.096L310.454 134.12L314.27 129.344Z" fill="#263238"/>
<path d="M312.294 119.239C312.818 119.172 313.351 119.225 313.852 119.396C314.352 119.567 314.807 119.85 315.182 120.223C316.43 121.479 315.774 125.447 314.27 129.343L311.438 129.695L312.294 119.239Z" fill="#263238"/>
<path d="M310.587 129.704C311.155 130.04 311.955 128.904 312.651 128.2C313.347 127.496 315.619 126.44 316.787 128.832C317.955 131.224 315.827 134.528 314.035 135.104C310.939 136.112 310.451 134.12 310.451 134.12L310.323 145.656C306.515 150.64 295.803 150.312 300.219 145.112V141.704C298.84 141.935 297.44 142.018 296.043 141.952C293.755 141.624 292.307 139.832 291.587 137.368C290.443 133.416 289.987 130.216 290.867 122.4C291.827 113.84 301.771 113.664 307.171 117C312.571 120.336 310.587 129.704 310.587 129.704Z" fill="#B16668"/>
<path d="M310.603 130.655C310.883 130.655 311.955 128.847 312.659 128.199C313.627 127.295 312.299 119.239 312.299 119.239C312.631 118.525 312.74 117.726 312.612 116.948C312.483 116.171 312.123 115.45 311.579 114.879C310.227 113.415 308.339 111.631 302.259 112.399C297.915 112.951 293.203 114.351 289.371 112.511C289.03 113.759 289.068 115.08 289.482 116.305C289.895 117.531 290.664 118.605 291.691 119.391C291.691 119.391 293.083 120.271 296.723 120.679C300.079 120.9 303.448 120.807 306.787 120.399C307.843 120.247 308.075 121.263 308.667 124.055C309.187 126.495 309.643 130.647 310.603 130.655Z" fill="#263238"/>
<path d="M312.295 119.863L315.711 117.991C315.6 117.76 315.444 117.554 315.25 117.385C315.057 117.217 314.832 117.089 314.588 117.011C314.344 116.932 314.086 116.904 313.831 116.928C313.576 116.952 313.328 117.028 313.103 117.151C312.646 117.413 312.306 117.84 312.156 118.345C312.005 118.85 312.055 119.394 312.295 119.863Z" fill="#263238"/>
<path d="M300.195 141.704C300.195 141.704 305.283 140.632 307.051 139.672C308.094 139.118 308.944 138.262 309.491 137.216C309.233 138.258 308.768 139.237 308.123 140.096C306.835 141.776 300.211 143.056 300.211 143.056L300.195 141.704Z" fill="#9A4A4D"/>
<path d="M299.789 128.888C299.787 129.024 299.812 129.159 299.862 129.286C299.913 129.412 299.988 129.528 300.083 129.625C300.178 129.723 300.292 129.8 300.417 129.853C300.542 129.907 300.677 129.935 300.813 129.936C301.026 129.944 301.236 129.888 301.416 129.775C301.597 129.663 301.74 129.498 301.826 129.304C301.912 129.109 301.938 128.893 301.9 128.684C301.862 128.474 301.763 128.281 301.614 128.129C301.465 127.977 301.274 127.873 301.066 127.83C300.858 127.788 300.641 127.808 300.445 127.89C300.248 127.972 300.081 128.111 299.964 128.288C299.847 128.466 299.786 128.675 299.789 128.888Z" fill="#263238"/>
<path d="M302.822 125.376L300.55 124.344C300.418 124.654 300.411 125.004 300.53 125.32C300.649 125.636 300.885 125.894 301.19 126.04C301.34 126.106 301.502 126.142 301.667 126.145C301.831 126.147 301.995 126.116 302.147 126.054C302.299 125.992 302.437 125.9 302.553 125.784C302.669 125.667 302.761 125.528 302.822 125.376Z" fill="#263238"/>
<path d="M293.101 124.119L291.125 125.671C291.218 125.806 291.338 125.92 291.478 126.006C291.617 126.092 291.773 126.148 291.935 126.172C292.097 126.195 292.262 126.184 292.42 126.141C292.578 126.098 292.726 126.022 292.853 125.919C293.115 125.707 293.287 125.403 293.333 125.068C293.379 124.734 293.296 124.395 293.101 124.119Z" fill="#263238"/>
<path d="M291.915 128.639C291.924 128.83 291.989 129.014 292.102 129.169C292.216 129.323 292.372 129.44 292.551 129.507C292.73 129.573 292.925 129.585 293.112 129.542C293.298 129.498 293.467 129.401 293.599 129.262C293.73 129.123 293.818 128.948 293.851 128.76C293.884 128.571 293.861 128.377 293.784 128.202C293.708 128.027 293.582 127.877 293.422 127.773C293.261 127.669 293.074 127.614 292.883 127.615C292.752 127.618 292.623 127.647 292.503 127.701C292.383 127.754 292.275 127.83 292.185 127.926C292.095 128.021 292.025 128.133 291.978 128.255C291.932 128.378 291.91 128.508 291.915 128.639Z" fill="#263238"/>
<path d="M297.205 127.815L296.629 133.935L293.469 132.719L297.205 127.815Z" fill="#9A4A4D"/>
<path d="M298.945 136.232C298.944 136.427 299 136.618 299.107 136.781C299.214 136.944 299.368 137.071 299.547 137.147C299.727 137.222 299.925 137.243 300.116 137.206C300.308 137.169 300.484 137.076 300.622 136.938C300.761 136.801 300.855 136.626 300.894 136.435C300.932 136.244 300.913 136.045 300.839 135.865C300.765 135.685 300.639 135.531 300.477 135.422C300.315 135.314 300.124 135.256 299.929 135.256C299.67 135.256 299.421 135.358 299.236 135.541C299.052 135.724 298.947 135.972 298.945 136.232Z" fill="#9A4A4D"/>
<path d="M323.916 71.0556C325.441 71.3954 326.911 71.9474 328.284 72.6956C329.596 73.402 330.772 74.3366 331.756 75.4556C332.702 76.5398 333.401 77.8175 333.804 79.1996C334.225 80.6647 334.258 82.214 333.9 83.6956C333.663 84.8718 333.195 85.9893 332.524 86.9836C331.92 87.8391 331.195 88.6018 330.372 89.2476C329.565 89.8733 328.706 90.4274 327.804 90.9036L325.26 92.2476C324.492 92.6484 323.764 93.1198 323.084 93.6556C322.469 94.1218 321.998 94.751 321.724 95.4716C321.586 95.793 321.361 96.0698 321.076 96.2716C320.939 96.3764 320.78 96.4488 320.611 96.4835C320.442 96.5181 320.267 96.5141 320.1 96.4716L316.356 95.6716C316.176 95.6337 316.006 95.5605 315.855 95.4561C315.703 95.3517 315.575 95.2183 315.476 95.0636C315.371 94.9188 315.302 94.7513 315.274 94.5748C315.246 94.3983 315.261 94.2176 315.316 94.0476C315.627 92.8839 316.172 91.7953 316.916 90.8476C317.586 90.0113 318.36 89.2639 319.22 88.6236C320.05 88.0162 320.93 87.4809 321.852 87.0236C322.764 86.5676 323.612 86.1276 324.396 85.6956C325.113 85.3169 325.786 84.8609 326.404 84.3356C326.942 83.882 327.316 83.2634 327.468 82.5756C327.606 81.975 327.597 81.3498 327.441 80.7535C327.285 80.1572 326.986 79.6076 326.572 79.1516C325.537 78.0212 324.155 77.2693 322.644 77.0156C319.849 76.3916 317.486 77.333 315.556 79.8396C315.37 80.1141 315.134 80.3504 314.86 80.5356C314.711 80.6113 314.549 80.6566 314.383 80.6689C314.217 80.6813 314.05 80.6605 313.892 80.6076L309.892 79.7196C309.751 79.6925 309.616 79.6374 309.497 79.5578C309.377 79.4781 309.275 79.3754 309.196 79.2556C309.109 79.1331 309.05 78.9927 309.023 78.8447C308.997 78.6967 309.004 78.5447 309.044 78.3996C309.38 77.1701 310.012 76.0414 310.884 75.1116C311.862 74.0312 313.024 73.1321 314.316 72.4556C315.731 71.7126 317.257 71.2047 318.836 70.9516C320.52 70.6554 322.245 70.6907 323.916 71.0556ZM319.692 99.4876C319.867 99.5251 320.033 99.5985 320.179 99.7031C320.325 99.8078 320.448 99.9414 320.54 100.096C320.638 100.245 320.705 100.413 320.737 100.589C320.768 100.765 320.764 100.945 320.724 101.12L319.764 105.456C319.683 105.802 319.471 106.103 319.173 106.296C318.874 106.488 318.512 106.557 318.164 106.488L313.924 105.552C313.749 105.514 313.584 105.442 313.438 105.339C313.292 105.235 313.169 105.104 313.076 104.952C312.976 104.803 312.908 104.635 312.876 104.459C312.845 104.283 312.85 104.102 312.892 103.928L313.852 99.5836C313.932 99.2375 314.144 98.9362 314.443 98.7436C314.741 98.551 315.103 98.4822 315.452 98.5516L319.692 99.4876Z" fill="#DAA520"/>
<path d="M336.494 111.847C337.552 111.673 338.63 111.651 339.694 111.783C340.717 111.9 341.711 112.198 342.63 112.663C343.507 113.112 344.276 113.745 344.886 114.519C345.532 115.349 345.948 116.334 346.094 117.375C346.26 118.186 346.26 119.021 346.094 119.831C345.927 120.536 345.658 121.213 345.294 121.839C344.937 122.443 344.531 123.016 344.078 123.551L342.79 125.071C342.402 125.526 342.054 126.013 341.75 126.527C341.479 126.985 341.34 127.508 341.35 128.039C341.348 128.289 341.276 128.533 341.142 128.743C341.081 128.844 340.998 128.93 340.9 128.995C340.802 129.06 340.69 129.102 340.574 129.119L337.958 129.551C337.705 129.591 337.447 129.531 337.238 129.383C337.135 129.316 337.05 129.227 336.987 129.121C336.925 129.016 336.887 128.898 336.878 128.775C336.768 127.955 336.831 127.122 337.062 126.327C337.269 125.615 337.574 124.934 337.966 124.303C338.34 123.7 338.766 123.13 339.238 122.599C339.71 122.071 340.134 121.575 340.534 121.095C340.894 120.669 341.208 120.205 341.47 119.711C341.699 119.283 341.781 118.791 341.702 118.311C341.637 117.89 341.47 117.491 341.217 117.148C340.963 116.805 340.63 116.529 340.246 116.343C339.298 115.88 338.221 115.751 337.19 115.975C336.257 116.113 335.39 116.535 334.705 117.183C334.021 117.832 333.553 118.675 333.366 119.599C333.315 119.825 333.223 120.039 333.094 120.231C332.939 120.402 332.724 120.505 332.494 120.519L329.71 120.975C329.512 121.008 329.309 120.965 329.142 120.855C329.054 120.799 328.98 120.723 328.925 120.635C328.87 120.547 328.834 120.447 328.822 120.343C328.725 119.47 328.843 118.585 329.166 117.767C329.513 116.822 330.028 115.946 330.686 115.183C331.403 114.346 332.252 113.63 333.198 113.063C334.207 112.448 335.327 112.035 336.494 111.847ZM341.062 131.199C341.184 131.179 341.31 131.183 341.431 131.212C341.552 131.241 341.666 131.294 341.766 131.367C341.866 131.439 341.951 131.529 342.015 131.633C342.08 131.738 342.123 131.854 342.142 131.975L342.638 134.999C342.658 135.122 342.654 135.248 342.625 135.368C342.596 135.489 342.544 135.603 342.47 135.703C342.4 135.804 342.31 135.89 342.205 135.955C342.1 136.019 341.984 136.062 341.862 136.079L338.902 136.567C338.781 136.587 338.656 136.583 338.537 136.554C338.417 136.525 338.305 136.472 338.206 136.399C338.103 136.33 338.016 136.24 337.95 136.136C337.884 136.031 337.84 135.914 337.822 135.791L337.326 132.759C337.289 132.51 337.353 132.257 337.503 132.054C337.653 131.852 337.877 131.717 338.126 131.679L341.062 131.199Z" fill="#DAA520"/>
<g opacity="0.2">
<path d="M336.494 111.847C337.552 111.673 338.63 111.651 339.694 111.783C340.717 111.9 341.711 112.198 342.63 112.663C343.507 113.112 344.276 113.745 344.886 114.519C345.532 115.349 345.948 116.334 346.094 117.375C346.26 118.186 346.26 119.021 346.094 119.831C345.927 120.536 345.658 121.213 345.294 121.839C344.937 122.443 344.531 123.016 344.078 123.551L342.79 125.071C342.402 125.526 342.054 126.013 341.75 126.527C341.479 126.985 341.34 127.508 341.35 128.039C341.348 128.289 341.276 128.533 341.142 128.743C341.081 128.844 340.998 128.93 340.9 128.995C340.802 129.06 340.69 129.102 340.574 129.119L337.958 129.551C337.705 129.591 337.447 129.531 337.238 129.383C337.135 129.316 337.05 129.227 336.987 129.121C336.925 129.016 336.887 128.898 336.878 128.775C336.768 127.955 336.831 127.122 337.062 126.327C337.269 125.615 337.574 124.934 337.966 124.303C338.34 123.7 338.766 123.13 339.238 122.599C339.71 122.071 340.134 121.575 340.534 121.095C340.894 120.669 341.208 120.205 341.47 119.711C341.699 119.283 341.781 118.791 341.702 118.311C341.637 117.89 341.47 117.491 341.217 117.148C340.963 116.805 340.63 116.529 340.246 116.343C339.298 115.88 338.221 115.751 337.19 115.975C336.257 116.113 335.39 116.535 334.705 117.183C334.021 117.832 333.553 118.675 333.366 119.599C333.315 119.825 333.223 120.039 333.094 120.231C332.939 120.402 332.724 120.505 332.494 120.519L329.71 120.975C329.512 121.008 329.309 120.965 329.142 120.855C329.054 120.799 328.98 120.723 328.925 120.635C328.87 120.547 328.834 120.447 328.822 120.343C328.725 119.47 328.843 118.585 329.166 117.767C329.513 116.822 330.028 115.946 330.686 115.183C331.403 114.346 332.252 113.63 333.198 113.063C334.207 112.448 335.327 112.035 336.494 111.847ZM341.062 131.199C341.184 131.179 341.31 131.183 341.431 131.212C341.552 131.241 341.666 131.294 341.766 131.367C341.866 131.439 341.951 131.529 342.015 131.633C342.08 131.738 342.123 131.854 342.142 131.975L342.638 134.999C342.658 135.122 342.654 135.248 342.625 135.368C342.596 135.489 342.544 135.603 342.47 135.703C342.4 135.804 342.31 135.89 342.205 135.955C342.1 136.019 341.984 136.062 341.862 136.079L338.902 136.567C338.781 136.587 338.656 136.583 338.537 136.554C338.417 136.525 338.305 136.472 338.206 136.399C338.103 136.33 338.016 136.24 337.95 136.136C337.884 136.031 337.84 135.914 337.822 135.791L337.326 132.759C337.289 132.51 337.353 132.257 337.503 132.054C337.653 131.852 337.877 131.717 338.126 131.679L341.062 131.199Z" fill="black"/>
</g>
<path d="M363.772 120.431C364.01 120.604 364.17 120.864 364.22 121.154C364.269 121.443 364.203 121.741 364.036 121.983L361.924 124.943C361.751 125.181 361.492 125.341 361.202 125.391C360.912 125.44 360.614 125.374 360.372 125.207L357.476 123.151C357.357 123.068 357.255 122.961 357.178 122.837C357.101 122.713 357.05 122.575 357.028 122.431C356.986 122.151 357.052 121.865 357.212 121.631L359.324 118.663C359.495 118.425 359.754 118.264 360.044 118.215C360.326 118.173 360.612 118.242 360.844 118.407L363.772 120.431ZM375.996 100.359C377.04 101.096 377.973 101.98 378.764 102.983C379.528 103.938 380.116 105.022 380.5 106.183C380.867 107.293 380.99 108.469 380.86 109.631C380.71 110.868 380.241 112.045 379.5 113.047C378.947 113.857 378.241 114.55 377.42 115.087C376.691 115.54 375.898 115.883 375.068 116.103C374.263 116.318 373.442 116.463 372.612 116.535L370.26 116.735C369.558 116.8 368.862 116.923 368.18 117.103C367.57 117.264 367.016 117.591 366.58 118.047C366.37 118.251 366.111 118.397 365.828 118.471C365.691 118.504 365.548 118.506 365.409 118.477C365.271 118.448 365.141 118.388 365.028 118.303L362.468 116.487C362.224 116.311 362.057 116.047 362.004 115.751C361.973 115.612 361.976 115.467 362.01 115.328C362.045 115.189 362.111 115.06 362.204 114.951C362.799 114.171 363.548 113.52 364.404 113.039C365.174 112.617 365.998 112.299 366.852 112.095C367.672 111.897 368.507 111.769 369.348 111.711C370.148 111.663 370.948 111.599 371.684 111.527C372.345 111.47 372.997 111.339 373.628 111.135C374.178 110.968 374.657 110.621 374.988 110.151C375.285 109.744 375.479 109.27 375.551 108.771C375.624 108.272 375.573 107.762 375.404 107.287C374.987 106.108 374.187 105.103 373.132 104.431C371.228 103.071 369.148 103.026 366.892 104.295C366.664 104.441 366.412 104.544 366.148 104.599C366.011 104.609 365.873 104.591 365.742 104.547C365.612 104.504 365.491 104.434 365.388 104.343L362.668 102.407C362.47 102.273 362.332 102.066 362.284 101.831C362.261 101.711 362.264 101.588 362.293 101.469C362.322 101.35 362.376 101.239 362.452 101.143C363.085 100.325 363.909 99.6741 364.852 99.2473C365.934 98.7467 367.096 98.4407 368.284 98.3433C369.585 98.2371 370.895 98.3398 372.164 98.6473C373.542 98.9582 374.845 99.5402 375.996 100.359Z" fill="#DAA520"/>
<g opacity="0.6">
<path d="M363.772 120.431C364.01 120.604 364.17 120.864 364.22 121.154C364.269 121.443 364.203 121.741 364.036 121.983L361.924 124.943C361.751 125.181 361.492 125.341 361.202 125.391C360.912 125.44 360.614 125.374 360.372 125.207L357.476 123.151C357.357 123.068 357.255 122.961 357.178 122.837C357.101 122.713 357.05 122.575 357.028 122.431C356.986 122.151 357.052 121.865 357.212 121.631L359.324 118.663C359.495 118.425 359.754 118.264 360.044 118.215C360.326 118.173 360.612 118.242 360.844 118.407L363.772 120.431ZM375.996 100.359C377.04 101.096 377.973 101.98 378.764 102.983C379.528 103.938 380.116 105.022 380.5 106.183C380.867 107.293 380.99 108.469 380.86 109.631C380.71 110.868 380.241 112.045 379.5 113.047C378.947 113.857 378.241 114.55 377.42 115.087C376.691 115.54 375.898 115.883 375.068 116.103C374.263 116.318 373.442 116.463 372.612 116.535L370.26 116.735C369.558 116.8 368.862 116.923 368.18 117.103C367.57 117.264 367.016 117.591 366.58 118.047C366.37 118.251 366.111 118.397 365.828 118.471C365.691 118.504 365.548 118.506 365.409 118.477C365.271 118.448 365.141 118.388 365.028 118.303L362.468 116.487C362.224 116.311 362.057 116.047 362.004 115.751C361.973 115.612 361.976 115.467 362.01 115.328C362.045 115.189 362.111 115.06 362.204 114.951C362.799 114.171 363.548 113.52 364.404 113.039C365.174 112.617 365.998 112.299 366.852 112.095C367.672 111.897 368.507 111.769 369.348 111.711C370.148 111.663 370.948 111.599 371.684 111.527C372.345 111.47 372.997 111.339 373.628 111.135C374.178 110.968 374.657 110.621 374.988 110.151C375.285 109.744 375.479 109.27 375.551 108.771C375.624 108.272 375.573 107.762 375.404 107.287C374.987 106.108 374.187 105.103 373.132 104.431C371.228 103.071 369.148 103.026 366.892 104.295C366.664 104.441 366.412 104.544 366.148 104.599C366.011 104.609 365.873 104.591 365.742 104.547C365.612 104.504 365.491 104.434 365.388 104.343L362.668 102.407C362.47 102.273 362.332 102.066 362.284 101.831C362.261 101.711 362.264 101.588 362.293 101.469C362.322 101.35 362.376 101.239 362.452 101.143C363.085 100.325 363.909 99.6741 364.852 99.2473C365.934 98.7467 367.096 98.4407 368.284 98.3433C369.585 98.2371 370.895 98.3398 372.164 98.6473C373.542 98.9582 374.845 99.5402 375.996 100.359Z" fill="white"/>
</g>
<path d="M105.987 278.816C105.907 276.416 107.635 252.96 107.635 252.96L96.2109 261.248C98.5549 275.232 99.0589 278.536 99.0989 280.824C99.0506 281.015 99.0291 281.211 99.0349 281.408C99.0349 284.128 102.115 285.592 104.507 287.408C106.54 288.998 108.705 290.411 110.979 291.632C112.715 292.504 116.251 292.584 116.683 291.464C113.771 289.24 109.539 285.912 107.219 283.376C106.115 282.16 106.075 281.2 105.987 278.816Z" fill="#FFA8A7"/>
<path d="M121.644 294.399C121.773 294.773 121.796 295.175 121.71 295.561C121.624 295.947 121.432 296.301 121.156 296.583C119.058 298.096 116.446 298.717 113.892 298.311C110.26 297.839 108.292 296.807 106.844 295.591C105.396 294.375 103.356 292.663 101.708 292.303C100.398 292.054 99.1516 291.542 98.0439 290.799C97.5559 290.327 97.62 288.231 97.62 288.231L121.644 294.399Z" fill="#263238"/>
<path d="M99.0723 280.16C98.9378 280.164 98.8089 280.215 98.7081 280.304C98.6073 280.393 98.5408 280.515 98.5203 280.648C98.4083 281.224 98.2883 282.904 98.0483 283.848C97.677 285.517 97.5584 287.232 97.6963 288.936C97.8963 290.016 100.376 290.76 101.968 291.336C103.841 292.151 105.578 293.246 107.12 294.584C109.347 296.249 112.004 297.24 114.776 297.44C117.576 297.44 120.728 296.512 121.456 295.216C122.344 293.616 121.648 292.68 117.496 290.752C116.696 290.392 113.952 288.752 113.008 288.16C110.464 286.56 107.944 284.328 106.768 281.496C106.674 281.15 106.465 280.846 106.176 280.632C105.924 280.523 105.645 280.496 105.376 280.552C104.683 280.653 104.009 280.858 103.376 281.16C102.824 281.424 102.032 281.736 102.04 282.448C102.057 282.695 102.111 282.937 102.2 283.168C102.248 283.32 102.288 283.512 102.2 283.6C102.112 283.688 101.92 283.6 101.808 283.488C101.401 283.072 101.029 282.622 100.696 282.144C100.5 281.899 100.277 281.677 100.032 281.48C99.7876 281.341 99.5524 281.186 99.3283 281.016C99.0243 280.8 99.0883 280.496 99.0723 280.16Z" fill="#455A64"/>
<path d="M107.116 294.624C106.388 294.032 105.62 293.448 104.852 292.936C104.852 292.936 109.732 295.904 111.7 294.536C112.065 294.304 112.332 293.946 112.45 293.53C112.568 293.114 112.529 292.669 112.34 292.28C112.34 291.944 115.444 290.496 116.676 290.352C117.02 290.544 117.308 290.696 117.476 290.776C121.628 292.704 122.324 293.632 121.436 295.24C120.708 296.536 118.428 297.552 114.812 297.552C112.46 297.6 108.796 296 107.116 294.624Z" fill="#37474F"/>
<path d="M112 291.312C114.584 292.344 113.48 292.824 112.76 292.912C112.04 293 107.696 290.512 105.04 288.384C102.384 286.256 100.536 283.8 99.5117 283C99.1277 282.704 98.7118 282.336 98.3438 281.992C98.4158 281.424 98.4718 280.904 98.5198 280.632C98.5403 280.499 98.6067 280.377 98.7075 280.288C98.8084 280.199 98.9372 280.148 99.0717 280.144C99.0717 280.48 99.0237 280.792 99.2797 281.04C99.5038 281.21 99.739 281.365 99.9838 281.504C100.228 281.7 100.451 281.923 100.648 282.168C100.981 282.645 101.353 283.095 101.76 283.512C104.638 286.747 108.116 289.396 112 291.312Z" fill="#263238"/>
<path d="M112.576 292.552C112.517 292.549 112.46 292.527 112.416 292.488C112.39 292.467 112.368 292.442 112.352 292.413C112.336 292.385 112.326 292.353 112.322 292.32C112.318 292.287 112.321 292.254 112.33 292.222C112.34 292.191 112.355 292.161 112.376 292.136C112.984 291.504 113.721 291.01 114.537 290.687C115.352 290.364 116.228 290.22 117.104 290.264C117.173 290.272 117.235 290.306 117.279 290.36C117.322 290.414 117.343 290.483 117.336 290.552C117.328 290.618 117.294 290.679 117.242 290.721C117.189 290.763 117.123 290.782 117.056 290.776C116.265 290.743 115.476 290.875 114.739 291.165C114.002 291.454 113.333 291.894 112.776 292.456C112.751 292.485 112.721 292.509 112.686 292.526C112.652 292.542 112.614 292.551 112.576 292.552Z" fill="#F5F5F5"/>
<path d="M110.325 291.2C110.264 291.203 110.204 291.183 110.157 291.144C110.111 291.095 110.086 291.031 110.086 290.964C110.086 290.897 110.111 290.833 110.157 290.784C110.767 290.154 111.504 289.662 112.319 289.341C113.135 289.019 114.009 288.876 114.885 288.92C114.953 288.927 115.015 288.961 115.058 289.015C115.1 289.068 115.12 289.136 115.113 289.204C115.105 289.272 115.071 289.334 115.018 289.377C114.965 289.419 114.897 289.439 114.829 289.432C114.038 289.397 113.248 289.529 112.511 289.818C111.773 290.107 111.105 290.548 110.549 291.112C110.522 291.144 110.487 291.168 110.448 291.184C110.409 291.199 110.367 291.205 110.325 291.2Z" fill="#F5F5F5"/>
<path d="M108.07 289.848C108.012 289.849 107.955 289.829 107.91 289.792C107.863 289.744 107.836 289.68 107.836 289.612C107.836 289.545 107.863 289.48 107.91 289.432C108.52 288.803 109.257 288.311 110.073 287.99C110.888 287.668 111.763 287.525 112.638 287.568C112.672 287.571 112.704 287.581 112.734 287.597C112.764 287.612 112.791 287.634 112.812 287.66C112.834 287.686 112.85 287.716 112.86 287.748C112.87 287.781 112.873 287.815 112.87 287.848C112.867 287.882 112.857 287.915 112.842 287.944C112.826 287.974 112.804 288.001 112.778 288.022C112.752 288.044 112.722 288.06 112.69 288.07C112.658 288.08 112.624 288.083 112.59 288.08C111.799 288.045 111.009 288.177 110.272 288.466C109.535 288.756 108.866 289.196 108.31 289.76C108.28 289.793 108.243 289.819 108.201 289.834C108.159 289.849 108.114 289.854 108.07 289.848Z" fill="#F5F5F5"/>
<path d="M105.98 288.352C105.921 288.352 105.865 288.332 105.82 288.296C105.795 288.272 105.776 288.245 105.762 288.214C105.749 288.183 105.742 288.149 105.742 288.116C105.742 288.082 105.749 288.049 105.762 288.018C105.776 287.987 105.795 287.959 105.82 287.936C106.429 287.305 107.166 286.813 107.982 286.491C108.797 286.17 109.672 286.027 110.548 286.072C110.614 286.08 110.675 286.113 110.717 286.166C110.759 286.218 110.778 286.285 110.772 286.352C110.764 286.418 110.73 286.479 110.677 286.521C110.625 286.563 110.558 286.582 110.492 286.576C109.701 286.544 108.912 286.677 108.175 286.967C107.439 287.256 106.77 287.695 106.212 288.256C106.184 288.29 106.149 288.317 106.108 288.334C106.068 288.351 106.023 288.357 105.98 288.352Z" fill="#F5F5F5"/>
<path d="M103.945 286.856C103.887 286.854 103.832 286.834 103.785 286.8C103.738 286.752 103.711 286.688 103.711 286.62C103.711 286.553 103.738 286.488 103.785 286.44C104.445 285.754 105.252 285.227 106.147 284.899C107.041 284.572 107.998 284.454 108.945 284.552C108.979 284.554 109.012 284.563 109.042 284.578C109.072 284.594 109.099 284.616 109.12 284.642C109.141 284.668 109.156 284.699 109.165 284.732C109.173 284.765 109.175 284.799 109.169 284.832C109.161 284.899 109.127 284.96 109.075 285.002C109.022 285.043 108.956 285.063 108.889 285.056C108.028 284.971 107.159 285.08 106.345 285.373C105.532 285.666 104.794 286.138 104.185 286.752C104.157 286.788 104.12 286.817 104.078 286.835C104.036 286.853 103.99 286.861 103.945 286.856Z" fill="#F5F5F5"/>
<path d="M84.4655 263.64L72.9375 263.432C73.1055 271.128 74.3295 279.664 74.5375 286.88C74.5375 288.24 74.5375 297.44 75.0175 300.24C75.8175 304.44 80.7775 303.872 81.0415 301.36C81.3055 298.848 80.7215 288.104 80.7375 286.96C80.6895 282.336 82.8575 274.52 84.0015 266.208C84.0495 265.832 84.4095 264.04 84.4655 263.64Z" fill="#FFA8A7"/>
<path d="M82.9134 303.104C83.1276 305.029 82.8524 306.977 82.1134 308.768C81.7476 309.479 81.1573 310.049 80.434 310.391C79.7107 310.732 78.895 310.825 78.1134 310.656C76.4094 310.408 74.1614 309.496 73.4734 307.456C72.822 305.577 72.5926 303.577 72.8014 301.6L82.9134 303.104Z" fill="#263238"/>
<path d="M74.5025 286C73.8225 286.12 73.9505 289.44 73.8865 292.776C73.8145 296.36 72.9105 297.928 72.8225 300.864C72.7185 304.224 73.0465 305.664 74.4225 307.568C75.7985 309.472 80.0945 311.008 81.8305 307.936C83.2465 305.432 83.0545 302.832 82.5665 299.536C82.0785 296.24 81.6945 293.744 81.5665 291.136C81.4385 288.528 81.3825 286.216 80.7665 286C80.7665 286.368 80.7665 286.84 80.7665 287.2C80.7665 287.56 80.8225 288.8 80.4385 288.88C80.3793 288.571 80.3445 288.258 80.3345 287.944C80.3523 287.653 80.2578 287.367 80.0705 287.144C79.8391 286.973 79.558 286.883 79.2705 286.888C78.5853 286.811 77.8961 286.773 77.2065 286.776C76.8625 286.776 76.5105 286.776 76.1745 286.832C75.8789 286.855 75.5894 286.928 75.3185 287.048C75.2387 287.082 75.167 287.132 75.1077 287.196C75.0485 287.259 75.0031 287.334 74.9745 287.416C74.9505 287.543 74.9505 287.673 74.9745 287.8C75.0026 288.028 75.0026 288.26 74.9745 288.488C74.9745 288.592 74.9025 288.72 74.7985 288.704C74.6945 288.688 74.6785 288.592 74.6705 288.512C74.6225 288.112 74.6705 287.816 74.6225 287.352C74.6225 287.136 74.6225 286.84 74.6225 286.624C74.6225 286.408 74.5105 286.216 74.5025 286Z" fill="#455A64"/>
<path d="M72.8755 299.904C72.8755 300.392 72.7715 303.6 73.6755 304.08C74.5795 304.56 74.9315 302.064 74.9315 302.064C74.9315 302.064 77.0515 301.176 80.3795 302.248C80.2675 302.776 80.9235 304.424 81.7635 303.976C82.6035 303.528 82.5635 299.872 82.5635 299.824C83.0195 303.024 83.1635 305.504 81.7635 307.936C80.0275 311.008 75.7155 309.456 74.3555 307.568C72.9955 305.68 72.6675 304.224 72.7555 300.864C72.7955 300.528 72.8515 300.216 72.8755 299.904Z" fill="#37474F"/>
<path d="M75.1978 302.248C75.3018 303.448 74.0858 303.168 73.8618 301.448C73.6378 299.728 74.1658 295.656 73.8618 292.744C73.9258 289.408 73.7978 286.088 74.4778 285.968C74.4739 286.008 74.4739 286.048 74.4778 286.088L74.5578 287.776C74.542 288.016 74.542 288.256 74.5578 288.496C74.7818 290.944 74.9178 295.696 74.9258 297.952C74.9399 299.388 75.0307 300.822 75.1978 302.248Z" fill="#263238"/>
<path d="M79.9961 302.248C80.1528 300.832 80.2303 299.409 80.2281 297.984C80.2281 295.744 80.3721 291.048 80.5961 288.584C80.6828 288.128 80.7177 287.664 80.7001 287.2C80.7001 286.864 80.7001 286.4 80.7001 286.08C80.7001 286.08 80.7001 286.032 80.7001 286C81.1481 286.168 81.3081 287.488 81.4041 289.152C81.4041 290.12 81.4041 291.32 81.3161 292.776C81.0121 295.688 81.5401 299.816 81.3161 301.504C81.0921 303.192 79.9161 303.448 79.9961 302.248Z" fill="#263238"/>
<path d="M80.4683 302.336H80.3803C78.6517 301.74 76.773 301.74 75.0443 302.336C75.0128 302.348 74.9792 302.354 74.9455 302.353C74.9118 302.352 74.8785 302.345 74.8477 302.331C74.8169 302.317 74.789 302.298 74.7658 302.273C74.7426 302.249 74.7244 302.22 74.7123 302.188C74.7003 302.157 74.6945 302.123 74.6954 302.089C74.6963 302.056 74.7038 302.022 74.7176 301.992C74.7313 301.961 74.751 301.933 74.7755 301.91C74.8 301.887 74.8288 301.868 74.8603 301.856C76.7046 301.198 78.72 301.198 80.5643 301.856C80.5958 301.868 80.6246 301.885 80.649 301.908C80.6734 301.931 80.6929 301.959 80.7064 301.99C80.7198 302.02 80.7269 302.053 80.7273 302.087C80.7276 302.12 80.7212 302.153 80.7083 302.184C80.6887 302.231 80.6552 302.271 80.6123 302.298C80.5693 302.325 80.5191 302.339 80.4683 302.336Z" fill="#F5F5F5"/>
<path d="M80.7968 299.679C80.7679 299.687 80.7377 299.687 80.7088 299.679C78.7652 299.076 76.6844 299.076 74.7408 299.679C74.7088 299.691 74.6748 299.696 74.6409 299.694C74.607 299.692 74.5738 299.683 74.5433 299.668C74.5128 299.653 74.4855 299.632 74.4631 299.607C74.4407 299.581 74.4236 299.552 74.4128 299.519C74.4016 299.488 74.3969 299.455 74.3989 299.421C74.4009 299.388 74.4097 299.355 74.4246 299.325C74.4396 299.295 74.4604 299.269 74.4859 299.247C74.5113 299.226 74.5409 299.209 74.5728 299.199C76.626 298.546 78.8316 298.546 80.8848 299.199C80.941 299.22 80.9881 299.26 81.0179 299.312C81.0477 299.364 81.0583 299.425 81.0478 299.484C81.0373 299.543 81.0065 299.597 80.9606 299.635C80.9147 299.674 80.8568 299.695 80.7968 299.695V299.679Z" fill="#F5F5F5"/>
<path d="M74.6365 297.168C74.5875 297.166 74.5399 297.152 74.4989 297.125C74.458 297.098 74.4253 297.06 74.4045 297.016C74.3774 296.954 74.3756 296.884 74.3996 296.822C74.4235 296.759 74.4713 296.708 74.5325 296.68C76.5534 295.885 78.7977 295.871 80.8285 296.64C80.8599 296.651 80.8887 296.669 80.9131 296.692C80.9375 296.715 80.9571 296.742 80.9705 296.773C80.984 296.804 80.9911 296.837 80.9914 296.87C80.9918 296.904 80.9853 296.937 80.9725 296.968C80.9475 297.03 80.8992 297.08 80.8379 297.107C80.7766 297.134 80.7071 297.135 80.6445 297.112C80.6445 297.112 77.5085 295.88 74.7485 297.112C74.7159 297.139 74.6776 297.158 74.6365 297.168Z" fill="#F5F5F5"/>
<path d="M74.5832 294.816C74.5349 294.816 74.4875 294.803 74.4464 294.777C74.4054 294.752 74.3724 294.715 74.3512 294.672C74.3236 294.611 74.3206 294.542 74.343 294.479C74.3654 294.417 74.4114 294.365 74.4712 294.336C75.4741 293.878 76.5615 293.636 77.6636 293.624C78.7657 293.611 79.8583 293.829 80.8712 294.264C80.9015 294.277 80.9288 294.297 80.9514 294.321C80.9739 294.346 80.9913 294.375 81.0025 294.406C81.0137 294.437 81.0185 294.471 81.0165 294.504C81.0146 294.537 81.006 294.57 80.9912 294.6C80.9775 294.63 80.9578 294.657 80.9333 294.68C80.9088 294.702 80.88 294.72 80.8487 294.731C80.8173 294.742 80.784 294.747 80.7508 294.745C80.7176 294.743 80.6851 294.734 80.6552 294.72C79.7048 294.326 78.6844 294.129 77.6558 294.142C76.6272 294.154 75.6119 294.375 74.6712 294.792C74.6434 294.804 74.6137 294.812 74.5832 294.816Z" fill="#F5F5F5"/>
<path d="M74.5255 292.184C74.4669 292.184 74.4098 292.165 74.3636 292.129C74.3175 292.093 74.2852 292.042 74.2721 291.985C74.259 291.928 74.2659 291.868 74.2916 291.815C74.3173 291.763 74.3604 291.72 74.4135 291.696C77.4615 290.192 80.7495 291.632 80.8855 291.696C80.9173 291.708 80.9462 291.726 80.9703 291.75C80.9944 291.774 81.0131 291.803 81.0252 291.835C81.0373 291.867 81.0425 291.9 81.0405 291.934C81.0384 291.968 81.0292 292.001 81.0135 292.032C80.9855 292.093 80.9346 292.141 80.8717 292.165C80.8088 292.188 80.7391 292.187 80.6775 292.16C80.6775 292.16 77.4775 290.76 74.6455 292.16C74.6085 292.179 74.5669 292.187 74.5255 292.184Z" fill="#F5F5F5"/>
<path d="M76.7271 188.8C72.6631 200.056 73.3751 207.12 74.0711 218.92C74.7111 229.736 75.7271 239.264 75.7271 239.264C75.5671 241.184 72.8951 244.928 72.5271 253.408C72.4092 259.379 72.6764 265.351 73.3271 271.288C73.3271 271.288 78.6471 273.232 83.1431 271.288C83.1431 271.288 87.7431 250.976 88.9991 241.048C90.0871 232.384 91.9911 221.312 91.9911 221.312L95.9911 241.008C95.2092 243.655 94.8079 246.4 94.7991 249.16C94.7991 253.792 96.9511 266.672 96.9511 266.672C96.9511 266.672 102.911 268.6 106.687 265.248C106.687 265.248 108.183 246.712 108.711 239.648C109.415 230.224 108.391 204.392 106.127 191.168L76.7271 188.8Z" fill="#455A64"/>
<path d="M92.0391 221.28L93.7031 206.464C93.7031 206.464 101.151 205.472 104.527 202.296C103.559 203.811 102.268 205.093 100.747 206.051C99.2254 207.01 97.5115 207.62 95.7271 207.84L93.3271 221.632L96.0471 240.976L92.0391 221.28Z" fill="#37474F"/>
<path d="M110.458 177.816C106.834 174.088 100.29 165.656 100.29 165.656L96.5938 152.856C97.4199 152.899 98.2476 152.899 99.0737 152.856C103.074 153.12 104.25 153.464 106.738 156.184C108.714 158.352 116.25 168.64 118.866 172.104L125.818 163.248C127.49 160.728 127.218 157.904 128.082 155.848C128.946 153.792 130.346 152.888 131.466 151.048C132.586 149.208 132.85 147.976 133.77 148.928C134.69 149.88 133.626 152.44 133.49 153.024C133.354 153.608 131.946 155.344 134.29 154.44C136.634 153.536 140.25 149.256 141.178 148.384C142.106 147.512 142.602 148.864 142.394 149.936C142.186 151.008 143.194 153.424 142.826 155.192C142.597 156.97 141.712 158.599 140.346 159.76C138.658 161.456 134.53 163.544 132.914 165.776C131.298 168.008 127.85 174.944 125.714 179.12C123.034 184.432 120.754 186.184 117.714 184.392C114.674 182.6 111.794 179.2 110.458 177.816Z" fill="#FFA8A7"/>
<path d="M97.7681 152.72C99.8136 152.516 101.879 152.79 103.8 153.52C105.968 154.496 107.44 156.592 109.56 159.432C111.68 162.272 115.464 167.24 115.464 167.24C115.464 167.24 114.44 171.552 107.688 175.424L96.6641 164.072L97.7681 152.72Z" fill="#37474F"/>
<path d="M118.864 172.096C117.545 173.34 116.662 174.975 116.344 176.76C116.344 176.76 115.544 174.192 118.272 171.304L118.864 172.096Z" fill="#F28F8F"/>
<path d="M105.752 175.448C110.672 171.4 109.048 166.128 107.256 162.576C103.664 155.48 99.9284 152.688 98.3684 152.712L88.5844 152.808C83.9124 153.448 80.2964 153.128 79.1684 153.392C76.2884 154.072 76.2244 156.44 76.1124 159.504C75.9924 162.864 74.2724 162.296 75.1444 167.848C76.1729 169.912 77.0759 172.036 77.8484 174.208C78.3764 176.128 79.8644 179.184 79.0724 182.288C78.7684 183.488 77.9524 184.688 76.7284 187.976C75.3406 191.672 74.3092 195.492 73.6484 199.384C73.6484 199.384 76.5044 198.72 79.7524 195.264C79.7524 195.264 84.1924 201.208 94.8724 200.608C105.952 199.984 106.928 194.208 106.928 194.208L105.232 183.808C105.488 179.608 105.6 178.088 105.752 175.448Z" fill="#E522B7"/>
<path opacity="0.1" d="M99.3603 174.4C99.3603 174.4 95.3603 177.6 90.6643 176.064C89.3561 175.672 88.1702 174.951 87.2193 173.971C86.2685 172.991 85.5844 171.783 85.2323 170.464C85.2323 170.464 84.8323 175.784 90.7363 177.496C92.3156 177.975 94.0072 177.933 95.5605 177.375C97.1139 176.817 98.4462 175.774 99.3603 174.4Z" fill="black"/>
<path d="M71.351 148.144C69.903 147.088 62.103 157.528 65.751 160.144C69.399 162.76 73.287 155.344 72.503 151.84C71.719 148.336 71.351 148.144 71.351 148.144Z" fill="#37474F"/>
<path d="M64.2713 142.96C66.2233 140.256 67.5513 138.216 69.3353 135.896C70.3433 134.576 70.9913 133.64 71.9593 132.288C72.6313 131.36 73.0233 130.576 73.7753 130.28C74.6148 129.91 75.3651 129.365 75.9753 128.68C76.3489 128.247 76.6937 127.79 77.0073 127.312C78.1349 125.75 79.4822 124.36 81.0073 123.184C82.6073 121.944 84.3593 120.984 85.9913 119.8C86.9593 119.096 87.9993 117.936 86.7913 116.888C86.4159 116.585 85.9702 116.381 85.4953 116.296C82.5833 115.712 80.0633 116.76 77.2313 117.536C75.9998 117.872 74.7962 118.302 73.6313 118.824C73.053 119.059 72.5135 119.38 72.0313 119.776C71.3614 120.476 70.8198 121.288 70.4313 122.176C69.1913 124.456 66.5753 126.488 64.7433 128.272C62.5913 130.368 60.6713 132.272 58.2153 134.6C56.0073 136.68 53.8393 138.6 51.8153 140.872C50.1433 142.744 50.7913 144.184 51.0153 144.672C52.4553 147.504 54.0233 148.504 55.9113 150.272C56.5353 150.848 57.1673 151.416 57.7993 151.984C60.2473 154.192 62.6953 156.256 65.2393 158.384C67.9593 160.624 69.0793 161.712 71.5033 163.888C73.0329 165.293 74.3078 166.952 75.2713 168.792C79.4713 169.488 83.5993 163.064 79.9993 155.552C79.4072 154.337 78.5116 153.295 77.3993 152.528C72.9673 149.368 64.2713 142.96 64.2713 142.96Z" fill="#FFA8A7"/>
<path d="M64.2751 142.96C62.9649 144.624 61.2044 145.876 59.2031 146.568C59.2031 146.568 61.8831 147.208 65.4831 143.856L64.2751 142.96Z" fill="#F28F8F"/>
<path d="M79.5012 153.328C78.5172 152.648 76.1252 151.2 71.3492 148.144C71.3492 148.144 72.0853 149.688 70.9253 153.568C69.7653 157.448 67.3172 159.904 65.7812 160.184C65.7812 160.184 68.4532 162.296 70.9172 164.68C73.3812 167.064 75.4052 168.752 76.8292 171.52C76.8292 171.52 80.3492 170.616 81.1492 164.648C81.7092 160.464 81.3732 155.552 79.5012 153.328Z" fill="#455A64"/>
<path d="M106.224 134.112C106.927 132.625 107.237 130.983 107.123 129.343C107.01 127.703 106.477 126.119 105.576 124.744C102.544 120.432 97.4318 118.344 91.7838 118.408H90.0318C82.4078 118.536 75.4798 125.08 75.3438 132.448C75.3438 137.632 75.3437 142.424 78.1997 145.96C80.8317 149.248 84.9357 150.328 88.3997 150.856C95.0237 151.864 102.464 151.096 105.472 146.584C105.472 146.584 101.472 147.384 101.976 143.24C102.048 142.584 101.424 141.864 100.328 141.12C101.095 139.79 101.999 138.543 103.024 137.4C104.152 136.272 105.456 135.64 106.224 134.112Z" fill="#263238"/>
<path d="M104.243 137.896C104.203 145.616 101.732 147.56 100.492 148.136C99.2515 148.712 96.8195 148.408 94.4595 148.064L94.5395 152.696C94.5395 152.696 97.2995 155.488 97.1395 157.616C96.9795 159.744 92.9155 160.016 89.8355 158.024C88.1388 156.9 86.5999 155.555 85.2595 154.024C85.0037 153.727 84.8594 153.351 84.8515 152.96L84.6595 142.072C84.6595 142.072 83.3955 143.456 81.0915 141.936C80.5938 141.632 80.1647 141.227 79.8316 140.748C79.4985 140.269 79.2686 139.726 79.1565 139.154C79.0444 138.581 79.0526 137.992 79.1805 137.423C79.3084 136.854 79.5533 136.317 79.8995 135.848C80.225 135.531 80.6159 135.29 81.0448 135.141C81.4736 134.992 81.9299 134.939 82.3815 134.986C82.8331 135.032 83.269 135.177 83.6584 135.41C84.0479 135.644 84.3814 135.96 84.6355 136.336C85.3395 137.648 85.2755 138.576 86.2355 138.424C87.1955 138.272 87.2355 137.232 87.2995 136.488C87.3635 135.744 87.2995 135.504 87.3955 134.528C89.6755 134.04 92.0355 130.864 92.2995 128.544C93.8441 129.303 95.5464 129.687 97.2675 129.664C99.8195 129.488 101.14 128.976 102.396 127.136C102.695 127.557 102.934 128.017 103.107 128.504C103.463 129.489 103.731 130.504 103.907 131.536C104.192 133.643 104.305 135.77 104.243 137.896Z" fill="#FFA8A7"/>
<path d="M94.4636 148.063C91.9756 147.775 86.8476 146.399 86.0156 144.399C86.3519 145.415 86.9913 146.303 87.8476 146.943C89.3996 148.223 94.4876 149.607 94.4876 149.607L94.4636 148.063Z" fill="#F28F8F"/>
<path d="M96.9692 143.904C96.9739 144.105 96.9188 144.304 96.8108 144.473C96.7028 144.643 96.5468 144.777 96.3625 144.858C96.1783 144.939 95.9741 144.964 95.776 144.928C95.5778 144.893 95.3945 144.8 95.2494 144.661C95.1043 144.521 95.0039 144.342 94.9609 144.145C94.918 143.948 94.9343 143.743 95.008 143.556C95.0817 143.369 95.2094 143.208 95.3748 143.093C95.5402 142.978 95.736 142.915 95.9372 142.912C96.2053 142.908 96.4643 143.01 96.6576 143.196C96.8509 143.381 96.9629 143.636 96.9692 143.904Z" fill="#B16668"/>
<path d="M95.6662 136.304C95.6793 136.446 95.6643 136.589 95.6219 136.725C95.5795 136.861 95.5106 136.988 95.4191 137.097C95.3276 137.206 95.2154 137.296 95.0889 137.362C94.9624 137.428 94.8242 137.468 94.6822 137.48C94.4634 137.503 94.2426 137.461 94.0482 137.358C93.8538 137.255 93.6945 137.096 93.591 136.902C93.4874 136.708 93.4441 136.487 93.4668 136.269C93.4895 136.05 93.5771 135.843 93.7182 135.674C93.8594 135.505 94.0478 135.382 94.2592 135.321C94.4706 135.261 94.6954 135.264 94.9048 135.332C95.1141 135.4 95.2984 135.528 95.4341 135.702C95.5698 135.875 95.6506 136.085 95.6662 136.304Z" fill="#263238"/>
<path d="M102.879 135.848C102.898 136.109 102.815 136.367 102.645 136.566C102.476 136.765 102.235 136.89 101.975 136.912C101.843 136.928 101.71 136.916 101.584 136.876C101.458 136.836 101.342 136.769 101.244 136.681C101.146 136.592 101.069 136.483 101.017 136.361C100.964 136.24 100.939 136.108 100.943 135.976C100.929 135.847 100.942 135.716 100.98 135.591C101.018 135.467 101.081 135.351 101.165 135.251C101.248 135.151 101.351 135.069 101.466 135.01C101.582 134.95 101.709 134.914 101.839 134.904C102.101 134.893 102.358 134.986 102.552 135.163C102.747 135.34 102.864 135.586 102.879 135.848Z" fill="#263238"/>
<path d="M97.8984 134.848L98.6664 141.296L101.97 139.92L97.8984 134.848Z" fill="#F28F8F"/>
<path d="M91.8047 133.519L93.7247 131.695C93.9638 131.961 94.0913 132.309 94.0809 132.667C94.0705 133.024 93.9229 133.364 93.6687 133.615C93.542 133.735 93.3923 133.829 93.2285 133.889C93.0648 133.95 92.8904 133.976 92.7161 133.967C92.5418 133.958 92.3711 133.914 92.2144 133.837C92.0577 133.76 91.9183 133.652 91.8047 133.519Z" fill="#263238"/>
<path d="M101.417 131.104L103.545 132.704C103.447 132.848 103.32 132.971 103.173 133.065C103.026 133.158 102.861 133.221 102.688 133.249C102.516 133.277 102.34 133.269 102.171 133.226C102.002 133.183 101.843 133.106 101.705 133C101.426 132.778 101.241 132.46 101.188 132.108C101.134 131.756 101.216 131.397 101.417 131.104Z" fill="#263238"/>
<path d="M70.7473 72.5037C72.2812 72.2112 73.8493 72.1411 75.4033 72.2957C76.8883 72.4259 78.3379 72.8215 79.6833 73.4637C80.9741 74.0798 82.1152 74.9698 83.0273 76.0717C83.989 77.2509 84.6285 78.6594 84.8833 80.1597C85.1231 81.3369 85.1231 82.5504 84.8833 83.7277C84.6682 84.7523 84.3015 85.7392 83.7953 86.6557C83.3039 87.5475 82.7336 88.3936 82.0913 89.1837C81.4513 89.9837 80.8433 90.7197 80.2753 91.4317C79.732 92.1018 79.2501 92.8193 78.8353 93.5757C78.454 94.2472 78.2683 95.0121 78.2993 95.7837C78.304 96.1424 78.2128 96.4959 78.0353 96.8077C77.9515 96.9551 77.8365 97.0823 77.6983 97.1804C77.5601 97.2785 77.402 97.3452 77.2353 97.3757L73.4673 98.0877C73.2883 98.1233 73.104 98.1225 72.9253 98.0854C72.7466 98.0483 72.5773 97.9756 72.4273 97.8717C72.2712 97.7823 72.1393 97.6561 72.0431 97.5041C71.9469 97.3522 71.8893 97.179 71.8753 96.9997C71.6916 95.816 71.7515 94.6074 72.0513 93.4477C72.3357 92.4144 72.7525 91.4221 73.2913 90.4957C73.8122 89.6133 74.4091 88.7782 75.0753 87.9997C75.7393 87.1997 76.3393 86.4797 76.8913 85.7757C77.3987 85.1434 77.8385 84.4597 78.2033 83.7357C78.5171 83.1074 78.6154 82.3934 78.4833 81.7037C78.377 81.0958 78.124 80.523 77.7462 80.0351C77.3684 79.5471 76.8772 79.1587 76.3153 78.9037C74.9214 78.2702 73.3557 78.121 71.8673 78.4797C69.0619 79.013 67.2619 80.8103 66.4673 83.8717C66.3974 84.1944 66.2729 84.5028 66.0993 84.7837C65.8774 85.0401 65.5649 85.2006 65.2273 85.2317L61.2273 85.9917C60.951 86.0408 60.6663 85.9867 60.4273 85.8397C60.3016 85.7567 60.1948 85.6483 60.1135 85.5216C60.0322 85.3948 59.9783 85.2525 59.9553 85.1037C59.7825 83.8417 59.9198 82.5566 60.3553 81.3597C60.8082 79.9771 61.5015 78.6853 62.4033 77.5437C63.4144 76.2936 64.619 75.2133 65.9713 74.3437C67.4287 73.4261 69.0509 72.8011 70.7473 72.5037ZM78.0513 100.304C78.407 100.242 78.7727 100.321 79.0712 100.524C79.3697 100.727 79.5777 101.038 79.6513 101.392L80.4513 105.76C80.4878 105.935 80.4874 106.115 80.4502 106.29C80.4131 106.465 80.3398 106.631 80.2353 106.776C80.137 106.924 80.0099 107.052 79.8615 107.151C79.7131 107.25 79.5464 107.318 79.3713 107.352L75.1073 108.152C74.9309 108.188 74.7489 108.188 74.5727 108.151C74.3964 108.114 74.2298 108.04 74.0833 107.936C73.9345 107.837 73.8068 107.71 73.7079 107.562C73.609 107.414 73.5408 107.247 73.5073 107.072L72.7073 102.704C72.6738 102.528 72.6765 102.347 72.715 102.173C72.7535 101.998 72.8271 101.833 72.9313 101.688C73.0271 101.537 73.1534 101.407 73.3022 101.308C73.4511 101.209 73.619 101.142 73.7953 101.112L78.0513 100.304Z" fill="#DAA520"/>
<path d="M111.4 90.5276C112.344 91.0508 113.206 91.7083 113.96 92.4796C114.693 93.2024 115.287 94.0539 115.712 94.9916C116.12 95.8885 116.33 96.8625 116.328 97.8476C116.327 98.8977 116.052 99.9292 115.528 100.84C115.136 101.569 114.607 102.216 113.968 102.744C113.397 103.188 112.763 103.546 112.088 103.808C111.432 104.064 110.755 104.262 110.064 104.4L108.112 104.784C107.527 104.896 106.953 105.065 106.4 105.288C105.903 105.472 105.467 105.794 105.144 106.216C104.987 106.409 104.779 106.556 104.544 106.64C104.434 106.681 104.316 106.697 104.198 106.688C104.081 106.678 103.967 106.643 103.864 106.584L101.552 105.288C101.328 105.165 101.161 104.957 101.088 104.712C101.049 104.595 101.037 104.471 101.054 104.348C101.071 104.226 101.115 104.11 101.184 104.008C101.61 103.3 102.177 102.688 102.848 102.208C103.457 101.782 104.119 101.438 104.816 101.184C105.485 100.946 106.173 100.764 106.872 100.64C107.568 100.52 108.216 100.4 108.824 100.272C109.373 100.157 109.909 99.9881 110.424 99.7676C110.869 99.5714 111.239 99.2378 111.48 98.8156C111.69 98.4444 111.807 98.0278 111.821 97.6015C111.835 97.1751 111.746 96.7518 111.56 96.3676C111.103 95.4149 110.34 94.643 109.392 94.1756C108.576 93.7039 107.634 93.4953 106.695 93.5784C105.756 93.6614 104.865 94.032 104.144 94.6396C103.966 94.7846 103.763 94.8957 103.544 94.9676C103.315 95.0057 103.08 94.9541 102.888 94.8236L100.424 93.4476C100.25 93.3496 100.119 93.1897 100.056 92.9996C100.025 92.9002 100.016 92.7953 100.028 92.6919C100.04 92.5885 100.075 92.4888 100.128 92.3996C100.595 91.6559 101.235 91.0357 101.992 90.5916C102.855 90.0711 103.803 89.7082 104.792 89.5196C105.876 89.3073 106.986 89.2722 108.08 89.4156C109.248 89.5694 110.375 89.9469 111.4 90.5276ZM102.968 108.488C103.077 108.548 103.173 108.629 103.249 108.727C103.326 108.824 103.383 108.936 103.416 109.056C103.452 109.174 103.463 109.297 103.449 109.42C103.435 109.542 103.397 109.661 103.336 109.768L101.84 112.448C101.719 112.666 101.516 112.827 101.276 112.896C101.036 112.965 100.779 112.936 100.56 112.816L97.9443 111.352C97.8342 111.294 97.7378 111.214 97.6619 111.116C97.5859 111.018 97.5321 110.905 97.5043 110.784C97.4663 110.666 97.453 110.543 97.4654 110.42C97.4778 110.297 97.5156 110.179 97.5763 110.072L99.0723 107.392C99.133 107.284 99.2145 107.19 99.312 107.114C99.4096 107.039 99.5212 106.984 99.6403 106.952C99.758 106.914 99.8822 106.902 100.005 106.916C100.128 106.93 100.246 106.969 100.352 107.032L102.968 108.488Z" fill="#DAA520"/>
<g opacity="0.2">
<path d="M111.4 90.5276C112.344 91.0508 113.206 91.7083 113.96 92.4796C114.693 93.2024 115.287 94.0539 115.712 94.9916C116.12 95.8885 116.33 96.8625 116.328 97.8476C116.327 98.8977 116.052 99.9292 115.528 100.84C115.136 101.569 114.607 102.216 113.968 102.744C113.397 103.188 112.763 103.546 112.088 103.808C111.432 104.064 110.755 104.262 110.064 104.4L108.112 104.784C107.527 104.896 106.953 105.065 106.4 105.288C105.903 105.472 105.467 105.794 105.144 106.216C104.987 106.409 104.779 106.556 104.544 106.64C104.434 106.681 104.316 106.697 104.198 106.688C104.081 106.678 103.967 106.643 103.864 106.584L101.552 105.288C101.328 105.165 101.161 104.957 101.088 104.712C101.049 104.595 101.037 104.471 101.054 104.348C101.071 104.226 101.115 104.11 101.184 104.008C101.61 103.3 102.177 102.688 102.848 102.208C103.457 101.782 104.119 101.438 104.816 101.184C105.485 100.946 106.173 100.764 106.872 100.64C107.568 100.52 108.216 100.4 108.824 100.272C109.373 100.157 109.909 99.9881 110.424 99.7676C110.869 99.5714 111.239 99.2378 111.48 98.8156C111.69 98.4444 111.807 98.0278 111.821 97.6015C111.835 97.1751 111.746 96.7518 111.56 96.3676C111.103 95.4149 110.34 94.643 109.392 94.1756C108.576 93.7039 107.634 93.4953 106.695 93.5784C105.756 93.6614 104.865 94.032 104.144 94.6396C103.966 94.7846 103.763 94.8957 103.544 94.9676C103.315 95.0057 103.08 94.9541 102.888 94.8236L100.424 93.4476C100.25 93.3496 100.119 93.1897 100.056 92.9996C100.025 92.9002 100.016 92.7953 100.028 92.6919C100.04 92.5885 100.075 92.4888 100.128 92.3996C100.595 91.6559 101.235 91.0357 101.992 90.5916C102.855 90.0711 103.803 89.7082 104.792 89.5196C105.876 89.3073 106.986 89.2722 108.08 89.4156C109.248 89.5694 110.375 89.9469 111.4 90.5276ZM102.968 108.488C103.077 108.548 103.173 108.629 103.249 108.727C103.326 108.824 103.383 108.936 103.416 109.056C103.452 109.174 103.463 109.297 103.449 109.42C103.435 109.542 103.397 109.661 103.336 109.768L101.84 112.448C101.719 112.666 101.516 112.827 101.276 112.896C101.036 112.965 100.779 112.936 100.56 112.816L97.9443 111.352C97.8342 111.294 97.7378 111.214 97.6619 111.116C97.5859 111.018 97.5321 110.905 97.5043 110.784C97.4663 110.666 97.453 110.543 97.4654 110.42C97.4778 110.297 97.5156 110.179 97.5763 110.072L99.0723 107.392C99.133 107.284 99.2145 107.19 99.312 107.114C99.4096 107.039 99.5212 106.984 99.6403 106.952C99.758 106.914 99.8822 106.902 100.005 106.916C100.128 106.93 100.246 106.969 100.352 107.032L102.968 108.488Z" fill="black"/>
</g>
<path d="M55.0493 119.904C55.1558 119.803 55.2816 119.725 55.419 119.674C55.5565 119.623 55.7029 119.6 55.8493 119.608C55.9994 119.61 56.1476 119.642 56.285 119.702C56.4224 119.763 56.5463 119.85 56.6493 119.96L59.1133 122.632C59.2146 122.741 59.2934 122.869 59.3451 123.008C59.3968 123.148 59.4204 123.296 59.4144 123.445C59.4085 123.594 59.3731 123.74 59.3105 123.875C59.2478 124.01 59.159 124.131 59.0493 124.232L56.4413 126.632C56.3323 126.733 56.2043 126.812 56.0647 126.863C55.9251 126.915 55.7767 126.939 55.6279 126.933C55.4792 126.927 55.3331 126.891 55.1981 126.829C55.0631 126.766 54.9418 126.677 54.8413 126.568L52.3773 123.896C52.2749 123.787 52.1952 123.659 52.1429 123.52C52.0906 123.38 52.0668 123.231 52.0727 123.082C52.0787 122.933 52.1143 122.787 52.1776 122.652C52.2409 122.517 52.3306 122.396 52.4413 122.296L55.0493 119.904ZM37.9293 103.784C38.8647 102.909 39.9208 102.174 41.0653 101.6C42.152 101.05 43.3275 100.698 44.5373 100.56C45.6986 100.431 46.8738 100.551 47.9853 100.912C49.1661 101.315 50.2219 102.018 51.0493 102.952C51.7415 103.655 52.2856 104.49 52.6493 105.408C52.9427 106.212 53.1152 107.056 53.1613 107.912C53.2069 108.744 53.1802 109.579 53.0813 110.408C52.9773 111.208 52.8813 112.008 52.7933 112.752C52.7064 113.452 52.6823 114.159 52.7213 114.864C52.7479 115.497 52.9531 116.11 53.3133 116.632C53.4683 116.871 53.5567 117.147 53.5693 117.432C53.5762 117.572 53.551 117.712 53.4955 117.841C53.4401 117.97 53.3558 118.084 53.2493 118.176L50.9453 120.312C50.7267 120.51 50.4401 120.616 50.1453 120.608C49.999 120.613 49.8536 120.583 49.7213 120.52C49.589 120.458 49.4738 120.364 49.3853 120.248C48.7452 119.503 48.2609 118.638 47.9613 117.704C47.7107 116.864 47.5709 115.995 47.5453 115.12C47.5203 114.274 47.5685 113.429 47.6893 112.592C47.8093 111.792 47.9053 110.992 47.9853 110.272C48.0569 109.61 48.0569 108.942 47.9853 108.28C47.9331 107.709 47.694 107.172 47.3053 106.752C46.967 106.377 46.5426 106.09 46.0688 105.916C45.5949 105.741 45.0858 105.685 44.5853 105.752C43.3508 105.911 42.2036 106.474 41.3213 107.352C39.6039 108.952 39.1319 110.981 39.9053 113.44C40.0001 113.696 40.0489 113.966 40.0493 114.24C40.0295 114.374 39.9832 114.504 39.9132 114.62C39.8432 114.737 39.7507 114.839 39.6413 114.92L37.1853 117.192C37.0136 117.357 36.7839 117.449 36.5453 117.448C36.4231 117.446 36.3027 117.417 36.1923 117.365C36.0819 117.312 35.9841 117.237 35.9053 117.144C35.2252 116.357 34.7498 115.414 34.5213 114.4C34.2498 113.239 34.1875 112.038 34.3373 110.856C34.5015 109.559 34.8743 108.297 35.4413 107.12C36.0451 105.856 36.8903 104.723 37.9293 103.784Z" fill="#DAA520"/>
<g opacity="0.6">
<path d="M55.0493 119.904C55.1558 119.803 55.2816 119.725 55.419 119.674C55.5565 119.623 55.7029 119.6 55.8493 119.608C55.9994 119.61 56.1476 119.642 56.285 119.702C56.4224 119.763 56.5463 119.85 56.6493 119.96L59.1133 122.632C59.2146 122.741 59.2934 122.869 59.3451 123.008C59.3968 123.148 59.4204 123.296 59.4144 123.445C59.4085 123.594 59.3731 123.74 59.3105 123.875C59.2478 124.01 59.159 124.131 59.0493 124.232L56.4413 126.632C56.3323 126.733 56.2043 126.812 56.0647 126.863C55.9251 126.915 55.7767 126.939 55.6279 126.933C55.4792 126.927 55.3331 126.891 55.1981 126.829C55.0631 126.766 54.9418 126.677 54.8413 126.568L52.3773 123.896C52.2749 123.787 52.1952 123.659 52.1429 123.52C52.0906 123.38 52.0668 123.231 52.0727 123.082C52.0787 122.933 52.1143 122.787 52.1776 122.652C52.2409 122.517 52.3306 122.396 52.4413 122.296L55.0493 119.904ZM37.9293 103.784C38.8647 102.909 39.9208 102.174 41.0653 101.6C42.152 101.05 43.3275 100.698 44.5373 100.56C45.6986 100.431 46.8738 100.551 47.9853 100.912C49.1661 101.315 50.2219 102.018 51.0493 102.952C51.7415 103.655 52.2856 104.49 52.6493 105.408C52.9427 106.212 53.1152 107.056 53.1613 107.912C53.2069 108.744 53.1802 109.579 53.0813 110.408C52.9773 111.208 52.8813 112.008 52.7933 112.752C52.7064 113.452 52.6823 114.159 52.7213 114.864C52.7479 115.497 52.9531 116.11 53.3133 116.632C53.4683 116.871 53.5567 117.147 53.5693 117.432C53.5762 117.572 53.551 117.712 53.4955 117.841C53.4401 117.97 53.3558 118.084 53.2493 118.176L50.9453 120.312C50.7267 120.51 50.4401 120.616 50.1453 120.608C49.999 120.613 49.8536 120.583 49.7213 120.52C49.589 120.458 49.4738 120.364 49.3853 120.248C48.7452 119.503 48.2609 118.638 47.9613 117.704C47.7107 116.864 47.5709 115.995 47.5453 115.12C47.5203 114.274 47.5685 113.429 47.6893 112.592C47.8093 111.792 47.9053 110.992 47.9853 110.272C48.0569 109.61 48.0569 108.942 47.9853 108.28C47.9331 107.709 47.694 107.172 47.3053 106.752C46.967 106.377 46.5426 106.09 46.0688 105.916C45.5949 105.741 45.0858 105.685 44.5853 105.752C43.3508 105.911 42.2036 106.474 41.3213 107.352C39.6039 108.952 39.1319 110.981 39.9053 113.44C40.0001 113.696 40.0489 113.966 40.0493 114.24C40.0295 114.374 39.9832 114.504 39.9132 114.62C39.8432 114.737 39.7507 114.839 39.6413 114.92L37.1853 117.192C37.0136 117.357 36.7839 117.449 36.5453 117.448C36.4231 117.446 36.3027 117.417 36.1923 117.365C36.0819 117.312 35.9841 117.237 35.9053 117.144C35.2252 116.357 34.7498 115.414 34.5213 114.4C34.2498 113.239 34.1875 112.038 34.3373 110.856C34.5015 109.559 34.8743 108.297 35.4413 107.12C36.0451 105.856 36.8903 104.723 37.9293 103.784Z" fill="white"/>
</g>
<path d="M217.953 175.72C215.673 174.416 206.073 168.864 202.809 166.976C202.161 166.608 201.753 166.368 201.721 166.344C200.098 165.439 198.202 165.155 196.385 165.544C194.826 165.86 193.332 166.442 191.969 167.264C191.745 167.392 191.521 167.544 191.305 167.688C187.617 170.016 184.449 173.68 181.809 178.72C179.121 183.629 177.679 189.123 177.609 194.72C177.609 200.021 179.023 203.741 181.849 205.88C182.136 206.093 182.435 206.288 182.745 206.464C185.393 207.968 198.673 215.664 198.969 215.832H199.041C198.715 215.653 198.402 215.45 198.105 215.224C195.273 213.091 193.86 209.373 193.865 204.072C193.935 198.475 195.377 192.981 198.065 188.072C200.855 182.739 204.239 178.917 208.217 176.608C212.004 174.421 215.273 174.136 218.025 175.752L217.953 175.72Z" fill="#DAA520"/>
<path opacity="0.4" d="M218.03 175.768C215.278 174.168 212.009 174.451 208.222 176.616C204.526 178.75 201.34 182.216 198.662 187.016L182.406 177.6C184.918 173.112 187.886 169.808 191.302 167.656C191.518 167.52 191.742 167.36 191.966 167.232C193.328 166.409 194.822 165.83 196.382 165.52C198.199 165.127 200.097 165.411 201.718 166.32L202.806 166.952C206.07 168.832 215.67 174.384 217.95 175.688L218.03 175.768Z" fill="black"/>
<path opacity="0.3" d="M199.041 215.808H198.969C198.673 215.64 185.369 207.944 182.745 206.44C182.435 206.265 182.136 206.07 181.849 205.856C179.023 203.723 177.609 200.006 177.609 194.704C177.677 189.107 179.119 183.613 181.809 178.704C182.001 178.328 182.201 177.96 182.409 177.608L198.657 186.992C198.457 187.344 198.257 187.712 198.065 188.08C195.377 192.99 193.935 198.484 193.865 204.08C193.865 209.382 195.279 213.099 198.105 215.232C198.403 215.447 198.716 215.64 199.041 215.808Z" fill="black"/>
<path d="M210.868 38.4399C218.756 33.8799 225.471 31.9412 231.012 32.6239C233.267 32.8933 235.444 33.6172 237.412 34.7519C237.357 34.7228 237.303 34.6908 237.252 34.6559C235.348 33.5839 223.876 26.9679 221.252 25.4239C219.25 24.254 217.027 23.513 214.724 23.2479C209.177 22.5705 202.46 24.5065 194.572 29.0559C182.305 36.1332 172.439 46.5332 164.972 60.2559C157.505 73.9785 153.812 87.9865 153.892 102.28L170.14 111.664C170.028 97.3599 173.721 83.3492 181.22 69.6319C188.719 55.9145 198.601 45.5172 210.868 38.4399Z" fill="#DAA520"/>
<path opacity="0.2" d="M237.286 34.6641C235.348 33.5842 233.217 32.8914 231.014 32.6241C225.478 31.9414 218.764 33.8801 210.87 38.4401C198.604 45.5121 188.737 55.9121 181.27 69.6401C180.958 70.2081 180.654 70.7841 180.358 71.3521L164.07 61.9521C164.366 61.3841 164.67 60.8081 164.982 60.2401C172.481 46.5281 182.348 36.1281 194.582 29.0401C202.481 24.4854 209.198 22.5494 214.734 23.2321C217.038 23.4999 219.261 24.2436 221.262 25.4161C223.91 26.9761 235.382 33.6001 237.286 34.6641Z" fill="black"/>
<path opacity="0.3" d="M180.317 71.3361C173.431 84.5041 170.042 97.9415 170.149 111.648L153.901 102.264C153.799 88.5522 157.189 75.1148 164.069 61.9521L180.317 71.3361Z" fill="black"/>
<path d="M221.91 65.0319C218.96 63.4639 215.022 64.0772 210.094 66.8719C209.927 69.8039 209.323 72.6945 208.302 75.4479C207.07 78.7652 203.486 85.6079 197.55 95.9759C191.4 106.696 186.952 116.933 184.206 126.688C181.482 136.319 180.098 146.279 180.094 156.288L180.174 161.272L191.262 167.672L196.43 170.656L196.342 165.664V165.6C196.359 155.624 197.743 145.697 200.454 136.096C203.2 126.341 207.651 116.107 213.806 105.392C219.736 95.0239 223.318 88.1785 224.55 84.8559C225.78 81.571 226.409 78.0915 226.406 74.5839C226.406 69.8105 224.907 66.6265 221.91 65.0319Z" fill="#DAA520"/>
<path opacity="0.3" d="M222.958 88.4477C221.123 92.2664 218.072 97.9037 213.806 105.36C207.646 116.08 203.195 126.317 200.454 136.072C197.74 145.68 196.356 155.615 196.342 165.6V165.728L196.43 170.72L191.262 167.744L180.174 161.344L180.094 156.352C180.098 146.343 181.482 136.383 184.206 126.752C186.952 116.997 191.4 106.76 197.55 96.0397C201.816 88.5731 204.872 82.9384 206.718 79.1357L222.958 88.4477Z" fill="black"/>
<path opacity="0.4" d="M226.407 74.5839C226.408 78.0803 225.783 81.5486 224.559 84.8239C224.215 85.7599 223.679 86.9679 222.959 88.4479L206.719 79.0719C207.428 77.5892 207.961 76.3812 208.319 75.4479C209.34 72.6945 209.944 69.8039 210.111 66.8719C215.039 64.0772 218.977 63.4639 221.927 65.0319C224.876 66.5999 226.369 69.7839 226.407 74.5839Z" fill="black"/>
<path d="M192.143 98.9441L170.151 111.648C170.039 97.3441 173.732 83.3335 181.231 69.6161C188.73 55.8988 198.596 45.4988 210.831 38.4161C218.719 33.8561 225.434 31.9175 230.975 32.6001C236.516 33.2828 240.951 36.3201 244.279 41.7121C247.612 47.1041 249.279 53.8295 249.279 61.8881C249.246 66.5668 248.709 71.2283 247.679 75.7921C246.432 81.2515 244.75 86.602 242.647 91.7921C241.303 95.1841 238.084 101.445 232.991 110.576C228.122 119.28 225.071 125.203 223.839 128.344C222.471 132.073 221.456 135.922 220.807 139.84C219.838 145.697 219.304 151.617 219.207 157.552L196.463 170.688L196.375 165.696C196.38 155.687 197.763 145.727 200.487 136.096C203.234 126.341 207.684 116.107 213.839 105.392C219.77 95.0241 223.351 88.1788 224.583 84.8561C225.802 81.5693 226.42 78.0898 226.407 74.5841C226.407 69.7841 224.911 66.6001 221.919 65.0321C218.927 63.4641 214.911 64.1201 209.871 67.0001C204.719 69.9761 200.492 74.4401 197.191 80.3921C193.962 86.048 192.225 92.4321 192.143 98.9441Z" fill="#DAA520"/>
<path d="M208.18 176.664C212.26 174.301 215.743 174.154 218.628 176.224C221.514 178.293 222.956 181.976 222.956 187.272C222.869 192.899 221.399 198.418 218.676 203.344C215.828 208.757 212.386 212.629 208.348 214.96C204.311 217.29 200.882 217.386 198.06 215.248C195.234 213.114 193.82 209.394 193.82 204.088C193.89 198.491 195.332 192.997 198.02 188.088C200.82 182.765 204.207 178.957 208.18 176.664Z" fill="#DAA520"/>
</svg>
