<svg width="164" height="48" viewBox="0 0 164 48" fill="none" xmlns="http://www.w3.org/2000/svg">
<path d="M37.08 36V10.6H27.76V7.32H50.2V10.6H40.96V36H37.08ZM34.2 36V34.36C34.2 34.12 34.2533 33.9333 34.36 33.8C34.4667 33.64 34.6267 33.5467 34.84 33.52L37.84 32.88L38.28 36H34.2ZM39.76 36L40.2 32.88L43.2 33.52C43.4133 33.5467 43.5733 33.64 43.68 33.8C43.7867 33.9333 43.84 34.12 43.84 34.36V36H39.76ZM46.92 9.6L50.2 10.6V14.24H48.36C48.1467 14.24 47.96 14.2 47.8 14.12C47.6667 14.0133 47.5733 13.84 47.52 13.6L46.92 9.6ZM31.04 9.6L30.44 13.6C30.4133 13.84 30.32 14.0133 30.16 14.12C30 14.2 29.8133 14.24 29.6 14.24H27.76V10.6L31.04 9.6ZM56.8544 36.32C55.7877 36.32 54.8277 36.12 53.9744 35.72C53.121 35.2933 52.441 34.68 51.9344 33.88C51.4277 33.08 51.1744 32.0933 51.1744 30.92C51.1744 30.12 51.3877 29.36 51.8144 28.64C52.2677 27.8933 52.9877 27.2267 53.9744 26.64C54.961 26.08 56.241 25.6133 57.8144 25.24C59.4144 24.8667 61.361 24.6533 63.6544 24.6V23.04C63.6544 21.4667 63.3077 20.28 62.6144 19.48C61.9477 18.6533 60.961 18.24 59.6544 18.24C58.961 18.24 58.2277 18.4267 57.4544 18.8C56.7077 19.1467 56.0144 19.5067 55.3744 19.88C54.7344 20.2267 54.2277 20.4 53.8544 20.4C53.6144 20.4 53.401 20.3333 53.2144 20.2C53.0544 20.0667 52.921 19.9067 52.8144 19.72L52.1744 18.6C53.2944 17.5067 54.4944 16.6933 55.7744 16.16C57.081 15.6267 58.521 15.36 60.0944 15.36C61.6144 15.36 62.8944 15.68 63.9344 16.32C64.9744 16.96 65.761 17.8533 66.2944 19C66.8544 20.1467 67.1344 21.4933 67.1344 23.04V36H65.5744C65.2277 36 64.9477 35.9467 64.7344 35.84C64.521 35.7333 64.3744 35.5067 64.2944 35.16L63.8944 33.28C62.8277 34.24 61.761 34.9867 60.6944 35.52C59.6277 36.0533 58.3477 36.32 56.8544 36.32ZM57.8944 33.8C59.0944 33.8 60.1477 33.56 61.0544 33.08C61.961 32.6 62.8277 31.9333 63.6544 31.08V26.88C62.2677 26.9067 61.0144 27.0133 59.8944 27.2C58.7744 27.36 57.8144 27.6 57.0144 27.92C56.241 28.2133 55.641 28.6 55.2144 29.08C54.8144 29.5333 54.6144 30.0933 54.6144 30.76C54.6144 31.8267 54.921 32.6 55.5344 33.08C56.1744 33.56 56.961 33.8 57.8944 33.8ZM65.9344 36L66.3744 32.88L69.3744 33.52C69.5877 33.5467 69.7477 33.64 69.8544 33.8C69.961 33.9333 70.0144 34.12 70.0144 34.36V36H65.9344ZM76.5706 42.88L80.2506 34.8L71.8906 15.72H74.9706C75.2906 15.72 75.5306 15.8 75.6906 15.96C75.8773 16.12 76.0106 16.2933 76.0906 16.48L81.4906 29.24C81.5706 29.4267 81.664 29.6933 81.7706 30.04C81.8773 30.3867 81.9706 30.7067 82.0506 31C82.104 30.7867 82.1573 30.5867 82.2106 30.4C82.264 30.2133 82.3306 30.0267 82.4106 29.84C82.4906 29.6267 82.5706 29.4133 82.6506 29.2L87.8906 16.48C87.9706 16.2667 88.104 16.0933 88.2906 15.96C88.504 15.8 88.7173 15.72 88.9306 15.72H91.7706L80.4906 42C80.384 42.2667 80.2373 42.48 80.0506 42.64C79.864 42.8 79.584 42.88 79.2106 42.88H76.5706ZM74.4506 16.72V15.72H77.4506V16.72H74.4506ZM86.8506 16.72V15.72H89.8506V16.72H86.8506ZM74.6906 15.72L74.2506 18.84L71.2506 18.2C71.0373 18.1467 70.8773 18.0533 70.7706 17.92C70.664 17.7867 70.6106 17.6 70.6106 17.36V15.72H74.6906ZM79.6906 15.72V17.36C79.6906 17.6 79.6373 17.7867 79.5306 17.92C79.424 18.0533 79.264 18.1467 79.0506 18.2L76.0506 18.84L75.6106 15.72H79.6906ZM88.0506 15.72L87.6106 18.84L84.6106 18.2C84.3973 18.1467 84.2373 18.0533 84.1306 17.92C84.024 17.7867 83.9706 17.6 83.9706 17.36V15.72H88.0506ZM93.0506 15.72V17.36C93.0506 17.6 92.9973 17.7867 92.8906 17.92C92.784 18.0533 92.624 18.1467 92.4106 18.2L89.4106 18.84L88.9706 15.72H93.0506ZM100.878 36.32C99.8111 36.32 98.8511 36.12 97.9978 35.72C97.1445 35.2933 96.4645 34.68 95.9578 33.88C95.4511 33.08 95.1978 32.0933 95.1978 30.92C95.1978 30.12 95.4111 29.36 95.8378 28.64C96.2911 27.8933 97.0111 27.2267 97.9978 26.64C98.9845 26.08 100.264 25.6133 101.838 25.24C103.438 24.8667 105.384 24.6533 107.678 24.6V23.04C107.678 21.4667 107.331 20.28 106.638 19.48C105.971 18.6533 104.984 18.24 103.678 18.24C102.984 18.24 102.251 18.4267 101.478 18.8C100.731 19.1467 100.038 19.5067 99.3978 19.88C98.7578 20.2267 98.2511 20.4 97.8778 20.4C97.6378 20.4 97.4245 20.3333 97.2378 20.2C97.0778 20.0667 96.9445 19.9067 96.8378 19.72L96.1978 18.6C97.3178 17.5067 98.5178 16.6933 99.7978 16.16C101.104 15.6267 102.544 15.36 104.118 15.36C105.638 15.36 106.918 15.68 107.958 16.32C108.998 16.96 109.784 17.8533 110.318 19C110.878 20.1467 111.158 21.4933 111.158 23.04V36H109.598C109.251 36 108.971 35.9467 108.758 35.84C108.544 35.7333 108.398 35.5067 108.318 35.16L107.918 33.28C106.851 34.24 105.784 34.9867 104.718 35.52C103.651 36.0533 102.371 36.32 100.878 36.32ZM101.918 33.8C103.118 33.8 104.171 33.56 105.078 33.08C105.984 32.6 106.851 31.9333 107.678 31.08V26.88C106.291 26.9067 105.038 27.0133 103.918 27.2C102.798 27.36 101.838 27.6 101.038 27.92C100.264 28.2133 99.6645 28.6 99.2378 29.08C98.8378 29.5333 98.6378 30.0933 98.6378 30.76C98.6378 31.8267 98.9445 32.6 99.5578 33.08C100.198 33.56 100.984 33.8 101.918 33.8ZM109.958 36L110.398 32.88L113.398 33.52C113.611 33.5467 113.771 33.64 113.878 33.8C113.984 33.9333 114.038 34.12 114.038 34.36V36H109.958ZM118.539 36V15.72H120.659C121.192 15.72 121.512 15.9733 121.619 16.48L121.899 18.68C122.779 17.6933 123.766 16.9067 124.859 16.32C125.952 15.7067 127.206 15.4 128.619 15.4C130.112 15.4 131.352 15.72 132.339 16.36C133.352 17 134.112 17.9067 134.619 19.08C135.152 20.2267 135.419 21.56 135.419 23.08V36H131.859V23.08C131.859 21.56 131.499 20.3733 130.779 19.52C130.086 18.6667 129.019 18.24 127.579 18.24C126.539 18.24 125.552 18.4933 124.619 19C123.712 19.5067 122.872 20.2 122.099 21.08V36H118.539ZM115.659 36V34.36C115.659 34.12 115.712 33.9333 115.819 33.8C115.926 33.64 116.086 33.5467 116.299 33.52L119.299 32.88L119.739 36H115.659ZM120.899 36L121.339 32.88L124.339 33.52C124.552 33.5467 124.712 33.64 124.819 33.8C124.926 33.9333 124.979 34.12 124.979 34.36V36H120.899ZM134.219 36L134.659 32.88L137.659 33.52C137.872 33.5467 138.032 33.64 138.139 33.8C138.246 33.9333 138.299 34.12 138.299 34.36V36H134.219ZM119.739 15.72L119.299 18.84L116.299 18.2C116.086 18.1467 115.926 18.0533 115.819 17.92C115.712 17.7867 115.659 17.6 115.659 17.36V15.72H119.739ZM143.036 36V7.32H151.556C153.849 7.32 155.783 7.66667 157.356 8.36C158.956 9.05333 160.169 10.0667 160.996 11.4C161.823 12.7067 162.236 14.3067 162.236 16.2C162.236 18.04 161.796 19.64 160.916 21C160.063 22.36 158.836 23.4133 157.236 24.16C155.636 24.9067 153.743 25.28 151.556 25.28H146.956V36H143.036ZM146.956 22.2H151.556C152.969 22.2 154.183 21.96 155.196 21.48C156.209 20.9733 156.983 20.28 157.516 19.4C158.076 18.4933 158.356 17.4267 158.356 16.2C158.356 14.3867 157.783 12.9733 156.636 11.96C155.516 10.92 153.823 10.4 151.556 10.4H146.956V22.2ZM140.156 36V34.36C140.156 34.12 140.209 33.9333 140.316 33.8C140.423 33.64 140.583 33.5467 140.796 33.52L143.796 32.88L144.236 36H140.156ZM144.236 7.32L143.796 10.44L140.796 9.8C140.583 9.74667 140.423 9.65333 140.316 9.52C140.209 9.38666 140.156 9.2 140.156 8.96V7.32H144.236ZM145.756 36L146.196 32.88L149.196 33.52C149.409 33.5467 149.569 33.64 149.676 33.8C149.783 33.9333 149.836 34.12 149.836 34.36V36H145.756Z" fill="white"/>
<path d="M15 37.5C21.9036 37.5 27.5 31.9036 27.5 25C27.5 18.0964 21.9036 12.5 15 12.5C8.09644 12.5 2.5 18.0964 2.5 25C2.5 31.9036 8.09644 37.5 15 37.5Z" stroke="#107DDA" stroke-opacity="0.9" stroke-width="2" stroke-linecap="round" stroke-linejoin="round"/>
<path d="M20 25.5H34" stroke="#107DDA" stroke-width="2" stroke-linecap="round" stroke-linejoin="round"/>
</svg>
